
<?xml version="1.0" standalone="no"?>
<!DOCTYPE svg PUBLIC "-//W3C//DTD SVG 1.1//EN" "http://www.w3.org/Graphics/SVG/1.1/DTD/svg11.dtd" >
<svg xmlns="http://www.w3.org/2000/svg">
<metadata></metadata>
<defs>
<font id="rio2016light" horiz-adv-x="1126" >
<font-face units-per-em="2048" ascent="1552" descent="-496" />
<missing-glyph horiz-adv-x="450" />
<glyph unicode="&#xfb01;" horiz-adv-x="1501" d="M72 717q0 31 12 41t41 14q23 4 93.5 8t158.5 8q25 135 74 258t123.5 216.5t175 148.5t227.5 55q53 0 85 -20.5t32 -61.5q0 -51 -29 -71.5t-64 -20.5h-73q-94 0 -163 -30.5t-119 -93t-84 -155.5t-54 -218q61 4 123.5 7t116 5t94.5 3t61 1q53 0 66.5 -19.5t13.5 -48.5 q0 -45 -24.5 -71.5t-112.5 -26.5q-86 0 -175 -1t-184 1q-2 -29 -3 -64.5t-1 -82.5q0 -115 10.5 -233t27 -229.5t37 -213t40.5 -182.5q4 -14 6 -30t2 -30q0 -35 -20.5 -59.5t-67.5 -24.5t-70.5 33t-33.5 76q-14 57 -27.5 146t-24 196.5t-16.5 224.5t-6 227q0 74 4 133.5 t10 116.5q-57 2 -114.5 3t-116.5 5q-29 2 -40 18.5t-11 41.5zM1147 1108q0 41 31 79t80 38q39 0 69.5 -29t30.5 -72q0 -41 -32.5 -75.5t-77.5 -34.5q-47 0 -74 27.5t-27 66.5zM1166 334v373q0 59 23.5 86.5t62.5 27.5t54 -24.5t15 -71.5v-367q0 -88 20.5 -120.5t59.5 -32.5 q59 0 101 57t77 154l31 82q10 27 19.5 45t31.5 18q10 0 24.5 -7t14.5 -32q0 -10 -5 -29.5t-22 -66.5q-12 -35 -31 -84t-44 -96q-41 -78 -101.5 -136.5t-146.5 -58.5q-92 0 -138 76t-46 207z" />
<glyph unicode="&#xfb02;" horiz-adv-x="1591" d="M72 717q0 31 12 41t41 14q23 4 93.5 8t158.5 8q25 135 74 258t123.5 216.5t175 148.5t227.5 55q53 0 85 -20.5t32 -61.5q0 -51 -29 -71.5t-64 -20.5h-73q-94 0 -163 -30.5t-119 -93t-84 -155.5t-54 -218q61 4 123.5 7t116 5t94.5 3t61 1q53 0 66.5 -19.5t13.5 -48.5 q0 -45 -24.5 -71.5t-112.5 -26.5q-86 0 -175 -1t-184 1q-2 -29 -3 -64.5t-1 -82.5q0 -115 10.5 -233t27 -229.5t37 -213t40.5 -182.5q4 -14 6 -30t2 -30q0 -35 -20.5 -59.5t-67.5 -24.5t-70.5 33t-33.5 76q-14 57 -27.5 146t-24 196.5t-16.5 224.5t-6 227q0 74 4 133.5 t10 116.5q-57 2 -114.5 3t-116.5 5q-29 2 -40 18.5t-11 41.5zM1149 467q0 147 15.5 286.5t41 263.5t57.5 227.5t62 174.5q25 57 56.5 82t72.5 25q37 0 50.5 -14.5t13.5 -34.5q0 -16 -7 -34t-28 -59q-41 -86 -75 -191.5t-58.5 -222t-37.5 -240.5t-13 -247q0 -92 12 -148 t33.5 -88t50.5 -43t59 -11q74 0 126.5 62t97.5 183l20 56q10 27 20.5 47t32.5 20q10 0 24.5 -7t14.5 -32q0 -10 -5 -29.5t-21 -66.5q-12 -37 -32.5 -90t-47.5 -100q-47 -86 -117 -143.5t-168 -57.5q-109 0 -179.5 103.5t-70.5 328.5z" />
<glyph unicode="&#xfb03;" horiz-adv-x="2211" d="M72 705q0 33 12 42t41 13t93.5 7t156.5 7v2q25 137 73 262t122.5 220.5t176 151.5t230.5 56q53 0 85 -18t32 -59q0 -51 -29 -72t-64 -21h-73q-190 0 -285.5 -130t-136.5 -386l575 19q25 135 74 256t124 212t174 145t226 54q53 0 98.5 -23.5t45.5 -64.5q0 -51 -25.5 -73.5 t-66.5 -18.5q-49 6 -101 6q-186 0 -280.5 -121.5t-137.5 -367.5q147 4 257 7t143 3q53 0 66.5 -19.5t13.5 -48.5q0 -23 -5.5 -40t-19.5 -30t-41 -20.5t-72 -7.5q-51 0 -146 -1t-218 -3q-4 -25 -4 -55.5v-73.5q2 -231 33.5 -420.5t72.5 -357.5q4 -14 6 -29.5t2 -30.5 q0 -29 -21.5 -55.5t-61.5 -26.5q-55 0 -76 28t-33 79q-29 115 -47.5 303.5t-18.5 411.5q0 70 3.5 123t9.5 104q-143 -2 -287.5 -2h-280.5q-2 -29 -3 -62.5t-1 -80.5q0 -115 10.5 -233t27 -229.5t37 -213t40.5 -182.5q4 -14 6 -30t2 -30q0 -35 -20.5 -59.5t-67.5 -24.5 t-70.5 33t-33.5 76q-14 57 -27.5 146t-24 196.5t-16.5 224.5t-6 227q0 72 3 130.5t11 111.5l-231 6q-29 2 -40 18.5t-11 39.5zM1857 1108q0 41 31 79t80 38q39 0 69.5 -29t30.5 -72q0 -41 -32.5 -75.5t-77.5 -34.5q-47 0 -74 27.5t-27 66.5zM1876 334v373q0 59 23.5 86.5 t62.5 27.5t54 -24.5t15 -71.5v-367q0 -88 20.5 -120.5t59.5 -32.5q59 0 101 57t77 154l31 82q10 27 19.5 45t31.5 18q10 0 24.5 -7t14.5 -32q0 -10 -5 -29.5t-22 -66.5q-12 -35 -31 -84t-44 -96q-41 -78 -101.5 -136.5t-146.5 -58.5q-92 0 -138 76t-46 207z" />
<glyph unicode="&#xfb04;" horiz-adv-x="2304" d="M72 705q0 33 12 42t41 13t93.5 7t156.5 7v2q25 137 73 262t122.5 220.5t176 151.5t230.5 56q53 0 85 -18t32 -59q0 -51 -29 -72t-64 -21h-73q-190 0 -285.5 -130t-136.5 -386l575 19q25 135 74 256t124 212t174 145t226 54q53 0 98.5 -23.5t45.5 -64.5q0 -51 -25.5 -73.5 t-66.5 -18.5q-49 6 -101 6q-186 0 -280.5 -121.5t-137.5 -367.5q147 4 257 7t143 3q53 0 66.5 -19.5t13.5 -48.5q0 -23 -5.5 -40t-19.5 -30t-41 -20.5t-72 -7.5q-51 0 -146 -1t-218 -3q-4 -25 -4 -55.5v-73.5q2 -231 33.5 -420.5t72.5 -357.5q4 -14 6 -29.5t2 -30.5 q0 -29 -21.5 -55.5t-61.5 -26.5q-55 0 -76 28t-33 79q-29 115 -47.5 303.5t-18.5 411.5q0 70 3.5 123t9.5 104q-143 -2 -287.5 -2h-280.5q-2 -29 -3 -62.5t-1 -80.5q0 -115 10.5 -233t27 -229.5t37 -213t40.5 -182.5q4 -14 6 -30t2 -30q0 -35 -20.5 -59.5t-67.5 -24.5 t-70.5 33t-33.5 76q-14 57 -27.5 146t-24 196.5t-16.5 224.5t-6 227q0 72 3 130.5t11 111.5l-231 6q-29 2 -40 18.5t-11 39.5zM1861 467q0 147 15.5 286.5t41 263.5t57.5 227.5t62 174.5q25 57 56.5 82t72.5 25q37 0 50.5 -14.5t13.5 -34.5q0 -16 -7 -34t-28 -59 q-41 -86 -75 -191.5t-58.5 -222t-37.5 -240.5t-13 -247q0 -92 12 -148t33.5 -88t50.5 -43t59 -11q74 0 126.5 62t97.5 183l20 56q10 27 20.5 47t32.5 20q10 0 24.5 -7t14.5 -32q0 -10 -5 -29.5t-21 -66.5q-12 -37 -32.5 -90t-47.5 -100q-47 -86 -117 -143.5t-168 -57.5 q-109 0 -179.5 103.5t-70.5 328.5z" />
<glyph unicode="&#xd;" horiz-adv-x="450" />
<glyph horiz-adv-x="0" />
<glyph horiz-adv-x="0" />
<glyph unicode=" "  horiz-adv-x="450" />
<glyph unicode="&#x09;" horiz-adv-x="450" />
<glyph unicode="&#xa0;" horiz-adv-x="450" />
<glyph unicode="!" horiz-adv-x="448" d="M104 109q0 53 36 93t91 40t81 -38t26 -79q0 -53 -38 -93t-91 -40t-79 37t-26 80zM168 1327q0 35 20.5 63.5t75.5 28.5q31 0 47.5 -13t22.5 -48q6 -27 8 -73t2 -111q0 -94 -2 -177.5t-6 -165t-12.5 -166.5t-22.5 -182q-6 -47 -26.5 -59t-43.5 -12q-47 0 -47 51 q0 82 4.5 165t4.5 173q0 104 -2.5 212.5t-16.5 227.5q-6 49 -6 86z" />
<glyph unicode="&#x22;" horiz-adv-x="743" d="M121 1153v33.5t2 50.5q4 49 30.5 72.5t67.5 23.5q51 0 51 -53q0 -29 -3 -85t-8 -119.5t-12 -125t-13 -100.5q-8 -53 -54 -53q-16 0 -25.5 12t-13.5 27q-23 119 -22 317zM461 1159v58q0 55 28.5 78.5t71.5 23.5q31 0 46.5 -19.5t15.5 -46.5q0 -23 -2.5 -46t-6.5 -56 q-8 -86 -20 -172t-23 -143q-4 -29 -19 -41.5t-36 -12.5q-18 0 -27.5 12.5t-11.5 28.5q-10 78 -12 162t-4 174z" />
<glyph unicode="#" horiz-adv-x="1314" d="M84 371q0 35 19.5 59.5t54.5 26.5l192 12l80 313q-49 -4 -108.5 -9t-94.5 -5q-25 0 -33 14.5t-8 34.5q0 25 13.5 54.5t48.5 35.5q16 4 75.5 8.5t143.5 10.5l80 301q20 76 82 76q49 0 49 -39q0 -4 -2 -16.5t-8 -35.5l-74 -278q70 4 141.5 8t138.5 8l78 285q16 63 76 63 q27 0 40 -13t13 -32q0 -8 -4 -22t-8 -31q-8 -29 -22.5 -86t-42.5 -156q59 4 103 5.5t60 1.5q66 0 66 -64q0 -35 -20.5 -59.5t-57.5 -24.5t-86 -1t-104 -3l-91 -317q35 2 68 2h70q63 0 89.5 -13.5t26.5 -46.5q0 -31 -18 -61.5t-55 -30.5h-226l-81 -287q-10 -33 -32 -49 t-48 -16q-45 0 -45 39q0 4 2 15t4 18l78 278q-125 0 -269 -6l-76 -293q-8 -29 -28.5 -42t-42.5 -13q-23 0 -37 7t-14 30q0 10 4 30l69 275l-139 -10q-16 -2 -24.5 -2.5t-22.5 -0.5q-43 0 -43 52zM475 477q90 4 154.5 8t118.5 7l86 315q-70 -4 -140.5 -7t-136.5 -7z" />
<glyph unicode="$" d="M86 106q0 35 19.5 64t54.5 29q20 0 43.5 -11.5t58.5 -24.5t84 -27.5t119 -20.5l31 510q-74 25 -136.5 53.5t-108.5 67t-71.5 93t-25.5 132.5q0 74 28.5 135t80.5 108.5t123 78t155 42.5l6 107q2 41 12 72.5t53 31.5q25 0 36 -16.5t9 -44.5q-4 -37 -5 -73t-3 -71 q33 0 73 -4t80 -12t76.5 -19.5t63.5 -25.5q23 -14 35 -31.5t12 -48.5q0 -29 -20.5 -55.5t-61.5 -26.5q-10 0 -24.5 5t-30.5 14q-33 16 -81 36.5t-130 26.5q-6 -127 -13 -238.5t-14 -209.5q70 -23 134.5 -50.5t113.5 -68.5t79 -100.5t30 -145.5q0 -172 -109.5 -277.5 t-296.5 -129.5l-14 -160q-4 -35 -19.5 -56.5t-46.5 -21.5q-41 0 -41 47q0 6 1 14.5t2.5 22.5t3.5 38.5t4 65.5l2 41h-2q-137 0 -232 25q-53 14 -95 38.5t-42 71.5zM283 1012q0 -90 60 -139.5t163 -86.5l26 416q-43 -4 -87 -13t-79.5 -30.5t-59 -57.5t-23.5 -89zM575 113 q117 6 191 72.5t74 170.5q0 51 -16.5 87t-47.5 61.5t-74 45t-96 38.5z" />
<glyph unicode="%" horiz-adv-x="1556" d="M97 932q0 74 25.5 136t69.5 109.5t101.5 74t120.5 26.5q61 0 111.5 -25.5t87.5 -68.5t56.5 -100.5t19.5 -118.5q0 -74 -26 -136.5t-70 -109.5t-101 -74t-121 -27q-61 0 -111.5 26t-87 69t-56 100t-19.5 119zM209 977q0 -49 15.5 -93t42 -78t64.5 -54.5t83 -20.5 q66 0 114 49t48 140q0 49 -15.5 93t-42 77.5t-64.5 54t-83 20.5q-66 0 -114 -49t-48 -139zM252 23q0 6 4 17t15 26q125 150 240.5 305t216 311t183.5 309.5t144 298.5q18 45 59 45q23 0 40.5 -14t17.5 -43q0 -27 -19 -72q-29 -74 -87 -181t-132 -229t-156.5 -248 t-159.5 -235.5t-141.5 -192.5t-103.5 -120q-23 -20 -37.5 -26.5t-28.5 -6.5q-25 0 -40 14.5t-15 41.5zM869 320q0 74 25.5 136t69.5 109.5t101.5 74t120.5 26.5q61 0 111.5 -25.5t87.5 -68.5t56.5 -100.5t19.5 -118.5q0 -74 -26 -136.5t-70 -109.5t-101 -74t-121 -27 q-61 0 -111.5 26t-87 69t-56 100t-19.5 119zM981 365q0 -49 15.5 -93t42 -78t64.5 -54.5t83 -20.5q66 0 114 49t48 140q0 49 -15.5 93t-42 77.5t-64.5 54t-83 20.5q-66 0 -114 -49t-48 -139z" />
<glyph unicode="&#x26;" horiz-adv-x="1568" d="M68 385q0 92 32.5 164t84 125t112.5 89t119 58q-23 86 -23 174q0 104 30 188.5t81 143.5t121.5 92t154.5 33q57 0 112.5 -16.5t97.5 -51t67.5 -87t25.5 -123.5q0 -84 -28.5 -147.5t-77.5 -110t-116.5 -76t-143.5 -45.5q-29 -6 -41 -7q-23 0 -37 18.5t-14 37.5 q0 14 7 29.5t27 21.5q59 18 112.5 35.5t92.5 42t61.5 60.5t22.5 93q0 90 -52 139.5t-142 49.5q-100 0 -167 -77t-67 -218q0 -94 34 -188.5t93.5 -183.5t140 -169t175.5 -143q35 59 54 125.5t23 136.5q2 29 1 51.5t-1 40.5q0 16 11.5 29.5t42.5 17.5q43 4 75.5 8.5t65.5 10.5 t67.5 14t81.5 21q35 10 52.5 14t29.5 4q27 0 41.5 -18.5t14.5 -49.5q0 -27 -10.5 -43t-26.5 -24t-47 -16.5t-70 -15.5t-83 -11t-89 -4h-35q-6 -199 -96 -355q119 -68 208 -103.5t111 -43.5q18 -8 30.5 -20.5t12.5 -32.5q0 -41 -26.5 -72t-73.5 -31q-12 0 -26.5 4t-47.5 17 q-51 20 -120.5 56t-163.5 101q-80 -78 -188.5 -122.5t-245.5 -44.5q-117 0 -205 30.5t-146.5 85t-87 128t-28.5 161.5zM215 422q0 -66 27.5 -120t76 -94t115 -62.5t144.5 -22.5q90 0 162.5 25.5t125.5 72.5q-145 113 -252.5 237t-164.5 261q-47 -18 -89.5 -46t-75 -65 t-51 -83t-18.5 -103z" />
<glyph unicode="'" horiz-adv-x="393" d="M121 1229q0 49 23.5 77.5t68.5 28.5q35 0 47 -19.5t12 -55.5q0 -53 -2 -110.5t-5 -112t-7 -102.5t-6 -83q-6 -57 -55 -57q-33 0 -41 41q-18 78 -26.5 172t-8.5 221z" />
<glyph unicode="(" horiz-adv-x="612" d="M106 627q0 129 33 260t82 245.5t106.5 204.5t108.5 140q53 51 96 51q18 0 30.5 -11.5t12.5 -27.5q0 -23 -24 -49q-152 -176 -222.5 -365.5t-70.5 -419.5q0 -160 29.5 -278.5t75 -208.5t99.5 -157.5t105 -123.5q6 -6 12.5 -17t6.5 -24q0 -31 -25.5 -49t-54.5 -18t-51.5 12 t-38.5 29q-57 53 -112.5 132t-99.5 181.5t-71 226t-27 267.5z" />
<glyph unicode=")" horiz-adv-x="612" d="M27 1460q0 31 25 49.5t54 18.5t51.5 -12.5t39.5 -28.5q57 -53 112.5 -132t99.5 -181.5t70.5 -226.5t26.5 -267q0 -129 -33 -260t-82 -246t-106.5 -205t-108.5 -139q-53 -51 -96 -51q-18 0 -30.5 11t-12.5 28q0 20 24 49q152 176 222.5 365.5t70.5 418.5q0 160 -29.5 279 t-74.5 209t-99.5 157.5t-105.5 122.5q-6 6 -12 17.5t-6 23.5z" />
<glyph unicode="*" horiz-adv-x="745" d="M55 1284q0 29 15.5 51.5t38.5 22.5q12 0 37.5 -12.5t58.5 -33t67.5 -44t65.5 -45.5q-4 66 -9 119t-5 94q0 33 19 50t48 17q31 0 42 -21.5t11 -45.5q0 -47 -3 -103.5t-5 -120.5q53 35 84 61.5t60 49.5q23 16 33 20.5t22 4.5q23 0 38 -17.5t15 -38.5q0 -18 -17.5 -38.5 t-46 -41t-64.5 -43t-75 -43.5q33 -20 68 -42.5t63.5 -45t47 -44t18.5 -38.5q0 -18 -15.5 -39.5t-41.5 -21.5q-21 0 -39 18q-53 49 -84 78t-68 58q0 -90 -4 -143.5t-13 -81t-23.5 -36t-35.5 -8.5q-45 0 -45 47q0 25 9.5 84.5t13.5 128.5q-31 -16 -63.5 -32.5t-61.5 -29.5 t-52.5 -21.5t-35.5 -8.5q-27 0 -43.5 12.5t-16.5 40.5q0 25 16.5 37.5t47.5 24.5t75 27.5t99 44.5q-53 29 -97 48t-78 35.5t-52.5 32t-18.5 33.5z" />
<glyph unicode="+" d="M137 672q0 35 19.5 50t66.5 23q49 8 120 8.5t161 4.5q0 102 -1 162.5t-1 103.5q0 98 78 98q51 0 51 -53v-307q51 2 106.5 3t102.5 1q90 0 120.5 -12t30.5 -47q0 -31 -18.5 -62t-75.5 -31q-47 0 -117.5 2t-152.5 0q0 -39 -1 -88t-3 -97t-5.5 -87t-9.5 -55q-16 -51 -67 -51 q-49 0 -49 55q0 25 1 62.5t2 80.5t2 89t3 87h-293q-45 0 -57.5 18.5t-12.5 41.5z" />
<glyph unicode="," horiz-adv-x="512" d="M66 -258q0 16 9 29.5t23 23.5q47 41 76 91t29 120q0 35 -6.5 60.5t-14.5 46t-14 39t-6 41.5q0 37 22.5 59t61.5 22q47 0 81.5 -43t34.5 -139q0 -55 -15 -108.5t-41.5 -99.5t-59.5 -85t-70 -65q-23 -16 -41 -23.5t-31 -7.5q-16 0 -27 10.5t-11 28.5z" />
<glyph unicode="-" horiz-adv-x="835" d="M111 518q0 35 19.5 51.5t49.5 20.5q102 14 208 18t218 4q70 0 94.5 -14t24.5 -45q0 -39 -21.5 -70.5t-62.5 -31.5q-31 0 -86 1t-122.5 3t-138.5 3t-130 1q-25 0 -39 17.5t-14 41.5z" />
<glyph unicode="." horiz-adv-x="512" d="M137 123q0 53 36 95t93 42t83 -38t26 -79q0 -55 -40 -96t-93 -41t-79 37t-26 80z" />
<glyph unicode="/" horiz-adv-x="880" d="M-20 -158q0 23 16 56q49 94 112.5 221t134 270t142.5 295t137.5 294t119.5 267t89 217q23 57 52.5 80t64.5 23q23 0 35 -13.5t12 -33.5q0 -16 -6 -32t-10 -30q-37 -102 -93.5 -235.5t-122 -280.5t-137 -300t-141.5 -295t-133.5 -264t-110.5 -208q-18 -33 -42.5 -56.5 t-59.5 -23.5q-23 0 -41 12.5t-18 36.5z" />
<glyph unicode="0" horiz-adv-x="1263" d="M104 637q0 139 42 260t117 211t179.5 142.5t229.5 52.5q98 0 187 -45.5t155.5 -129.5t106.5 -204.5t40 -274.5q0 -139 -43 -260t-118.5 -211t-180 -142t-229.5 -52q-98 0 -186.5 44t-155 129t-105.5 205.5t-39 274.5zM242 737q0 -113 25.5 -221t76.5 -194t130 -138.5 t183 -52.5q70 0 134.5 32t113.5 88t79 134t30 170q0 113 -24.5 222.5t-75 193.5t-129 136t-189.5 52q-86 0 -152.5 -38t-110.5 -98t-67.5 -136t-23.5 -150z" />
<glyph unicode="1" horiz-adv-x="667" d="M43 1053q0 16 9 34.5t38 34.5l223 133q23 14 51.5 24.5t49.5 10.5q35 0 51 -22.5t16 -59.5v-231q0 -313 -8 -537.5t-14 -351.5q-2 -41 -30 -59.5t-62 -18.5q-29 0 -48.5 16.5t-19.5 47.5q0 68 5 152.5t11.5 193t11.5 248t5 315.5v121l-164 -90q-23 -12 -39 -18.5 t-39 -6.5q-20 0 -33.5 17.5t-13.5 46.5z" />
<glyph unicode="2" horiz-adv-x="946" d="M68 207q0 55 22.5 102t61 90t90 83t108.5 83q66 49 125.5 96.5t104.5 97.5t71.5 104.5t26.5 115.5q0 41 -10.5 78t-33 63.5t-62.5 42t-97 15.5q-72 0 -122 -18.5t-87 -42t-63.5 -42t-52.5 -18.5q-29 0 -47.5 21.5t-18.5 56.5q0 27 12.5 47t46.5 43q63 43 153.5 71.5 t188.5 28.5q76 0 140.5 -21.5t110.5 -61.5t73 -98.5t27 -131.5q0 -96 -40 -175t-101.5 -144.5t-132 -119t-132.5 -96.5q-43 -31 -83 -60.5t-70.5 -59t-48 -59.5t-17.5 -58q0 -45 50 -74t173 -29q92 0 167 19.5t157 52.5l37.5 15t33.5 7q25 0 40.5 -23.5t15.5 -51.5 q0 -31 -19.5 -53.5t-54.5 -39.5q-41 -20 -94 -33.5t-107.5 -20.5t-103.5 -10t-82 -3q-102 0 -170 16.5t-110 45t-59 66.5t-17 83z" />
<glyph unicode="3" horiz-adv-x="978" d="M25 45q0 33 16 60.5t57 27.5q20 0 46 -12t63 -25.5t87 -26t118 -12.5q141 0 226 62.5t85 191.5t-71.5 185.5t-213.5 68.5q-78 6 -103.5 27.5t-25.5 62.5q0 35 19.5 53.5t66.5 26.5q135 23 208 86.5t73 159.5q0 104 -58.5 153.5t-162.5 49.5q-74 0 -129.5 -17.5t-94 -38 t-66.5 -38t-46 -17.5q-23 0 -44.5 17.5t-21.5 52.5q0 25 11.5 46t44.5 44q59 41 152 69.5t188 28.5q80 0 148.5 -21.5t117.5 -61.5t77.5 -99t28.5 -133q0 -100 -44 -173t-148 -128q-16 -10 -20.5 -15.5t-4.5 -9.5q0 -10 9.5 -13t19.5 -7q106 -33 176 -105.5t70 -212.5 q0 -90 -34 -171t-101.5 -141t-170 -96t-241.5 -36q-78 0 -146.5 19.5t-101.5 37.5q-59 35 -59 80z" />
<glyph unicode="4" horiz-adv-x="1062" d="M109 492q0 86 44 190t110.5 208.5t142 200t139.5 160.5q29 29 55.5 54.5t48.5 42.5q23 16 40.5 24t41.5 8q27 0 44.5 -22.5t17.5 -46.5q0 -35 -16.5 -56.5t-49.5 -46.5q-96 -74 -180 -163t-148.5 -180t-101.5 -174t-37 -144q0 -47 40 -62.5t146 -15.5q59 0 140.5 6 t161.5 29q-2 84 0 145q4 80 28.5 112t71.5 32q33 0 45 -14.5t12 -43.5q0 -37 -3 -103.5t-3 -189.5q0 -135 7 -222t7 -157q0 -33 -24.5 -48t-54.5 -15q-25 0 -43.5 12.5t-22.5 44.5q-2 14 -4 52t-5 84.5t-5 93.5t-2 80q-66 -29 -160.5 -40.5t-190.5 -11.5q-137 0 -214.5 39 t-77.5 138z" />
<glyph unicode="5" horiz-adv-x="968" d="M57 57q0 35 19.5 60.5t48.5 25.5q23 0 40 -6t40 -16q41 -16 96 -35.5t141 -19.5q117 0 190 58t73 173q0 70 -17.5 117t-62.5 78.5t-124 51t-202 36.5q-92 10 -125 52t-33 126q0 143 16.5 245.5t62.5 167t131 94t224 29.5q41 0 87.5 -2t80.5 -6q88 -12 88 -72 q0 -39 -18 -64.5t-51 -25.5q-10 0 -35 2t-59.5 5.5t-75.5 5.5t-84 2q-80 0 -127 -10.5t-70.5 -42t-30 -93t-6.5 -164.5q0 -57 19.5 -79.5t85.5 -28.5q123 -10 213 -33.5t149.5 -68t89 -114t29.5 -169.5q0 -76 -27.5 -150.5t-87 -135t-150.5 -97.5t-220 -37 q-90 0 -150.5 13.5t-97.5 29.5q-43 20 -56.5 47t-13.5 51z" />
<glyph unicode="6" horiz-adv-x="1073" d="M115 528q0 178 57 318.5t149.5 246t209 174t237.5 101.5q12 4 27.5 6t27.5 2q23 0 41.5 -12t18.5 -37q0 -20 -11.5 -34.5t-42.5 -24.5q-125 -37 -229 -93.5t-181 -139.5t-120 -193.5t-43 -257.5q0 -207 89 -325t237 -118q113 0 185.5 61.5t72.5 190.5t-80 191.5 t-209 62.5q-41 0 -66.5 -5t-48.5 -5q-37 0 -49 21.5t-12 43.5q0 59 56 77t147 18q80 0 151.5 -20.5t125.5 -63.5t87 -110.5t33 -162.5q0 -90 -32 -170t-89 -140t-138 -95t-179 -35q-92 0 -169 38t-133.5 106.5t-88 166t-31.5 217.5z" />
<glyph unicode="7" horiz-adv-x="923" d="M47 1182q0 33 19.5 63.5t60.5 32.5q4 0 24.5 1t48 2t57.5 2t54 1q51 2 118 4t128 4t107.5 4t58.5 2q72 0 104.5 -38.5t32.5 -104.5q0 -29 -5 -59.5t-9 -53.5q-16 -76 -46 -168t-68 -190t-83 -197.5t-91 -190.5t-91 -170t-84 -134q-18 -27 -43 -50.5t-59 -23.5 q-31 0 -55.5 21.5t-24.5 56.5q0 16 8 33.5t20 33.5q33 49 100.5 142.5t142.5 222.5t144.5 293t110.5 354q4 16 4 31q0 33 -39 33q-8 0 -52 -2t-96 -4.5t-98.5 -4.5t-60.5 -2q-61 -4 -100 -6t-67 -4t-51.5 -3t-53.5 -1q-37 0 -51.5 21.5t-14.5 48.5z" />
<glyph unicode="8" horiz-adv-x="1052" d="M104 309q0 102 53.5 195.5t172.5 152.5q-74 39 -129.5 110t-55.5 187q0 76 28 142.5t82 116t132 78t176 28.5q88 0 153.5 -22.5t107.5 -62.5t62.5 -92t20.5 -114q0 -51 -13 -93t-34.5 -77t-48 -61.5t-53.5 -44.5q-10 -8 -20.5 -10.5t-20.5 -2.5q-16 0 -29.5 10.5 t-13.5 32.5q0 14 9 24.5t28 33.5q41 47 52 77.5t11 69.5q0 90 -63.5 145.5t-192.5 55.5t-189.5 -56.5t-60.5 -144.5q0 -61 30 -104t78 -74t109.5 -54.5t126.5 -43.5q55 -18 115.5 -43t112 -64t85 -97t33.5 -142t-34.5 -154t-98 -120t-149.5 -77.5t-187 -27.5 q-190 0 -287.5 91t-97.5 232zM240 344q0 -47 15 -87t50 -69.5t90.5 -47t134.5 -17.5q147 0 222 57.5t75 149.5q0 59 -26.5 100t-72.5 70.5t-109.5 52t-135.5 45.5l-39 12q-39 -14 -75.5 -36.5t-65.5 -55.5t-46 -76t-17 -98z" />
<glyph unicode="9" horiz-adv-x="1058" d="M90 881q0 90 31 168.5t86 138t134 94.5t175 35t175 -40t135.5 -112.5t87 -173t30.5 -221.5q0 -166 -53 -300t-137 -236.5t-190.5 -173t-213.5 -109.5q-25 -10 -47 -15.5t-39 -5.5q-23 0 -38 13.5t-15 42.5q0 23 15.5 36t52.5 27q111 39 206 97.5t164.5 138.5t109.5 182 t40 231q0 104 -20.5 193.5t-61.5 154t-103.5 101.5t-144.5 37q-106 0 -172 -62.5t-66 -185.5q0 -129 76 -200.5t187 -71.5q41 0 68.5 4t49.5 4q37 0 49.5 -20.5t12.5 -43.5q0 -59 -59.5 -76.5t-147.5 -17.5q-76 0 -143.5 22.5t-119.5 68.5t-83 114.5t-31 161.5z" />
<glyph unicode=":" horiz-adv-x="538" d="M145 123q0 53 36 95t93 42t83 -38t26 -79q0 -55 -40 -96t-93 -41t-79 37t-26 80zM157 741q0 53 36 95t93 42t83 -38t26 -79q0 -55 -40 -96t-93 -41t-79 37t-26 80z" />
<glyph unicode=";" horiz-adv-x="538" d="M74 -254q0 16 9 29.5t23 23.5q47 41 76 91t29 120q0 35 -6.5 60.5t-14.5 46t-14 39t-6 41.5q0 37 22.5 59t61.5 22q47 0 81.5 -43t34.5 -139q0 -55 -15 -108.5t-41.5 -99.5t-59.5 -85t-70 -65q-23 -16 -41 -23.5t-31 -7.5q-16 0 -27 10.5t-11 28.5zM139 741q0 53 36 95 t93 42t83 -38t26 -79q0 -55 -40 -96t-93 -41t-79 37t-26 80z" />
<glyph unicode="&#x3c;" d="M174 631q0 25 13.5 43t48.5 41q41 27 117.5 68.5t162.5 88t167 87t130 65.5q25 12 45.5 20.5t32.5 8.5q25 0 40 -19.5t15 -44.5q0 -18 -10 -34.5t-29 -26.5q-119 -59 -194.5 -97t-131 -65t-100.5 -49.5t-102 -50.5q-20 -10 -21 -21q0 -8 17 -16q76 -35 153.5 -69 t150.5 -64.5t135.5 -59t107.5 -53.5q29 -16 28 -55q0 -37 -23.5 -61.5t-58.5 -24.5q-18 0 -40.5 9t-51.5 23q-121 59 -211 104.5t-156.5 79.5t-109.5 56.5t-70 36.5q-31 18 -43 34.5t-12 45.5z" />
<glyph unicode="=" d="M156 420q0 39 20.5 66.5t75.5 31.5q37 2 100.5 5t135 5t142 4.5t122.5 2.5q113 0 164 -8.5t51 -51.5q0 -31 -12.5 -60.5t-65.5 -29.5q-16 0 -78.5 1t-140.5 1q-72 0 -132.5 -1t-113.5 -3t-103.5 -3t-101.5 -1q-63 0 -63 41zM160 825q0 29 15 53.5t44 28.5q51 6 129 14.5 t167 14.5t180 10t167 4q53 0 79 -9t26 -48q0 -29 -20 -60.5t-83 -31.5q-70 0 -159 -4t-178 -10.5t-171 -11.5t-139 -7q-57 0 -57 57z" />
<glyph unicode="&#x3e;" d="M174 967q0 37 23.5 61.5t58.5 24.5q18 0 40.5 -9.5t51.5 -23.5q121 -59 211 -104.5t156.5 -79t109.5 -56t70 -37.5q31 -18 43 -34t12 -45q0 -25 -13 -43.5t-48 -40.5q-41 -27 -118 -69t-163 -88t-167 -87t-130 -66q-25 -12 -45 -20t-33 -8q-25 0 -40 19.5t-15 43.5 q0 41 39 62q119 59 194.5 97t131 64.5t100.5 49t102 51.5q20 10 21 20q0 8 -16 17q-76 35 -154 68.5t-150.5 64t-135 59.5t-107.5 53q-29 16 -29 56z" />
<glyph unicode="?" horiz-adv-x="880" d="M31 1296q0 33 17.5 53.5t57.5 39.5q47 23 137.5 48t196.5 25q86 0 159 -21.5t125 -64.5t81 -104.5t29 -141.5q0 -66 -18.5 -113.5t-48.5 -84.5t-66.5 -63.5t-75.5 -49.5q-41 -23 -76 -46t-62.5 -51t-43 -64.5t-15.5 -86.5q0 -31 4 -56.5t4 -41.5q0 -39 -27.5 -50 t-43.5 -11q-41 0 -58.5 38.5t-17.5 104.5q0 61 12 107.5t36.5 83t61.5 67.5t86 61q51 31 87 55.5t59.5 51.5t34 58.5t10.5 78.5q0 86 -54.5 133t-177.5 47q-72 0 -143.5 -22.5t-136.5 -52.5q-29 -14 -58 -15q-35 0 -55 24.5t-20 63.5zM274 104q0 53 36 93.5t91 40.5t81 -38 t26 -79q0 -53 -38 -93t-91 -40t-79 36.5t-26 79.5z" />
<glyph unicode="@" horiz-adv-x="1808" d="M113 358q0 197 68.5 376t192.5 315.5t295 218.5t373 82q150 0 274 -49.5t213 -140.5t138 -222t49 -293q0 -121 -26.5 -222t-73.5 -175t-110.5 -115t-137.5 -41q-86 0 -139 49t-94 166q-14 43 -31 43q-10 0 -17.5 -9t-17.5 -30q-14 -27 -34.5 -62.5t-52.5 -68.5t-77 -56.5 t-106 -23.5q-68 0 -115 28t-76.5 72t-44 100t-14.5 116q0 104 37 191t101.5 149.5t149.5 98.5t181 36q31 0 62.5 -5t58 -17.5t43 -34t16.5 -54.5q0 -41 -21.5 -64.5t-56.5 -23.5q-23 0 -43 9.5t-44.5 20.5t-52.5 20.5t-65 9.5q-51 0 -95 -22.5t-75.5 -59.5t-50 -86 t-18.5 -101q0 -41 10 -83t31.5 -76.5t55.5 -57t81 -22.5t81 23.5t60.5 65.5t47 96t42.5 116q16 47 68 47q27 0 39 -13.5t22 -48.5q16 -66 33 -120t38.5 -95t48 -63.5t65.5 -22.5q84 0 137 99.5t53 263.5q0 127 -38 236.5t-111.5 189.5t-184 125t-256.5 45q-168 0 -306 -63.5 t-237.5 -170t-154.5 -246t-55 -292.5q0 -123 33.5 -234.5t104.5 -196.5t181.5 -136.5t261.5 -51.5q131 0 220.5 38t173.5 97q10 8 20 14.5t23 6.5q23 0 35 -15.5t12 -37.5q0 -29 -33 -58q-100 -92 -236.5 -136t-269.5 -44q-154 0 -276.5 51t-207.5 143.5t-130 220.5t-45 281 z" />
<glyph unicode="A" horiz-adv-x="1239" d="M57 70v19t4 48q6 61 22.5 153.5t41.5 201t56.5 226.5t70.5 230q35 102 77 192.5t91 158t105.5 107.5t121.5 40q80 0 146.5 -58.5t120 -156.5t94.5 -224t70.5 -263.5t51 -273.5t35.5 -253q2 -14 3 -29.5t1 -27.5q0 -33 -14 -69t-65 -36t-67.5 40t-21.5 104 q-4 47 -12 108.5t-18 130.5q-49 6 -103.5 11.5t-107.5 8.5t-101.5 5t-85.5 2q-63 0 -96 -3t-61 -3q-29 0 -48.5 14t-19.5 45q0 49 31.5 71.5t66.5 22.5q117 0 249 -8t253 -28q-16 100 -38.5 199t-51.5 186q-53 168 -110.5 238.5t-124.5 70.5q-72 0 -127.5 -79t-116.5 -257 q-49 -139 -81 -278.5t-52.5 -254t-29.5 -192.5t-11 -94q-6 -47 -20.5 -82t-65.5 -35q-61 0 -62 72z" />
<glyph unicode="B" horiz-adv-x="1273" d="M123 483q0 281 58.5 467.5t148.5 297t201.5 156.5t216.5 46q182 0 275 -92t93 -242q0 -113 -62.5 -192.5t-201.5 -130.5q-18 -8 -18 -17q0 -10 20 -16q160 -37 254 -125t94 -240q0 -113 -42 -189.5t-104.5 -124.5t-136.5 -68.5t-137 -20.5q-98 0 -169.5 20.5t-120.5 44.5 q-39 20 -54.5 42t-15.5 46q0 41 21.5 70t52.5 29q12 0 23 -3t34 -20q25 -18 49.5 -32.5t53 -24.5t65.5 -16.5t88 -6.5q49 0 97 13.5t86 43t60.5 74.5t22.5 109q0 76 -37 126t-99 82t-144 48t-172 27q-33 4 -62 17t-29 64q0 29 17.5 44.5t71.5 27.5q176 41 256.5 97.5 t80.5 166.5q0 104 -71.5 163t-184.5 59q-104 0 -186 -47.5t-137 -136.5t-84 -215t-29 -286q0 -119 15.5 -224t44.5 -208q6 -23 11 -44t5 -44q0 -33 -11.5 -52t-31.5 -34q-34 -24 -64 -24h-2q-37 0 -53 37q-12 25 -22.5 71.5t-17.5 108t-12 133.5t-5 145z" />
<glyph unicode="C" horiz-adv-x="1265" d="M123 623q0 180 55 329.5t149.5 257t220.5 167t267 59.5q66 0 132.5 -12.5t115.5 -39.5q74 -41 74 -92q0 -45 -28 -73.5t-60 -28.5q-23 0 -52 18q-47 27 -101 48.5t-144 21.5q-106 0 -194.5 -41t-152 -117t-98.5 -183.5t-35 -240.5q0 -104 25 -202.5t80 -175t143 -122.5 t215 -46q84 0 144.5 16t105.5 43t76.5 57.5t60.5 61.5q30 32 55 32h1q27 0 39 -19t12 -40q0 -29 -23.5 -64.5t-64.5 -74.5q-92 -86 -213 -132t-252 -46q-152 0 -256.5 54t-171 143t-96 204t-29.5 238z" />
<glyph unicode="D" horiz-adv-x="1458" d="M158 563q0 66 2 143.5t6 143.5q8 123 32.5 229.5t80 186.5t148.5 126t241 46q147 0 270 -49.5t211 -144.5t137 -232.5t49 -313.5q0 -180 -48 -313t-132 -221t-198.5 -131t-247.5 -43q-115 0 -159 33.5t-44 80.5q0 31 12 61t51 31q23 0 45.5 -7t48 -13t56.5 -12t69 -6 q88 0 161 30.5t125 87t82 138.5t30 186q0 182 -46 311t-123 210t-179 118t-213 37q-158 0 -240 -97.5t-82 -334.5q0 -176 12.5 -339t38.5 -317q4 -31 7.5 -49t3.5 -28q0 -45 -25 -83t-80 -38q-18 0 -40.5 13t-31.5 60q-18 115 -24 243t-6 257z" />
<glyph unicode="E" horiz-adv-x="1083" d="M76 344q0 84 30.5 143.5t80 100.5t112 69.5t125.5 53.5q20 8 20 16q0 10 -18 16q-53 18 -103.5 41t-90 60t-64.5 90t-25 133q0 90 35 161.5t97.5 122t149.5 77t193 26.5q57 0 128 -10t132.5 -30.5t103.5 -53.5t42 -78q0 -39 -24.5 -64.5t-45.5 -25.5q-29 0 -65 22 q-63 35 -138 64t-194 29q-123 0 -202 -57.5t-79 -168.5q0 -74 31 -116.5t89.5 -67.5t144.5 -36t196 -23q59 -6 60 -74q0 -78 -78 -90q-72 -12 -156 -30.5t-154.5 -51.5t-117.5 -85t-47 -134q0 -106 76.5 -162.5t236.5 -56.5q86 0 149.5 14t112.5 37.5t86 54.5t68 66 q32 34 56 34h1q27 0 39 -19t12 -40q0 -29 -24.5 -65.5t-65.5 -73.5q-80 -72 -204.5 -122t-272.5 -50q-96 0 -176 23.5t-138.5 68.5t-91 111.5t-32.5 150.5z" />
<glyph unicode="F" horiz-adv-x="1056" d="M133 608q0 211 34 372t105.5 270.5t183 166t267.5 56.5q68 0 139.5 -13.5t120.5 -36.5q35 -16 51.5 -34.5t16.5 -47.5q0 -41 -23.5 -70.5t-50.5 -29.5q-23 0 -51 14q-72 31 -135.5 47.5t-135.5 16.5q-199 0 -292 -145.5t-93 -432.5q135 35 270.5 56.5t252.5 21.5 q35 0 52 -21.5t17 -56.5q0 -51 -24.5 -66.5t-59.5 -15.5q-119 0 -242.5 -14t-259.5 -39q10 -84 21.5 -148.5t24 -119.5t26.5 -108.5t33 -112.5q10 -37 10 -60q0 -57 -34.5 -82.5t-63.5 -25.5q-23 0 -40 16.5t-32 63.5q-16 57 -32.5 128.5t-29 147.5t-19.5 154t-7 149z" />
<glyph unicode="G" horiz-adv-x="1325" d="M123 639q0 184 54 332.5t149.5 253t225.5 160t282 55.5q53 0 126.5 -12.5t135.5 -36.5q33 -14 53 -37t20 -51q0 -41 -25.5 -72t-53.5 -31q-23 0 -44.5 10.5t-60.5 24.5q-45 16 -104.5 30.5t-130.5 14.5q-113 0 -202 -40t-150.5 -111.5t-94.5 -173t-33 -226.5 q0 -115 27 -219t84 -186t145 -130.5t211 -48.5q156 0 251 74t95 205q0 45 -11 82t-37.5 63.5t-69.5 42t-107 15.5q-57 0 -92 -9.5t-80 -9.5q-31 0 -44 24.5t-13 49.5q0 31 17.5 52.5t48 33.5t71.5 18.5t86 6.5q168 0 266.5 -90.5t98.5 -262.5q0 -100 -42 -184t-114 -144.5 t-168 -94t-205 -33.5q-156 0 -263.5 58t-175 151.5t-97 210t-29.5 235.5z" />
<glyph unicode="H" horiz-adv-x="1402" d="M166 217q0 123 1 247t7 241q10 186 29.5 343.5t42.5 264.5q10 51 37.5 69.5t62.5 18.5q33 0 45 -14.5t12 -32.5q0 -14 -2 -32.5t-10 -59.5q-16 -88 -32.5 -201t-26.5 -262q325 69 634 69h9h50.5t55.5 -2q2 113 2 202v134q0 41 -1 79t-1 79q0 82 84 82q41 0 56 -35 t16 -100q0 -313 -7 -621.5t-42 -595.5q-8 -63 -39 -83.5t-66 -20.5q-33 0 -46 17t-13 40v12t2 21q8 59 16.5 133t14.5 154.5t11 164.5t9 164q-35 2 -75.5 3t-92.5 1q-127 0 -281.5 -12t-303.5 -37q-4 -63 -4.5 -125.5t-0.5 -120.5q0 -33 1.5 -82t3.5 -96t3 -85t1 -46 q0 -35 -18.5 -50t-47.5 -15q-61 0 -78.5 39.5t-17.5 150.5z" />
<glyph unicode="I" horiz-adv-x="497" d="M166 592q0 94 4 193.5t12 194.5t19.5 184t25.5 167q8 39 26.5 66.5t68.5 27.5q63 0 63 -73q0 -23 -8 -59t-19 -115q-8 -66 -15 -126.5t-11 -125t-7 -134t-3 -151.5q0 -63 1 -113.5t3 -95.5t5 -87t7 -89t9 -91t5 -83q0 -23 -16.5 -44.5t-52.5 -21.5q-35 0 -61.5 25 t-33.5 80q-10 92 -16 211t-6 260z" />
<glyph unicode="J" horiz-adv-x="1042" d="M39 152q0 39 25.5 74.5t66.5 35.5q18 0 48 -16.5t69 -36t86 -35.5t100 -16q76 0 136.5 29.5t103.5 93t66.5 164t23.5 241.5q0 68 -5 140.5t-13.5 143t-18.5 136t-20 119.5q-6 31 -11.5 61.5t-5.5 54.5q0 35 27.5 65t75.5 30q23 0 39 -10.5t26 -39.5q12 -31 21.5 -98 t15.5 -152t10 -175.5t4 -165.5q0 -223 -40 -378t-113.5 -250t-178 -137t-231.5 -42q-72 0 -129 15t-97 39t-60.5 52.5t-20.5 57.5z" />
<glyph unicode="K" horiz-adv-x="1202" d="M166 598q0 135 8 241.5t23.5 195.5t35 164t43.5 149q23 70 58 89t63 19q27 0 37 -14.5t10 -30.5q0 -14 -4 -30.5t-8 -32.5q-25 -80 -45 -158t-35.5 -157t-24 -163t-8.5 -178q0 -139 15.5 -268t50.5 -262q4 -16 9 -38t5 -38q0 -37 -17 -61.5t-60 -24.5q-41 0 -67 42 t-42 116q-10 49 -19.5 107.5t-15.5 117.5t-9 114.5t-3 100.5zM397 725q0 80 65.5 168t159 171t195.5 153.5t178 117.5q49 31 77 38t44 7q29 0 48.5 -20.5t19.5 -48.5q0 -45 -64 -80q-94 -51 -214 -125t-238 -178q-59 -53 -88 -88t-29 -80q0 -25 6 -45.5t19.5 -45t35 -54 t54.5 -70.5q72 -90 170 -176t239 -174q41 -25 50.5 -42.5t9.5 -37.5q0 -27 -21.5 -56.5t-69.5 -29.5q-61 0 -140 51t-156.5 122.5t-144 149.5t-103.5 133q-59 88 -81 140.5t-22 99.5z" />
<glyph unicode="L" horiz-adv-x="1097" d="M143 545q0 252 38 439t81 304q33 86 65.5 124t78.5 38q29 0 42 -13.5t13 -31.5q0 -16 -5 -33.5t-10 -28.5q-31 -80 -56 -158.5t-43.5 -165.5t-30 -185.5t-11.5 -215.5q0 -129 16.5 -218t55.5 -144t103.5 -78.5t158.5 -23.5q86 0 152.5 19.5t132.5 51.5q37 18 52 23.5 t32 5.5q59 0 59 -70q0 -31 -21.5 -52t-56.5 -44q-72 -43 -176 -71.5t-225 -28.5q-131 0 -217 42t-136.5 115.5t-71 176t-20.5 223.5z" />
<glyph unicode="M" horiz-adv-x="1605" d="M170 428q0 70 3 180.5t14.5 233.5t30 242.5t48.5 207.5q23 63 53.5 94t83.5 31q49 0 78 -33.5t47 -111.5q14 -59 28.5 -123t37.5 -141q23 -82 46.5 -157t51 -133.5t59 -93t68.5 -34.5q23 0 42.5 11t41 40t45 78t53.5 125q39 96 72 196.5t74 229.5q20 63 43.5 102t81.5 39 q39 0 61.5 -29.5t38.5 -95.5q16 -74 29.5 -187.5t24 -240.5t16.5 -254t6 -227v-65t-1 -83t-3 -81.5t-4 -61.5q-6 -47 -24.5 -70.5t-57.5 -23.5q-63 0 -64 86q0 98 -1 229t-4 263t-10 249t-17 189q-4 37 -12.5 55t-24.5 18t-24.5 -19.5t-16.5 -39.5q-14 -35 -35 -94.5 t-43 -116.5q-43 -113 -81 -187.5t-75 -119.5t-75.5 -64.5t-83.5 -19.5q-59 0 -103.5 25.5t-79.5 70.5t-60.5 106.5t-47.5 133.5q-20 63 -38 131.5t-38 159.5q-8 35 -13 64.5t-26 29.5q-16 0 -22.5 -20.5t-12.5 -51.5q-8 -45 -13 -108.5t-7 -128t-3 -121t-1 -84.5 q0 -88 2 -141.5t5 -95.5t6 -81t7 -96q2 -29 4 -61.5t2 -49.5q0 -112 -92 -112h-2q-39 0 -53.5 27.5t-20.5 82.5q-4 37 -7 80t-4 88t-2 86t-1 74z" />
<glyph unicode="N" horiz-adv-x="1441" d="M174 647q0 94 3 192.5t11.5 187.5t21.5 165t34 129q23 59 52.5 84t70.5 25q33 0 57.5 -15.5t44.5 -49.5t39.5 -85t44.5 -123q72 -205 151.5 -391t149.5 -324q39 -78 69.5 -129t55.5 -80.5t46.5 -41t43.5 -11.5q49 0 66.5 57.5t17.5 188.5q0 90 -9 190.5t-24.5 204 t-35 202.5t-40.5 187q-10 43 -18 80t-8 58q0 49 47 73q25 10 45 11q51 0 70 -68q51 -182 79.5 -387t28.5 -465q0 -115 -12 -211t-39 -164.5t-70 -107.5t-104 -39q-66 0 -118 39t-105 116q-33 49 -72 119t-81 152t-83 173t-80 183q-43 102 -69.5 178t-55.5 160 q-18 53 -24 69.5t-21 16.5q-10 0 -18 -11.5t-14 -60.5q-10 -70 -12.5 -145.5t-2.5 -140.5q0 -131 10.5 -270.5t22.5 -239.5q10 -78 22.5 -143.5t12.5 -94.5q0 -43 -25.5 -73.5t-70.5 -30.5q-27 0 -40.5 12t-23.5 43q-12 39 -20.5 110.5t-12.5 156.5t-6 174t-2 165z" />
<glyph unicode="O" horiz-adv-x="1511" d="M123 670q0 162 48 304t136 246.5t212 165t276 60.5q133 0 242.5 -48t187.5 -137.5t121 -216t43 -284.5q0 -166 -48.5 -308.5t-136.5 -247t-212 -164.5t-275 -60q-133 0 -242.5 48t-187.5 138t-121 218t-43 286zM270 752q0 -131 35 -244t100.5 -195t159.5 -129t215 -47 q111 0 195 42t142.5 115t88 171t29.5 213q0 131 -34 242.5t-98.5 193.5t-158.5 128t-213 46q-113 0 -199 -42t-144 -114.5t-88 -170t-30 -209.5z" />
<glyph unicode="P" horiz-adv-x="1224" d="M133 578q0 201 43 368.5t124 289.5t196.5 189.5t261.5 67.5q100 0 176 -37t127 -97.5t76.5 -138t25.5 -159.5q0 -129 -45 -230.5t-125 -170t-190.5 -105.5t-239.5 -37q-59 0 -81.5 22.5t-22.5 69.5q0 31 18.5 55.5t52.5 24.5q16 0 32 -1t32 -1q92 0 171 15.5t135 52.5 t89 98t33 152q0 70 -20.5 130t-60.5 104t-97.5 68.5t-128.5 24.5q-113 0 -195 -52t-136 -138t-81 -199t-27 -231q0 -147 23 -255t51 -198l25 -78q6 -20 13 -42.5t7 -45.5q0 -59 -41 -88q-32 -22 -68 -22h-3q-27 0 -40.5 16t-27.5 51q-20 49 -35.5 121t-26 146.5t-15.5 144 t-5 115.5z" />
<glyph unicode="Q" horiz-adv-x="1507" d="M123 760q0 145 49 271t135 219t204 146.5t253 53.5q123 0 234.5 -46t196.5 -135t136 -223.5t51 -308.5q0 -190 -58 -318t-147.5 -210t-197 -127t-207.5 -72q-25 -6 -24 -14q0 -12 22 -16q203 -47 319.5 -75t182.5 -52q66 -23 90 -45.5t24 -61.5q0 -45 -26.5 -72.5 t-67.5 -27.5q-29 0 -60.5 13t-53.5 24q-109 51 -184.5 86.5t-134 59.5t-109 39t-109.5 27.5t-134 23.5t-183 28q-53 8 -67.5 28.5t-14.5 40.5q0 35 23.5 66t82.5 31q29 0 79 -5.5t120 -5.5q129 0 251 30t216 98.5t151.5 181t57.5 278.5q0 127 -35 236.5t-99.5 191.5 t-158.5 128t-211 46q-92 0 -175 -30.5t-145.5 -92t-98.5 -152.5t-36 -214q0 -102 23.5 -173t59.5 -120t76 -84t71 -66q12 -12 19 -22t7 -27q0 -31 -24.5 -59.5t-59.5 -28.5t-88 35t-103 103.5t-86 169t-36 229.5z" />
<glyph unicode="R" horiz-adv-x="1277" d="M123 492q0 219 48 397t135 303t209 192.5t269 67.5q94 0 168 -30.5t125 -84t78 -124t27 -152.5q0 -135 -48.5 -222t-126 -141.5t-177 -83.5t-201.5 -49q-23 -4 -23 -16q0 -8 6 -17q23 -35 63 -88t111 -112q92 -78 196.5 -124t234.5 -87q25 -8 38 -21.5t13 -40.5 q0 -39 -29 -69.5t-76 -30.5q-33 0 -79 12.5t-85 28.5q-117 49 -212 124t-160 155q-74 88 -118 162.5t-44 140.5q0 47 18.5 73.5t75.5 36.5q94 14 179 32.5t150.5 49.5t104.5 82t39 135q0 72 -23.5 128.5t-64.5 95t-95 59t-116 20.5q-119 0 -206 -54t-144 -145t-86 -210 t-29 -250q0 -111 16.5 -222.5t43.5 -205.5q6 -20 11 -44t5 -46q0 -31 -11 -50.5t-32 -33.5q-35 -25 -65 -25q-37 0 -54 37q-27 61 -43 172t-16 275z" />
<glyph unicode="S" horiz-adv-x="1083" d="M35 150q0 29 18.5 60.5t52.5 31.5q27 0 62 -15.5t84 -34t114.5 -34t155.5 -15.5q141 0 214 73t73 177q0 68 -26.5 112t-72.5 73.5t-106.5 51t-128.5 44.5q-92 31 -161.5 64.5t-116.5 76.5t-71 99.5t-24 134.5q0 94 40 169.5t107.5 130t159 83t193.5 28.5q78 0 160 -19.5 t129 -54.5q23 -16 32 -35.5t9 -45.5q0 -29 -22.5 -58.5t-59.5 -29.5q-29 0 -60.5 14t-73.5 31.5t-94.5 32t-119.5 14.5q-113 0 -183.5 -52.5t-70.5 -158.5q0 -61 18.5 -102.5t55 -70t91 -50t126.5 -44.5q80 -25 155.5 -54t135 -74.5t96.5 -110t37 -158.5q0 -104 -41 -188 t-114 -143.5t-174.5 -91t-219.5 -31.5q-86 0 -168 19t-135 48q-41 23 -58.5 47.5t-17.5 55.5z" />
<glyph unicode="T" horiz-adv-x="1232" d="M25 1202q0 43 57 70q182 86 414.5 133t486.5 47q61 0 119.5 -4t105.5 -14q59 -12 60 -74q0 -39 -20.5 -65.5t-57.5 -26.5q-14 0 -33.5 2t-42.5 4q-53 4 -117.5 8t-124.5 4q-76 0 -157 -6q-35 -117 -63.5 -297t-28.5 -391q0 -86 3 -162t7 -154q4 -53 7 -104t3 -98 q0 -39 -31.5 -54.5t-62.5 -15.5q-35 0 -54.5 25.5t-23.5 70.5q-4 66 -7 144t-3 188q0 106 9 225t25.5 230.5t38 211t46.5 167.5q-203 -25 -426 -101q-20 -6 -41 -11t-39 -5q-23 0 -36 12t-13 41z" />
<glyph unicode="U" horiz-adv-x="1470" d="M129 674q0 109 14.5 196.5t36 160.5t49 129.5t52.5 101.5q29 49 51 72.5t51 23.5q23 0 39 -14.5t16 -36.5q0 -23 -10 -48.5t-25 -56.5q-23 -49 -42 -99t-33.5 -105.5t-21.5 -120t-7 -144.5q0 -127 25.5 -232.5t79 -183t134 -120.5t189.5 -43q227 0 347 162.5t120 488.5 q0 166 -34 292t-73 234q-8 23 -13 39t-5 35q0 37 23.5 64.5t66.5 27.5q55 0 82 -65q18 -47 36.5 -109.5t32 -135.5t22.5 -151t9 -157q0 -209 -44 -375t-128 -282t-203.5 -178t-269.5 -62q-135 0 -240.5 55t-178 149.5t-110.5 220t-38 267.5z" />
<glyph unicode="V" horiz-adv-x="1277" d="M74 1245q0 53 26.5 80t63.5 27q33 0 51 -17.5t29 -70.5q2 -10 12 -59.5t27.5 -123t41 -165t49 -184.5t54.5 -182t57 -159q18 -43 35 -81t36 -67.5t44 -46t55 -16.5q31 0 57.5 18.5t50 50.5t45 75t44.5 90q49 109 88 244t68.5 265t48 239.5t26.5 164.5q4 31 20.5 60.5 t67.5 29.5q35 0 53.5 -18.5t18.5 -46.5v-20.5t-2 -24.5q-10 -88 -35.5 -213t-64.5 -262.5t-88 -276.5t-107 -254q-47 -92 -88 -153.5t-81 -97.5t-79 -51t-77 -15q-76 0 -137.5 70.5t-129.5 224.5q-41 94 -83 208.5t-77.5 234.5t-65.5 236.5t-46 212.5q-4 16 -6 38t-2 36z " />
<glyph unicode="W" horiz-adv-x="1759" d="M90 1294q0 86 23.5 119t72.5 35q37 0 50.5 -20.5t17.5 -61.5q12 -180 32.5 -385t61.5 -416q37 -184 75 -272t99 -88q25 0 45.5 17.5t41 59.5t41 109.5t42.5 167.5q16 66 38 159t42 204q12 63 24.5 103t28 60.5t34 27.5t44.5 7q35 0 59.5 -25.5t36.5 -90.5 q8 -47 19.5 -102.5l23 -111t21.5 -107.5t20 -95q10 -49 26.5 -114.5t39 -126t50.5 -102.5t63 -42q29 0 60.5 41t66.5 162q31 111 54 241.5t39.5 256.5t27 236.5t16.5 182.5q6 90 86 90q65 0 65 -89q0 -20 -2 -60q-2 -39 -4 -60q-8 -113 -25.5 -235.5t-42 -244.5t-55 -237.5 t-67.5 -216.5q-18 -47 -42 -98t-53.5 -92t-66.5 -67.5t-82 -26.5q-68 0 -118 56t-89 148.5t-67.5 209t-49.5 237.5l-24 139q-4 16 -15 17q-10 0 -16 -17q-4 -12 -13 -67.5t-34 -155.5q-41 -166 -78 -275.5t-76 -174t-79.5 -91t-88.5 -26.5q-41 0 -78.5 25.5t-73.5 82 t-68.5 145.5t-63.5 216q-23 88 -43.5 210.5t-35.5 244.5t-25.5 226.5t-10.5 157.5z" />
<glyph unicode="X" horiz-adv-x="1265" d="M29 37q0 16 5 34.5t27 55.5q31 51 85.5 131t122 172t141 189.5t143.5 183.5q-55 76 -105.5 140.5t-98.5 118.5t-96 101t-97 92q-16 14 -29.5 32t-13.5 34q0 31 23.5 58.5t58.5 27.5q23 0 48 -13.5t62 -43.5q37 -33 84 -81t96.5 -104.5t96.5 -116t84 -110.5 q70 78 145.5 158t147 151.5t133 129t98.5 89.5q12 10 26.5 15.5t26.5 5.5q29 0 46.5 -15.5t17.5 -50.5q0 -25 -23 -47q-109 -104 -241 -236t-295 -319q127 -193 214 -365.5t146 -326.5q10 -27 10 -43q0 -41 -28.5 -68.5t-71.5 -27.5q-29 0 -45.5 19t-26.5 44 q-39 86 -73.5 166t-71.5 157t-78 153.5t-92 156.5q-86 -102 -149.5 -187t-116 -163t-100.5 -154t-103 -157q-27 -41 -72 -41q-33 0 -47 18t-14 37z" />
<glyph unicode="Y" horiz-adv-x="1138" d="M68 1303q0 27 7 49t31 39q25 14 52 14q29 0 45 -20.5t24 -43.5q39 -98 81 -194t114 -221q51 -92 93 -138.5t99 -46.5q59 0 115.5 64.5t106 158t86 197t57.5 180.5q10 45 31.5 61.5t56.5 16.5q61 0 61 -67q0 -10 -2 -20.5t-4 -18.5q-18 -82 -59 -190.5t-100.5 -214 t-134 -194.5t-160.5 -132q-2 -33 -3 -69t-2 -69.5t-2.5 -63.5t-1.5 -48q0 -55 3.5 -125t3.5 -113q0 -41 -24 -67.5t-71 -26.5q-23 0 -43 18.5t-24 69.5q-2 25 -2 49.5v50.5q0 35 2 81t5 98.5t7 106.5l8 108q-43 18 -78.5 49t-66.5 67.5t-57.5 77.5t-51.5 80q-53 88 -99 179 t-75 161q-10 23 -19 52.5t-9 54.5z" />
<glyph unicode="Z" horiz-adv-x="1150" d="M72 250q0 35 6 66.5t24.5 65.5t51 73t86.5 90q63 61 137 124.5t147.5 125t142 117t121.5 98.5q78 66 104 100.5t26 65.5q0 33 -32 52t-81 28.5t-110.5 11.5t-121.5 2q-98 0 -173.5 -8.5t-135.5 -14.5q-37 -4 -65.5 -7t-51.5 -3q-31 0 -49 18.5t-18 53.5q0 41 22.5 65.5 t81.5 36.5q63 12 159.5 17.5t195.5 5.5q96 0 192 -8.5t174 -32t127 -65.5t49 -111q0 -41 -11 -76t-34.5 -67t-59.5 -66.5t-85 -75.5q-57 -49 -116.5 -98.5t-124 -103.5t-137.5 -116.5t-157 -136.5q-41 -35 -64.5 -62.5t-36.5 -51t-17.5 -42t-4.5 -36.5q0 -43 32 -67.5 t78 -36t97.5 -14.5t89.5 -3q133 0 232.5 20.5t165.5 36.5q39 10 70.5 18.5t50.5 8.5q35 0 51 -24.5t16 -55.5q0 -39 -19.5 -60.5t-56.5 -35.5q-84 -31 -216 -51.5t-277 -20.5q-238 0 -356.5 56.5t-118.5 193.5z" />
<glyph unicode="[" horiz-adv-x="643" d="M135 51.5v133v114.5q0 172 2 343t6 321.5t9.5 272.5t11.5 194q4 43 32.5 60t57.5 19q53 4 95 5.5t95 1.5h78t64 -5q12 -2 23.5 -11t11.5 -32q0 -66 -34 -77t-98 -11h-204q-4 -78 -6.5 -181t-4.5 -220t-3 -241t-1 -246v-148t1 -148.5t3 -139t5 -115.5q14 -2 29.5 -2h31.5 q45 0 78 2t57.5 5t45 5t42.5 2q23 0 33 -18.5t10 -47.5q0 -23 -14 -46t-49 -27q-45 -4 -125 -7.5t-197 -3.5q-31 0 -54.5 9.5t-27.5 50.5q-2 16 -3 69.5t-1 119z" />
<glyph unicode="\" horiz-adv-x="880" d="M-14 1503q0 25 18.5 37t40.5 12q35 0 59.5 -23.5t42.5 -55.5q47 -86 111 -208t133.5 -263.5t141 -295t137 -300t122 -279.5t93.5 -236q4 -14 10 -29.5t6 -31.5q0 -23 -18.5 -36t-40.5 -13q-37 -2 -60.5 24.5t-44.5 79.5q-35 90 -89 216t-119.5 268.5t-137.5 293 t-142.5 294t-134 270.5t-112.5 221q-16 33 -16 55z" />
<glyph unicode="]" horiz-adv-x="643" d="M23 -150q0 66 33.5 77.5t97.5 11.5h204q2 78 5.5 181t5.5 220t3 241t1 246v146t-1 149.5t-3 139t-4 116.5q-16 2 -31 2h-31q-47 0 -78.5 -2t-56.5 -5t-45.5 -5t-42.5 -2q-23 0 -33 18.5t-10 47.5q0 23 14.5 46t48.5 27q45 4 125 7.5t197 3.5q31 0 54.5 -9.5t27.5 -50.5 q2 -16 3 -69.5t1 -119v-133v-114.5q0 -172 -2 -343t-6 -321.5t-9.5 -272.5t-11.5 -194q-4 -43 -32.5 -60t-57.5 -19q-53 -4 -95 -5.5t-95 -1.5h-78t-64 4q-12 2 -23 11.5t-11 31.5z" />
<glyph unicode="^" horiz-adv-x="995" d="M111 547q0 12 6 31q66 154 128 283.5t140 252.5q41 66 67.5 82t57.5 16q59 0 102 -71q43 -68 84 -144.5t78 -150.5t67.5 -138.5t51.5 -109.5q4 -12 4 -20q0 -23 -17.5 -39.5t-41.5 -16.5q-18 0 -35 9.5t-31 33.5q-18 33 -47 89.5t-61.5 121t-67.5 131t-64 119.5 q-10 20 -15 24.5t-15 4.5q-12 0 -19.5 -10.5t-17.5 -26.5q-35 -63 -62.5 -118.5t-52 -108t-49.5 -105.5t-53 -113q-33 -68 -88 -67q-49 0 -49 41z" />
<glyph unicode="_" horiz-adv-x="1024" d="M-66 -188q0 31 17.5 51t46.5 20h1061q31 0 41 -16.5t10 -32.5q0 -39 -24.5 -60.5t-59.5 -21.5h-1036q-31 0 -43.5 18.5t-12.5 41.5z" />
<glyph unicode="`" horiz-adv-x="1024" d="M301 1378q0 29 24.5 51.5t51.5 22.5q18 0 33.5 -7t44.5 -30q25 -18 59.5 -52t68 -71t63.5 -72t46 -55t23.5 -32.5t7.5 -28.5q0 -18 -14.5 -29.5t-30.5 -11.5t-30.5 8t-39.5 31q-18 14 -53 44t-74 60.5t-70.5 57t-43.5 34.5q-41 31 -53.5 46.5t-12.5 33.5z" />
<glyph unicode="a" horiz-adv-x="1120" d="M102 387q0 111 40 208t110 168t166 111.5t207 40.5q35 0 79 -8t84 -28q41 -23 57.5 -44.5t16.5 -50.5q0 -35 -22.5 -64.5t-61.5 -29.5q-23 0 -48 12.5t-58 27.5t-72 28.5t-88 13.5q-68 0 -117 -26.5t-79.5 -70.5t-46 -101.5t-15.5 -116.5t11 -112.5t36 -94.5t61.5 -65.5 t88.5 -24.5q63 0 109 44t79 105.5t57.5 125t46.5 104.5q10 20 27.5 35.5t52.5 15.5q29 0 44.5 -12.5t27.5 -38.5q16 -35 32.5 -87.5t37 -103.5t45 -87t55.5 -36q37 0 73 61.5t66 145.5l25 66q10 27 19 45t32 18q10 0 24.5 -7t14.5 -32q0 -10 -5 -29.5t-22 -66.5 q-10 -27 -29.5 -80t-48.5 -106q-18 -35 -38.5 -68t-45 -58.5t-53 -41t-65.5 -15.5q-66 0 -100.5 51.5t-69.5 139.5q-16 39 -24.5 64.5t-14.5 40t-11.5 19.5t-13.5 5q-12 0 -20 -12.5t-31 -65.5q-18 -41 -44 -92t-63.5 -96t-91 -76t-125.5 -31q-68 0 -124 29.5t-95 81 t-60.5 121t-21.5 151.5z" />
<glyph unicode="b" horiz-adv-x="1026" d="M96 563q0 168 42 307.5t100.5 248t122 184t108.5 116.5q31 29 47 35t33 6q29 0 50.5 -23.5t21.5 -47.5q0 -16 -7.5 -33t-38.5 -45q-80 -72 -142 -148t-105 -162t-65.5 -185t-22.5 -218q0 -84 15 -166t50 -146.5t91.5 -104.5t138.5 -40q133 0 198.5 83t65.5 227 q0 86 -25.5 142t-73 91t-112 49.5t-142.5 14.5q-14 0 -29.5 1t-28.5 8t-21.5 20.5t-8.5 37.5q0 47 37 72.5t125 25.5q86 0 163 -27.5t133 -80.5t89 -132t33 -179q0 -102 -32 -194.5t-88 -161t-135 -108.5t-171 -40q-102 0 -179 41t-130 115.5t-80 180t-27 236.5z" />
<glyph unicode="c" horiz-adv-x="788" d="M109 414q0 106 34.5 205.5t98 174t151.5 119.5t195 45q78 0 105.5 -23.5t27.5 -57.5q0 -41 -21.5 -71t-64.5 -30q-23 0 -46.5 6t-72.5 6q-45 0 -91 -15t-84 -49t-61.5 -88t-23.5 -130q0 -72 16.5 -137.5t50 -114.5t88 -79t130.5 -30t131 28t96 75t71.5 111.5t57.5 138.5 q10 27 19 45t32 18q10 0 24.5 -7t14.5 -32q0 -10 -5 -30.5t-19 -61.5q-29 -86 -71 -165t-99.5 -138t-133 -95t-174.5 -36q-96 0 -166.5 36t-117.5 94t-69.5 133t-22.5 155z" />
<glyph unicode="d" horiz-adv-x="1042" d="M106 410q0 117 39 211t101.5 158.5t139.5 99t153 34.5q135 0 135 -84q0 -31 -12.5 -57.5t-47.5 -26.5q-23 0 -50 4.5t-79 4.5q-43 0 -83 -14.5t-72.5 -46t-52 -85t-19.5 -129.5q0 -160 64.5 -252t183.5 -92q154 0 228.5 136.5t74.5 373.5q0 123 -19.5 223.5t-52 180 t-76 141t-88.5 108.5q-31 31 -38 50.5t-7 37.5q0 35 26 61t60 26q27 0 48.5 -16.5t50.5 -51.5q37 -47 79 -120t77.5 -166t59 -204.5t23.5 -236.5q0 -139 -32.5 -264t-95 -219.5t-152.5 -149.5t-205 -55q-82 0 -148.5 30.5t-113.5 86t-73 133t-26 170.5z" />
<glyph unicode="e" horiz-adv-x="944" d="M111 418q0 104 31.5 198.5t90 166t138.5 113.5t176 42q129 0 199.5 -73.5t70.5 -186.5q0 -72 -25.5 -130.5t-69.5 -101.5t-105.5 -66.5t-133.5 -23.5q-70 0 -98.5 22.5t-28.5 63.5q0 27 16.5 45.5t51.5 18.5q18 0 43 -3t49 -3q154 0 154 141q0 72 -40 115t-138 43 q-104 0 -172 -76t-68 -236q0 -82 19.5 -150.5t60.5 -118.5t104.5 -77.5t151.5 -27.5q86 0 154.5 19.5t124 64.5t100.5 118.5t86 182.5q10 27 19 45t32 18q10 0 24.5 -7t14.5 -32q0 -28 -31 -110q-31 -90 -78 -170t-114.5 -141.5t-157.5 -97.5t-209 -36q-106 0 -189 35 t-139.5 95.5t-85 142.5t-28.5 178z" />
<glyph unicode="f" horiz-adv-x="1052" d="M72 717q0 31 12 41t41 14q23 4 93.5 8t158.5 8q25 135 74 258t123.5 216.5t175 148.5t227.5 55q53 0 85 -20.5t32 -61.5q0 -51 -29 -71.5t-64 -20.5h-73q-94 0 -163 -30.5t-119 -93t-84 -155.5t-54 -218q61 4 123.5 7t116 5t94.5 3t61 1q53 0 66.5 -19.5t13.5 -48.5 q0 -45 -24.5 -71.5t-112.5 -26.5q-86 0 -175 -1h-60q-61 0 -124 1q-2 -29 -3 -64.5t-1 -82.5q0 -115 10.5 -233t27 -229.5t37 -213t40.5 -182.5q4 -14 6 -30t2 -30q0 -35 -20.5 -59.5t-67.5 -24.5t-70.5 33t-33.5 76q-14 57 -27.5 146t-24 196.5t-16.5 224.5t-6 227 q0 74 4 133.5t10 116.5q-57 2 -114.5 3t-116.5 5q-29 2 -40 18.5t-11 41.5z" />
<glyph unicode="g" horiz-adv-x="1036" d="M102 383q0 117 40 212t106.5 162.5t152.5 104.5t181 37q63 0 117.5 -23.5t93 -59.5t60 -77t21.5 -73q0 -35 -20 -58.5t-61 -23.5q-20 0 -38 10t-40 41q-16 23 -36 46.5t-45.5 42.5t-60 31.5t-84.5 12.5q-55 0 -97 -25.5t-71.5 -68.5t-45 -99.5t-15.5 -117.5 q0 -49 9.5 -102.5t32 -96.5t60 -70.5t93.5 -27.5q39 0 69.5 15t54 39t42 52.5t34.5 57.5q45 82 82 130t97 48q31 0 54 -14.5t40.5 -56.5t26 -115.5t8.5 -190.5q0 -172 -48.5 -294t-128 -201t-186 -114.5t-223.5 -35.5q-109 0 -173.5 30.5t-64.5 94.5q0 41 16.5 64.5 t51.5 23.5q25 0 46 -9.5t50 -19.5t67 -19.5t97 -9.5q86 0 149.5 19.5t106.5 74t63.5 150.5t20.5 250q0 113 -12.5 148.5t-32.5 35.5q-14 0 -24.5 -14t-26.5 -45q-16 -33 -42 -76t-63 -82t-89 -65.5t-122 -26.5q-61 0 -115.5 27.5t-93.5 78t-61.5 120t-22.5 153.5z" />
<glyph unicode="h" horiz-adv-x="1110" d="M111 367q0 137 15 282.5t38.5 276.5t50.5 239.5t49 171.5q16 47 44 75t81 28q29 0 46.5 -16.5t17.5 -39.5q0 -14 -2 -28.5t-13 -36.5q-33 -84 -64.5 -181.5t-56 -212t-39 -248.5t-14.5 -292q0 -66 15.5 -87.5t37.5 -21.5q16 0 34 23t37.5 59.5t41 83.5t43.5 97 q33 70 60.5 116.5t55 75.5t56.5 41t64 12q49 0 81.5 -42t55 -103t40 -135t37 -135.5t46 -103.5t67.5 -42q49 0 85 55.5t67 137.5l31 82q10 27 19 45t32 18q10 0 24.5 -7t14.5 -32q0 -10 -5.5 -29.5t-21.5 -66.5q-12 -35 -31.5 -84t-44.5 -96q-39 -72 -93 -124t-130 -52 q-61 0 -103 38.5t-70 97t-47.5 127t-35.5 127t-33.5 97.5t-42.5 39q-31 0 -58.5 -40t-55 -101.5t-57 -131t-64.5 -131t-76 -101.5t-92 -40q-70 0 -103.5 87t-33.5 229z" />
<glyph unicode="i" horiz-adv-x="446" d="M92 1108q0 41 31 79t80 38q39 0 69.5 -29t30.5 -72q0 -41 -32.5 -75.5t-77.5 -34.5q-47 0 -74 27.5t-27 66.5zM111 334v373q0 59 23.5 86.5t62.5 27.5t54 -24.5t15 -71.5v-367q0 -88 20.5 -120.5t59.5 -32.5q59 0 101 57t77 154l31 82q10 27 19.5 45t31.5 18 q10 0 24.5 -7t13.5 -32q0 -10 -4.5 -29.5t-21.5 -66.5q-12 -35 -31 -84t-44 -96q-41 -78 -101.5 -136.5t-146.5 -58.5q-92 0 -138 76t-46 207z" />
<glyph unicode="j" horiz-adv-x="385" d="M-295 -414q0 35 19.5 51.5t48.5 16.5t49 -2t55 -2q57 0 102.5 20.5t77 80t49 170t17.5 290.5q0 76 -3 150.5t-6 141t-5.5 121t-2.5 89.5q0 66 18.5 93.5t65.5 27.5q29 0 52.5 -19.5t29.5 -83.5q4 -29 5.5 -77t1.5 -89v-348q0 -207 -37 -345t-100.5 -222t-146.5 -120 t-175 -36q-59 0 -87 24.5t-28 67.5zM70 1120q0 43 31.5 82t82.5 39q41 0 73 -29.5t32 -74.5q0 -43 -34 -79t-81 -36q-49 0 -76.5 28.5t-27.5 69.5z" />
<glyph unicode="k" horiz-adv-x="1021" d="M102 178q0 109 6.5 244t21.5 287.5t37.5 316.5t57.5 330q12 61 41 98t84 37q29 0 41 -14.5t12 -30.5q0 -14 -4 -31.5t-10 -46.5q-37 -158 -62.5 -297t-41 -269t-22.5 -257t-7 -262q0 -53 1 -84t1 -70q0 -41 -27.5 -69.5t-64.5 -28.5q-35 0 -49.5 37.5t-14.5 109.5z M319 535q0 53 35 96t113 98q61 45 128 88t163 101q16 10 37.5 20t42.5 10q20 0 34.5 -15t14.5 -40q0 -31 -26 -51t-73 -49q-70 -41 -132 -81t-109 -75q-35 -25 -51.5 -43.5t-16.5 -46.5q0 -23 11.5 -49.5t23.5 -48.5q23 -37 48.5 -78t62.5 -88q53 -68 96 -95.5t108 -27.5 q98 0 161 66.5t110 189.5l30 82q10 27 19.5 45t32.5 18q10 0 24.5 -7t15.5 -32q0 -10 -6 -29.5t-22 -66.5q-23 -68 -53.5 -141.5t-76.5 -135t-110.5 -101.5t-154.5 -40q-80 0 -142.5 35t-113.5 87t-92 115.5t-74 123.5q-25 45 -41.5 85t-16.5 81z" />
<glyph unicode="l" horiz-adv-x="536" d="M94 467q0 147 15.5 286.5t41 263.5t57.5 227.5t62 174.5q25 57 56.5 82t72.5 25q37 0 50.5 -14.5t13.5 -34.5q0 -16 -7 -34t-28 -59q-41 -86 -75 -191.5t-58.5 -222t-37.5 -240.5t-13 -247q0 -92 12 -148t33.5 -88t50.5 -43t59 -11q74 0 126.5 62t97.5 183l20 56 q10 27 20.5 47t32.5 20q10 0 24.5 -7t15.5 -32q0 -10 -5.5 -29.5t-21.5 -66.5q-12 -37 -32.5 -90t-47.5 -100q-47 -86 -117 -143.5t-168 -57.5q-109 0 -179.5 103.5t-70.5 328.5z" />
<glyph unicode="m" horiz-adv-x="2209" d="M47 319q0 16 10 43l56 150q37 102 73.5 171t74.5 111t76 59t75 17q55 0 91 -44t59.5 -110.5t38.5 -145t30 -146.5q18 -84 36.5 -128t53.5 -44q37 0 65.5 53t79.5 170q25 55 51.5 109.5t58.5 99.5t68.5 72.5t79.5 27.5q53 0 86 -42t53.5 -105.5t33 -135t24.5 -132.5 t26.5 -97t38.5 -36q20 0 41 30.5t39.5 70.5t34 81t23.5 63q27 66 54.5 130.5t60 114.5t71.5 82t86 32q51 0 84 -36t55.5 -92.5t38 -125t29.5 -133.5q10 -47 20.5 -88t24.5 -73t34.5 -50.5t53.5 -18.5q53 0 87 55.5t65 137.5l28 78q10 27 20.5 47t33.5 20q10 0 24 -7t14 -32 q0 -10 -5 -29.5t-21 -66.5q-12 -35 -31.5 -84t-44.5 -96q-39 -72 -95.5 -124t-127.5 -52q-57 0 -96 34.5t-66 88t-43 120t-30.5 129t-29 115.5t-36.5 80q-18 23 -45 22q-23 0 -45 -24q-29 -35 -53.5 -100.5t-57.5 -151.5q-20 -55 -46 -114.5t-55.5 -107.5t-63.5 -80t-70 -32 q-53 0 -85 41t-51.5 103.5t-31 134t-22.5 134t-28.5 103.5t-48.5 41q-23 0 -39 -11t-31.5 -35.5t-33 -62.5t-41.5 -89q-29 -61 -57.5 -124t-59.5 -113t-66.5 -82t-80.5 -32q-55 0 -91 46.5t-59.5 114t-40 148t-35 148.5t-42 114t-60.5 46q-53 0 -90 -66.5t-74 -167.5 q-35 -90 -53.5 -123.5t-42.5 -33.5q-35 0 -35 36z" />
<glyph unicode="n" horiz-adv-x="1558" d="M47 317q0 16 10 43l54 144q37 102 73.5 171.5t74.5 112.5t77 62.5t82 19.5q55 0 91 -46t61.5 -115.5t44 -149.5t36 -149.5t37 -115.5t49.5 -46q45 0 82 67.5t84 171.5q31 70 59.5 125.5t57.5 94t63.5 58t77.5 19.5q49 0 81 -42t53.5 -103t39 -135t37 -135.5t46 -103.5 t67.5 -42q49 0 85 55.5t66 137.5l31 82q10 27 19.5 45t31.5 18q10 0 24.5 -7t13.5 -32q0 -10 -4.5 -29.5t-20.5 -66.5q-12 -35 -32 -84t-44 -96q-39 -72 -93 -124t-130 -52q-59 0 -100.5 37.5t-70 94t-48 124t-35.5 127.5q-16 66 -32 109.5t-46 43.5q-37 0 -64.5 -54 t-66.5 -140q-29 -66 -58.5 -128.5t-62.5 -113.5t-70 -82t-82 -31q-59 0 -98 46.5t-66.5 114t-46 148t-38 148.5t-44 114t-63.5 46q-53 0 -88 -64.5t-72 -165.5q-35 -90 -54.5 -125.5t-43.5 -35.5q-35 0 -35 34z" />
<glyph unicode="o" horiz-adv-x="1007" d="M106 410q0 100 35 190t95.5 158.5t141.5 109.5t175 41q82 0 150.5 -32.5t115.5 -90t74 -134.5t27 -165q0 -100 -35 -190t-94.5 -158.5t-140.5 -108.5t-175 -40q-84 0 -151.5 32.5t-115.5 89t-75 133.5t-27 165zM244 485q0 -74 18.5 -137t55 -110.5t93 -75t130.5 -27.5 q98 0 164.5 75t66.5 202q0 74 -17.5 139t-51 112.5t-85 75t-120.5 27.5q-55 0 -101.5 -19.5t-80 -56.5t-53 -89t-19.5 -116z" />
<glyph unicode="p" horiz-adv-x="1015" d="M78 242q0 166 44 294t115.5 216t163 134t187.5 46q70 0 131 -24.5t106 -75t72 -128t27 -184.5q0 -104 -35 -199.5t-93.5 -166t-135 -112.5t-158.5 -42q-37 0 -60.5 8t-36 20.5t-16.5 28t-4 29.5q0 23 12.5 45.5t57.5 26.5q61 4 118.5 14t101.5 43t70.5 97.5t26.5 179.5 q0 139 -57 217.5t-168 78.5q-154 0 -243 -131t-89 -356q0 -123 21.5 -227.5t54.5 -191.5t70.5 -156.5t70.5 -122.5q8 -12 14.5 -25.5t6.5 -26.5q0 -33 -23.5 -54t-62.5 -21q-43 0 -72 39q-23 29 -58.5 98.5t-71.5 166.5t-61.5 216t-25.5 246z" />
<glyph unicode="q" horiz-adv-x="1071" d="M115 453q0 102 36.5 189t97 151.5t138.5 100.5t160 36q96 0 176 -39t136 -116t88 -192.5t32 -269.5q0 -193 -27.5 -383t-101.5 -385q-23 -53 -80 -53q-37 0 -58.5 19.5t-21.5 42.5q0 16 5 35.5t12 35.5q27 80 51 150.5t42.5 146.5t29 162t10.5 197q0 123 -24.5 218 t-70 159.5t-105.5 98.5t-130 34q-131 0 -195.5 -85t-64.5 -214q0 -158 89 -238t259 -80h35q29 0 43 -22.5t14 -53.5q0 -39 -30.5 -61.5t-118.5 -22.5q-80 0 -157 26t-136.5 80t-96 136t-36.5 197z" />
<glyph unicode="r" horiz-adv-x="905" d="M-66 172q0 12 5.5 20.5t15.5 18.5q18 16 30.5 33.5l22.5 31.5q27 39 48.5 91.5t38 110t28.5 115.5t18 107q6 51 16.5 82t28 48.5t41 26.5t56.5 17q31 8 64.5 16.5t66 15.5t61.5 11.5t49 4.5q90 0 128 -64.5t38 -226.5v-240q0 -104 29 -146t82 -42q63 0 103 54t81 163 l31 82q10 27 21.5 45t27.5 18q10 0 24.5 -7t14.5 -32q0 -10 -5 -29.5t-22 -66.5q-18 -53 -34.5 -93t-41.5 -87q-18 -37 -41.5 -74t-54.5 -65.5t-69.5 -47t-87.5 -18.5q-111 0 -162 90t-51 238v157q0 127 -17.5 176.5t-75.5 49.5q-16 0 -41.5 -5.5t-48.5 -11.5 q-29 -8 -47 -15t-30.5 -18.5t-20.5 -29.5t-16 -45q-35 -127 -78 -227.5t-84 -170.5q-37 -63 -63.5 -79.5t-43.5 -16.5q-35 0 -35 35z" />
<glyph unicode="s" horiz-adv-x="843" d="M-66 172q0 12 5.5 20.5t15.5 18.5q18 16 30.5 33.5l22.5 31.5q27 39 48.5 91.5t38 110t28.5 115.5t18 107q8 55 21.5 91t33 55.5t43 27t50.5 7.5q76 0 162 -45t158.5 -123t120.5 -182.5t48 -223.5q0 -51 -20.5 -106.5t-61.5 -102.5t-105.5 -77.5t-150.5 -30.5 q-106 0 -178 34.5t-72 100.5q0 29 23 61.5t63 32.5q29 0 48.5 -14.5t41 -32.5t50 -32.5t78.5 -14.5q76 0 107.5 42t31.5 114t-29 147.5t-75 137t-104 101.5t-116 40q-23 0 -40 -14.5t-31 -61.5q-35 -127 -78 -227.5t-84 -170.5q-37 -63 -63.5 -79.5t-43.5 -16.5 q-35 0 -35 35z" />
<glyph unicode="t" horiz-adv-x="778" d="M20 807q0 14 10.5 31.5t35.5 19.5q41 4 85 6t87 6q16 94 38.5 169t40.5 122q10 29 31 41t41 12q43 0 59.5 -20t16.5 -41q0 -14 -4 -30.5t-10 -39.5q-14 -51 -27.5 -99t-24.5 -95q133 23 250 76q41 18 56.5 24t25.5 6q33 0 46.5 -30.5t13.5 -51.5q0 -27 -19.5 -47 t-52.5 -35q-78 -35 -169 -51t-175 -26q-12 -92 -13 -205q0 -111 14.5 -183.5t42 -114.5t69.5 -59.5t98 -17.5q98 0 163.5 66.5t120.5 214.5l17 43q10 27 19 45t32 18q10 0 24.5 -7t14.5 -32q0 -10 -5 -29.5t-22 -66.5q-12 -35 -30 -82t-43 -94q-51 -98 -138.5 -159.5 t-203.5 -61.5q-80 0 -141.5 27.5t-102.5 87t-62.5 153.5t-21.5 227q0 113 12 215q-45 -2 -77.5 -2t-59.5 4q-45 4 -53.5 23.5t-8.5 42.5z" />
<glyph unicode="u" horiz-adv-x="1032" d="M106 399q0 37 1.5 82t4.5 91t8 90.5t13 76.5q14 51 33.5 68.5t54.5 17.5t48.5 -20t13.5 -51q0 -61 -6.5 -149.5t-6.5 -168.5q0 -123 33 -184.5t119 -61.5q57 0 96 36t65.5 94.5t42 133t27.5 152.5q8 53 17.5 87t20.5 54.5t26.5 27.5t38.5 7q25 0 38 -9t20 -36.5t11 -80 t9 -136.5q4 -88 9 -147.5t15 -96t27.5 -53t48.5 -16.5q57 0 99 56t77 153l31 82q10 27 19 45t32 18q10 0 24.5 -7t14.5 -32q0 -10 -5 -29.5t-22 -66.5q-12 -35 -31.5 -84t-44.5 -96q-20 -39 -42.5 -75t-50 -62.5t-62.5 -42t-78 -15.5t-73.5 17.5t-53.5 48t-35 70.5t-18 85 q-6 51 -11.5 67.5t-15.5 16.5t-17 -17t-22 -58q-16 -45 -37.5 -90.5t-55.5 -82t-81 -60t-113 -23.5q-133 0 -194.5 100t-61.5 274z" />
<glyph unicode="v" horiz-adv-x="892" d="M41 784q0 33 21.5 58.5t62.5 25.5q35 0 54.5 -20.5t35.5 -63.5q8 -25 25.5 -78t40 -121.5t49 -143t55.5 -140.5q18 -43 36.5 -70.5t43.5 -27.5t43 23.5t39 58.5q29 47 53.5 106.5t46 124t40 131t36.5 127.5q8 29 26.5 41t41.5 12q35 0 50 -18t15 -41q0 -16 -6 -39.5 t-8 -30.5q-12 -47 -36 -108.5t-52.5 -129t-62.5 -135t-70 -124.5q-43 -68 -89.5 -110t-109.5 -42q-47 0 -77 28.5t-64 92.5q-25 45 -55.5 111.5t-61.5 141.5t-59.5 149.5t-47.5 136.5q-6 23 -11 40t-5 35z" />
<glyph unicode="w" horiz-adv-x="1212" d="M47 788q0 29 22.5 55.5t67.5 26.5q41 0 55.5 -24.5t20.5 -67.5q4 -31 14.5 -91t24.5 -131t30.5 -142.5t34.5 -122.5q12 -35 26.5 -55.5t43.5 -20.5t43 21.5t31 62.5q18 49 33.5 99.5t26.5 96.5t20.5 84.5t17.5 65.5q12 45 31.5 65.5t56.5 20.5q43 0 62.5 -25.5 t29.5 -70.5q6 -23 12.5 -65t15.5 -92t18.5 -103t21.5 -99q10 -35 21.5 -59t33.5 -24q29 0 49.5 32.5t42.5 112.5q12 45 24.5 102.5t24 115.5t19.5 111.5t12 88.5q12 84 72 84q35 0 48 -20.5t13 -51.5q0 -20 -6 -51q-23 -127 -53.5 -248t-65.5 -219q-41 -117 -88 -163 t-118 -46q-49 0 -82 19.5t-54.5 55.5t-34 87t-24.5 112q-16 80 -21.5 105.5t-19.5 25.5q-16 0 -23.5 -25.5t-21.5 -76.5q-16 -59 -32.5 -113.5t-39 -95.5t-56.5 -66.5t-83 -25.5q-59 0 -91 36t-56 99q-16 43 -42 124t-49.5 170t-41 175t-17.5 141z" />
<glyph unicode="x" horiz-adv-x="913" d="M20 -94q0 18 11.5 42.5t21.5 39.5q16 27 49 72.5t79 107t101.5 133.5t116.5 150q-29 41 -58.5 77.5t-62 72.5t-70.5 73t-83 76q-20 16 -27.5 30.5t-7.5 30.5q0 31 25.5 53.5t60.5 22.5t72 -31q68 -61 134.5 -130t125.5 -144q43 51 90 106t90 104.5t77 86t48 49.5 q10 10 21.5 16t29.5 6q16 0 32.5 -16t16.5 -37q0 -20 -12 -35q-63 -76 -150 -171t-176 -202q70 -96 128.5 -196t115.5 -213q10 -16 12.5 -30.5t2.5 -24.5q0 -41 -31 -62.5t-68 -21.5q-35 0 -57 45q-29 59 -53.5 106t-48 89t-50 84t-59.5 89q-43 -55 -87 -113.5t-84 -112.5 t-73 -102.5t-53 -82.5q-29 -43 -48.5 -68t-45.5 -25q-23 0 -39.5 16.5t-16.5 39.5z" />
<glyph unicode="y" horiz-adv-x="968" d="M106 465q0 31 1.5 67.5t3.5 73.5t6 72t8 59q10 51 27.5 71.5t58.5 20.5q45 0 57.5 -25.5t12.5 -64.5q0 -29 -5.5 -92t-5.5 -143q0 -66 6.5 -124t22.5 -102.5t45 -70t74 -25.5q51 0 88 36t61.5 91.5t41 121t28.5 126.5q12 68 24.5 108t25.5 61.5t31.5 27.5t43.5 6 q39 0 53 -32t23 -101q14 -135 20 -255t6 -222q0 -172 -44 -298t-120.5 -208t-178 -122t-214.5 -40q-82 0 -134 24.5t-52 83.5q0 39 18.5 62.5t57.5 23.5q41 0 85 -14t128 -14q90 0 149 28.5t95 86t51.5 144.5t15.5 202q0 92 -1 148t-5 91q-2 10 -6 23.5t-15 13.5 q-8 0 -13 -3t-10 -12.5t-12.5 -30t-19.5 -52.5q-49 -139 -111.5 -203t-162.5 -64q-74 0 -124.5 32t-80 90.5t-42 140.5t-12.5 182z" />
<glyph unicode="z" horiz-adv-x="854" d="M35 164q0 59 38 96t109 78q68 39 114 66.5t84 51t72.5 48t79.5 57.5q41 31 66 57.5t25 61.5q0 31 -20.5 46t-49.5 20.5t-58.5 4.5t-50.5 -1q-86 0 -156.5 -5.5t-117.5 -5.5q-43 0 -66.5 10.5t-23.5 55.5q0 41 26.5 62.5t104.5 25.5q47 4 72.5 4h64.5q158 0 252 -16 q61 -10 110.5 -46t49.5 -108q0 -74 -35 -123t-88 -96q-61 -53 -150.5 -109.5t-197.5 -124.5q-29 -18 -55.5 -34t-26.5 -45q0 -33 33.5 -40.5t95.5 -7.5q98 0 185 20.5t151 43.5q20 8 43.5 15t40.5 7q35 0 48 -25.5t13 -55.5q0 -25 -14.5 -41.5t-30.5 -26.5 q-39 -20 -90 -34.5t-109.5 -24t-119 -13.5t-117.5 -4q-156 0 -228.5 37t-72.5 119z" />
<glyph unicode="{" horiz-adv-x="716" d="M51 643q0 41 22.5 60.5t65.5 35.5q74 27 111 76t37 141q0 63 -14.5 141.5t-14.5 141.5q0 139 84 214t250 75q53 0 86 -12.5t33 -63.5q0 -25 -13.5 -45.5t-35.5 -20.5q-16 0 -28.5 1.5t-29.5 1.5q-109 0 -164 -29t-55 -127q0 -72 17.5 -149.5t17.5 -143.5 q0 -117 -50.5 -178.5t-142.5 -97.5l-13 -6.5t-5 -8.5q0 -4 6 -7t12 -5q109 -33 152 -87t43 -161q0 -35 -6 -74t-13.5 -77.5t-13.5 -74.5t-6 -67q0 -59 16.5 -92t49 -48t84 -19.5t122.5 -4.5q50 1 50 -65q0 -43 -21.5 -62.5t-75.5 -19.5q-164 0 -260 62.5t-96 203.5 q0 94 15.5 165t15.5 132q0 49 -6.5 83t-25 59.5t-52 44t-88.5 34.5q-29 10 -44.5 24.5t-15.5 49.5z" />
<glyph unicode="|" horiz-adv-x="421" d="M123 -150q0 53 5 190.5t10 320t10.5 387t5.5 393.5q0 111 -2 201t-2 135q0 41 22.5 63.5t56.5 22.5q35 0 51.5 -19.5t16.5 -68.5q0 -29 1 -106t1 -208q0 -82 -1 -196.5t-4 -242.5t-6 -261t-6 -253t-8.5 -217t-9.5 -153q-4 -39 -29.5 -52t-48.5 -13q-29 0 -46 14t-17 63z " />
<glyph unicode="}" horiz-adv-x="716" d="M6 -139q0 25 13.5 45t35.5 20q16 0 28.5 -1t29.5 -1q109 0 164 29t55 127q0 72 -17.5 149.5t-17.5 143.5q0 117 50 178t142 98q8 4 13.5 6t5.5 9q0 4 -6 7t-13 5q-109 33 -151.5 87t-42.5 161q0 35 6 73.5t13.5 77.5t13.5 75t6 67q0 57 -16.5 90.5t-49 49t-85 19.5 t-122.5 4q-49 0 -49 66q0 43 21.5 62.5t75.5 19.5q164 0 260 -62.5t96 -203.5q0 -94 -15.5 -165t-15.5 -132q0 -49 6 -83t24.5 -59.5t52.5 -44t89 -35.5q29 -10 44.5 -24t15.5 -49q0 -41 -22.5 -60.5t-65.5 -36.5q-74 -27 -111 -75.5t-37 -141.5q0 -63 14.5 -141t14.5 -141 q0 -139 -84 -214t-250 -75q-53 0 -86 12.5t-33 63.5z" />
<glyph unicode="~" d="M131 543q0 37 14.5 78t45 76.5t78.5 58t116 22.5q53 0 96 -19.5t84 -43t85 -43t104 -19.5q53 0 85.5 18.5t59.5 78.5q8 20 18.5 30.5t32.5 10.5q18 0 29.5 -11.5t11.5 -42.5q0 -37 -15 -79t-46 -78.5t-79 -60t-116 -23.5q-57 0 -102 19.5t-87 43t-84 43t-95 19.5 t-86 -17.5t-58 -73.5q-8 -20 -18 -30.5t-33 -10.5q-18 0 -29.5 11.5t-11.5 42.5z" />
<glyph unicode="&#xa1;" horiz-adv-x="448" d="M104 -250q0 94 1 177t6.5 165t13.5 167t22 181q6 47 27 59.5t43 12.5q47 0 47 -51q0 -82 -4 -165t-4 -173q0 -104 2 -213t16 -227q6 -49 7 -86q0 -35 -20.5 -64t-76.5 -29q-31 0 -47 13.5t-22 48.5q-6 27 -8.5 73t-2.5 111zM111 803q0 53 37.5 93t91.5 40q53 0 78.5 -37 t25.5 -80q0 -53 -36 -93t-91 -40t-80.5 38t-25.5 79z" />
<glyph unicode="&#xa2;" d="M211 612q0 82 24.5 159t69.5 143.5t107.5 118.5t138.5 83l-6 96q-2 18 -2 24.5v16.5q0 33 10 52.5t39 21.5q33 2 46 -20.5t15 -65.5q0 -23 1 -46.5t3 -45.5q25 4 50.5 7t52.5 3q57 0 101 -20.5t38 -71.5q-6 -66 -72 -66q-23 0 -51 7.5t-78 7.5h-17t-17 -2 q10 -174 26.5 -349.5t32.5 -353.5q68 8 114 36t87 56q25 16 45 1t20 -37q0 -33 -28 -60q-33 -31 -87.5 -62.5t-138.5 -49.5q2 -25 3 -48.5t5 -48.5q2 -16 3.5 -28.5t1.5 -32.5q0 -31 -11.5 -43t-34.5 -14q-29 -2 -40 14t-17 59l-16 129h-25q-102 0 -177 34t-123 92.5 t-70.5 136t-22.5 167.5zM356 641q0 -137 59.5 -224t198.5 -104q-16 170 -30.5 339t-24.5 339q-104 -41 -153.5 -135t-49.5 -215z" />
<glyph unicode="&#xa3;" d="M98 623q0 25 12.5 47t43.5 26q25 4 58.5 6.5t74.5 6.5q-4 33 -6 60.5t-2 49.5q0 133 33.5 228.5t97 156t155.5 89t207 28.5q57 0 123 -15.5t113 -48.5t47 -77q0 -31 -20.5 -57.5t-49.5 -26.5q-18 0 -45 14q-33 18 -88 44t-139 26q-166 0 -228.5 -86t-62.5 -265 q0 -27 1 -53t3 -55q106 10 215 15t182 5q47 0 47 -51q0 -33 -15 -60.5t-48 -27.5q-80 0 -179.5 -5t-195.5 -9q4 -102 -12.5 -208t-77.5 -214q-6 -10 -6 -16q0 -14 20 -15q20 0 69.5 6t110 13.5t123 13.5t111.5 6q80 0 138.5 -3t99.5 -13q43 -12 43 -70q0 -33 -23.5 -61.5 t-58.5 -28.5q-10 0 -31 4q-31 6 -57.5 10t-56 7.5t-66.5 4.5t-88 1q-61 0 -134 -7.5t-139.5 -16.5t-116 -16.5t-65.5 -7.5q-29 0 -42 15.5t-14 40t8 54.5t28 56q68 104 86 218t14 219q-66 -4 -108 -7.5t-50 -3.5q-39 0 -39 54z" />
<glyph unicode="&#xa4;" d="M145.5 284.5q-2.5 18.5 16.5 43.5q12 16 20 24l21 21l51 53q-63 88 -64 199q0 57 18.5 123.5t57.5 128.5l-53 59l-35 37q-27 31 -31 59.5t23 50.5q29 29 60.5 16.5t66.5 -52.5l59 -70q45 35 103.5 56.5t132.5 21.5q55 0 103 -18.5t89 -49.5l82 90q29 33 54.5 42t50.5 -13 q20 -18 16 -41t-24 -47q-6 -8 -10.5 -13.5t-16.5 -17.5l-76 -84q29 -43 44.5 -91t15.5 -99q0 -59 -20.5 -129t-61.5 -131q23 -23 36 -37.5t22 -24.5t15.5 -16t12.5 -15q25 -31 22.5 -54t-22.5 -44q-25 -23 -50.5 -17.5t-62.5 44.5l-66 69q-43 -33 -98 -51t-125 -18 q-104 0 -188 61l-76 -80q-55 -57 -94 -20q-16 16 -18.5 34.5zM322 680q0 -125 67.5 -201t183.5 -76q88 0 151.5 70t63.5 184q0 125 -67 201t-184 76q-88 0 -151.5 -69.5t-63.5 -184.5z" />
<glyph unicode="&#xa5;" d="M90 1182q0 33 15.5 58.5t60.5 25.5q27 0 41 -16.5t24 -41.5q35 -88 72 -173t100 -197q47 -86 83 -130t89 -44q51 0 101.5 57t94.5 140t79 178.5t53 168.5q10 41 30.5 55.5t45.5 14.5q31 0 43 -16.5t12 -40.5q0 -10 -2 -20.5t-4 -16.5q-14 -59 -40.5 -132t-63.5 -149 t-84 -146.5t-103 -125.5q53 4 97.5 5t74.5 1q23 0 34 -12.5t11 -30.5q0 -27 -14 -53.5t-45 -28.5q-61 -4 -132 -6l-142 -4q-2 -31 -3.5 -62.5t-1.5 -60.5q72 4 138.5 6t107.5 2q45 0 45 -43q0 -27 -14 -51.5t-45 -26.5l-234 -10q0 -47 3.5 -95t3.5 -81q0 -35 -21.5 -59.5 t-62.5 -24.5q-20 0 -38 16.5t-22 61.5q-2 23 -2 45v45v38.5t2 49.5l-141 -8q-55 -4 -83 -6t-56 -2q-37 0 -37 40q0 16 6 39t31 29q23 4 58.5 8t76.5 8l149 11q2 33 4 64.5t7 64.5l-140 -6q-55 -4 -92 -6.5t-65 -2.5q-37 0 -37 45q0 23 10 43.5t43 24.5q20 2 49 5t55.5 5 t48 3t27.5 1q-35 37 -64.5 81t-56.5 87q-47 78 -85 160t-66 143q-10 20 -19.5 48t-9.5 51z" />
<glyph unicode="&#xa6;" horiz-adv-x="399" d="M121 -164q0 55 1 113.5t1 111.5q0 55 1 110.5t1 105t1 89.5t1 62q0 41 23.5 63.5t58.5 22.5t52.5 -19.5t17.5 -68.5q0 -29 -3.5 -121t-3.5 -223q0 -47 -2 -118.5t-6 -139.5q-2 -39 -29.5 -52.5t-50.5 -13.5q-29 0 -46 14.5t-17 63.5zM123 1477q0 41 23.5 63.5t58.5 22.5 t52 -19.5t17 -68.5q0 -29 1 -106t1 -208q0 -47 -2 -113.5t-6 -134.5q-2 -39 -29.5 -52t-50.5 -13q-29 0 -46 14.5t-17 63.5q0 55 1 108t1 107q0 111 -2 201t-2 135z" />
<glyph unicode="&#xa7;" horiz-adv-x="1032" d="M84 -186q0 29 19.5 61.5t60.5 32.5q8 0 16 -2t19 -6q35 -14 93 -38t144 -24q152 0 210.5 46t58.5 147q0 57 -20.5 92t-56.5 57.5t-83 36.5t-103 29q-59 16 -115.5 36.5t-100.5 55.5t-70.5 88t-26.5 133q0 98 53.5 170t136.5 119q-51 37 -81.5 91t-30.5 136 q0 80 27.5 148.5t81 118t131 78t178.5 28.5q63 0 125.5 -18.5t97.5 -40.5q47 -29 47 -80q0 -35 -22.5 -58.5t-55.5 -23.5q-4 0 -12 1t-23 9q-35 18 -89 39.5t-124 21.5q-106 0 -169.5 -48t-63.5 -150q0 -45 20.5 -76t56.5 -54.5t86 -41t109 -33.5q57 -16 112.5 -36.5 t100.5 -53.5t73 -80t28 -117q0 -47 -21.5 -90t-52.5 -67q-12 -10 -25.5 -17.5t-29.5 -7.5t-29.5 11.5t-13.5 29.5q0 16 10 31q31 44 31 77q0 51 -32 84t-77 52.5t-96 32t-88 24.5l-40 12t-38 15q-61 -25 -101 -74t-40 -135q0 -51 20 -82t55 -49.5t79 -29.5t93 -26 q59 -18 116.5 -39.5t101.5 -58.5t72 -95.5t28 -150.5q0 -80 -29 -148.5t-86 -119.5t-144 -80t-202 -29q-104 0 -178 27t-99 53q-23 23 -22 56z" />
<glyph unicode="&#xa8;" horiz-adv-x="1024" d="M231 1200q0 41 31 79t80 38q39 0 69.5 -28.5t30.5 -71.5q0 -41 -32.5 -76t-77.5 -35q-47 0 -74 27.5t-27 66.5zM580 1202q0 41 30.5 80t81.5 39q41 0 72 -28.5t31 -73.5q0 -41 -33 -77t-80 -36q-49 0 -75.5 27.5t-26.5 68.5z" />
<glyph unicode="&#xa9;" horiz-adv-x="1538" d="M102 639q0 152 56.5 294t155 251.5t230.5 176t285 66.5q131 0 242 -48t191.5 -134t127 -203.5t46.5 -255.5q0 -152 -55.5 -293t-153 -250.5t-229 -176t-285.5 -66.5q-131 0 -243 48t-193.5 134t-128 203t-46.5 254zM254 729q0 -117 31.5 -224.5t97.5 -188t166 -129 t237 -48.5q94 0 184.5 42t160 117t111.5 177.5t42 220.5q0 119 -30.5 225.5t-95 188.5t-165 130t-241.5 48q-96 0 -186.5 -43t-159 -117.5t-110.5 -177t-42 -221.5zM457 676q0 80 29.5 152.5t80.5 128t120 87t144 31.5q39 0 75 -8t57 -18q27 -14 43 -31t16 -45 q0 -25 -20.5 -51.5t-47.5 -26.5q-18 0 -34 10q-55 31 -132 31q-102 0 -151 -58.5t-49 -156.5q0 -102 50 -170t153 -68q37 0 62.5 3t46 11.5t38.5 20.5t41 29q29 23 43 22q12 0 22.5 -10t10.5 -31q0 -14 -6.5 -32.5t-26.5 -40.5q-47 -51 -121.5 -77t-142.5 -26 q-80 0 -137.5 29t-93 75t-53 103t-17.5 117z" />
<glyph unicode="&#xaa;" horiz-adv-x="866" d="M117 1065q0 78 27.5 147.5t77.5 121.5t119 83t151 31q78 0 131 -28.5t53 -67.5q0 -23 -15.5 -51.5t-44.5 -28.5q-16 0 -33.5 9t-40 21.5t-50 21.5t-64.5 9q-84 0 -134 -62.5t-50 -158.5q0 -94 36.5 -147.5t100.5 -53.5q43 0 70.5 26t47 62.5t34 78.5t32.5 77 q20 43 48 56.5t57 13.5t46 -34t17 -110v-217q0 -41 -17.5 -57t-45.5 -16q-25 0 -44.5 18t-19.5 55v133q0 27 -14 27q-12 0 -19 -31q-18 -43 -39.5 -79.5t-48 -63.5t-61.5 -42t-80 -15q-104 0 -165.5 76.5t-61.5 195.5z" />
<glyph unicode="&#xab;" horiz-adv-x="1107" d="M82 469q0 20 8 48t39 56q33 31 82 69t103.5 76t107.5 71t96 51q10 4 18.5 7t18.5 3q25 0 36 -19.5t11 -37.5q0 -16 -7 -32t-24 -26q-92 -49 -168.5 -95t-166.5 -116q-16 -12 -17 -26q0 -12 12 -25q20 -23 56.5 -49.5t79.5 -56t90 -57t94 -52.5q23 -10 33 -25.5t10 -42.5 q0 -25 -16.5 -52t-51.5 -27q-14 0 -30 8q-39 18 -88.5 47t-98.5 63.5t-94 70.5t-78 67q-35 31 -45 56.5t-10 45.5zM553 481q0 18 8 45t37 56q31 29 80 66.5t103.5 74.5t107.5 69t94 50l17.5 7t17.5 3q25 0 35 -18.5t10 -36.5q0 -16 -6 -30.5t-23 -25.5q-90 -47 -168 -93 t-166 -113q-16 -12 -16 -27q0 -14 12 -23q23 -18 60 -45.5t80 -57.5t91 -59.5t91 -52.5q23 -10 32 -24.5t9 -40.5q0 -23 -15.5 -49.5t-48.5 -26.5q-14 0 -30 8q-37 16 -86.5 46t-99.5 64t-96 69.5t-77 66.5q-33 29 -43 53.5t-10 44.5z" />
<glyph unicode="&#xac;" horiz-adv-x="1064" d="M147 760q0 31 16 57.5t73 30.5q45 4 111.5 6t140 3t149.5 1h143q49 0 81 -11t32 -46q0 -37 -3 -91.5t-8 -107.5t-10.5 -99t-7.5 -67q-4 -41 -20.5 -62.5t-63.5 -21.5q-16 0 -31.5 14.5t-15.5 36.5v60t1 79t2 86t1 85q-35 0 -99.5 -1t-132 -3t-125.5 -3t-81 -1 q-90 0 -121 10t-31 45z" />
<glyph unicode="&#xad;" horiz-adv-x="835" d="M111 518q0 35 19.5 51.5t49.5 20.5q102 14 208 18t218 4q70 0 94.5 -14t24.5 -45q0 -39 -21.5 -70.5t-62.5 -31.5q-31 0 -86 1t-122.5 3t-138.5 3t-130 1q-25 0 -39 17.5t-14 41.5z" />
<glyph unicode="&#xae;" horiz-adv-x="968" d="M61 1004q0 94 36 182t97.5 155.5t145.5 108.5t180 41q84 0 154.5 -30.5t123 -84t81 -126t28.5 -156.5q0 -92 -35.5 -180.5t-97 -156t-145.5 -108.5t-180 -41q-84 0 -155 31t-122 85t-81 126t-30 154zM168 1057q0 -68 19.5 -131.5t59.5 -113.5t101.5 -81t145.5 -31 q53 0 107 25t99 70t73 107.5t28 137.5q0 68 -19.5 131.5t-59.5 114.5t-101.5 82t-145.5 31q-55 0 -110.5 -25.5t-99.5 -71t-70.5 -107.5t-26.5 -138zM291 995q0 135 62.5 219t160.5 84q51 0 95 -31.5t44 -97.5q0 -55 -26.5 -86.5t-75.5 -48.5q-20 -6 -21 -12q0 -8 13 -21 q23 -25 53.5 -45t73.5 -36q16 -4 21 -13.5t5 -17.5q0 -20 -12 -33.5t-35 -13.5q-31 0 -65.5 17.5t-67.5 47.5q-29 29 -54.5 63t-25.5 58q0 20 14.5 28.5t36.5 12.5q12 2 25.5 6t25 12.5t18.5 23.5t7 42q0 31 -21.5 46t-47.5 15q-55 0 -87 -45t-32 -116q0 -31 6 -59.5 t14 -59.5q2 -6 4 -12.5t2 -14.5q0 -20 -20.5 -31.5t-36.5 -11.5q-37 0 -43 33q-4 29 -7 53.5t-3 44.5z" />
<glyph unicode="&#xb0;" horiz-adv-x="747" d="M82 965q0 68 25.5 131t68.5 111t102.5 77t127.5 29q57 0 104 -22.5t82 -62.5t54.5 -92.5t19.5 -111.5q0 -68 -25 -130.5t-68 -110.5t-101 -76.5t-126 -28.5q-55 0 -104 22.5t-84 62.5t-55.5 91t-20.5 111zM207 1022q0 -94 49 -159.5t139 -65.5q59 0 100.5 46t41.5 124 q0 98 -45.5 163.5t-126.5 65.5q-70 0 -114 -46t-44 -128z" />
<glyph unicode="&#xb1;" horiz-adv-x="1064" d="M125 754q0 35 19.5 50t66.5 23q49 8 120 8.5t161 4.5q0 102 -1 162.5t-1 103.5q0 98 78 98q51 0 51 -53v-307q51 2 106.5 3t102.5 1q90 0 120.5 -12t30.5 -47q0 -31 -18.5 -62t-75.5 -31q-47 0 -117.5 2t-152.5 0q0 -39 -1 -88t-3 -97t-5.5 -87t-9.5 -55q-16 -51 -67 -51 q-49 0 -49 55q0 25 1 62.5t2 80.5t2 89t3 87h-293q-45 0 -57.5 18.5t-12.5 41.5zM160 110q0 31 18.5 54.5t75.5 27.5q61 4 147 8.5t169 7.5t151 5t90 2q88 0 119 -12.5t31 -46.5q0 -31 -18.5 -64t-74.5 -33q-135 0 -280.5 -3t-294.5 -3q-45 0 -71.5 5t-40 12.5t-17.5 17.5 t-4 22z" />
<glyph unicode="&#xb2;" horiz-adv-x="737" d="M123 711q0 59 48 108t138 109q27 18 53.5 36.5t48 39t35 43t13.5 51.5q0 41 -26.5 68.5t-88.5 27.5q-29 0 -52.5 -8t-43 -17.5t-35.5 -16.5t-31 -7q-35 0 -46 19.5t-11 35.5q0 20 12.5 40t48.5 36q35 16 86.5 27.5t106.5 11.5q86 0 146.5 -48t60.5 -134q0 -47 -17.5 -84 t-46 -69t-63.5 -58.5t-68 -49.5q-70 -43 -97.5 -63.5t-27.5 -42.5q0 -12 11.5 -30.5t58.5 -18.5q49 0 97 7t95 24q12 4 24.5 9t27.5 5q23 0 37 -18.5t14 -43.5q0 -33 -35 -54t-85 -33.5t-104.5 -16.5t-93.5 -4q-104 0 -147 32.5t-43 86.5z" />
<glyph unicode="&#xb3;" horiz-adv-x="737" d="M98 651q0 23 12.5 43.5t45.5 20.5q12 0 23 -5t28 -12q23 -10 53.5 -17t77.5 -7q29 0 56.5 5t50 19.5t37 36t14.5 56.5q0 29 -12.5 48t-32 31.5t-42 18.5t-42.5 8q-59 4 -81 11t-22 40t18.5 40t53.5 11q72 10 101.5 35t29.5 72q0 45 -34 68.5t-91 23.5q-33 0 -62.5 -7 t-50.5 -17q-16 -6 -29.5 -14.5t-29.5 -8.5q-18 0 -34.5 14.5t-16.5 40.5q0 20 8 31.5t29 26.5q35 23 92 37t117 14q98 0 160.5 -47t62.5 -121q0 -47 -18.5 -87t-67.5 -69q-14 -8 -11 -16t15 -14q51 -23 79.5 -64t28.5 -104q0 -102 -78.5 -166t-236.5 -64q-53 0 -91 8.5 t-63 18.5q-47 23 -47 61z" />
<glyph unicode="&#xb4;" horiz-adv-x="1024" d="M301 1104q0 16 7.5 28.5t23.5 32.5t46 55t63.5 72t68.5 71t59 52q29 23 44.5 30t33.5 7q27 0 51.5 -22.5t24.5 -51.5q0 -18 -12.5 -33.5t-53.5 -46.5q-12 -8 -43.5 -34.5t-70.5 -57t-74 -60.5t-53 -44q-25 -23 -39.5 -31t-30.5 -8t-30.5 11t-14.5 30z" />
<glyph unicode="&#xb5;" horiz-adv-x="1011" d="M125 399q0 37 1 82t4 91t8 90.5t14 76.5q14 51 34.5 68.5t55.5 17.5t47 -20.5t12 -50.5q0 -61 -9 -150.5t-9 -169.5q0 -61 5 -106t20.5 -76t45 -46.5t78.5 -15.5q59 0 98 31t67 85t46.5 126t36.5 152q10 47 18.5 86t20.5 66.5t30.5 43t49.5 15.5q55 0 70.5 -54.5 t15.5 -177.5v-422q0 -51 -16.5 -72.5t-53.5 -21.5q-80 0 -80 94v152q0 51 -3 67.5t-13 16.5q-12 0 -20.5 -23.5t-22.5 -64.5q-14 -43 -38 -90t-58.5 -85t-84.5 -63.5t-118 -25.5q-27 0 -48.5 5t-41.5 15q4 -92 17 -217t42 -248q4 -14 6 -23.5t2 -23.5q-2 -37 -27.5 -54.5 t-60.5 -17.5q-29 0 -46 13.5t-27.5 35t-15.5 46t-7 49.5q-10 74 -18.5 166t-14.5 195.5t-9 214t-3 218.5z" />
<glyph unicode="&#xb6;" horiz-adv-x="1212" d="M88 1024q0 74 27.5 146.5t94 129t175.5 92t270 35.5q33 0 68 -1t61 -5q23 -4 30 -12t7 -25q0 -20 -6 -45q-47 -205 -71.5 -431t-24.5 -476q0 -23 1 -56.5t2 -73.5t2 -82t3 -81q2 -59 4 -103t2 -63q0 -20 -3 -43.5t-12 -43t-28.5 -32t-50.5 -12.5q-27 0 -42 21.5t-22.5 69 t-9.5 120t-2 176.5q0 51 1 126t4 156t5.5 159t6.5 135q-16 -4 -42 -8t-53.5 -7.5t-54.5 -5.5t-45 -2q-43 0 -94 10.5t-96 37t-76 73.5t-31 121zM866 436q0 137 6.5 272.5t20.5 256t33.5 219t48.5 164.5q37 86 88 86q29 0 29 -29q0 -12 -7.5 -28.5t-15.5 -49.5 q-23 -94 -37 -181t-23.5 -178t-13.5 -190.5t-4 -218.5q0 -20 1 -53t2 -71t2 -78t3 -76q2 -55 7.5 -100.5t5.5 -61.5q0 -45 -9.5 -76t-56.5 -31q-20 0 -35.5 19.5t-24.5 69t-14.5 131t-5.5 204.5z" />
<glyph unicode="&#xb7;" horiz-adv-x="512" d="M133 735q0 55 37 98.5t96 43.5t86 -40t27 -81q0 -57 -41 -99.5t-96 -42.5q-53 0 -81 38t-28 83z" />
<glyph unicode="&#xb8;" horiz-adv-x="1024" d="M369 -356q0 8 4 19t20 18q16 6 38 10t40 12t31.5 23.5t13.5 44.5q0 25 -9 41t-20.5 30.5t-20.5 31.5t-9 46t9 50.5t26 37.5h81q-12 -19 -12 -39q0 -31 14.5 -48t32 -35.5t31.5 -41t14 -61.5q0 -43 -19.5 -78t-51 -59.5t-70.5 -36.5t-78 -12q-23 0 -44 9t-21 38z" />
<glyph unicode="&#xb9;" horiz-adv-x="737" d="M184 1133q0 16 7.5 30.5t31.5 28.5l146 80q14 8 31.5 16t37.5 8q37 0 47.5 -18t10.5 -51v-209q0 -33 -1 -78t-3.5 -94t-4.5 -94t-4 -78q-2 -70 -65 -70q-29 0 -45.5 12.5t-16.5 45.5q0 16 2 56t5.5 91t6.5 107.5t3 105.5v125q-70 -39 -98.5 -50.5t-43.5 -11.5 q-18 0 -32.5 11.5t-14.5 36.5z" />
<glyph unicode="&#xba;" horiz-adv-x="825" d="M102 1087q0 74 27 141.5t74 119t108.5 82t132.5 30.5q61 0 112.5 -24.5t88.5 -66.5t57.5 -99t20.5 -123q0 -74 -25.5 -141.5t-71.5 -117.5t-107.5 -81t-133.5 -31q-61 0 -112.5 24.5t-89.5 66.5t-59.5 98.5t-21.5 121.5zM229 1145q0 -51 14.5 -95t41 -78t64.5 -53.5 t85 -19.5q66 0 112 52.5t46 138.5q0 106 -50 177.5t-139 71.5q-76 0 -125 -52t-49 -142z" />
<glyph unicode="&#xbb;" horiz-adv-x="1107" d="M45 166q0 16 6 30.5t23 24.5q90 47 169 92t165 115q16 12 16 27q0 14 -12 22q-23 18 -60 46t-80 57.5t-91 59.5t-91 52q-23 10 -32 24.5t-9 41.5q0 23 15.5 49.5t48.5 26.5q14 0 30 -9q37 -16 86.5 -45.5t99.5 -63.5t96 -70t77 -66q33 -29 43 -53.5t10 -45.5 q0 -18 -8 -44.5t-37 -55.5q-31 -29 -80 -67t-103.5 -74.5t-107.5 -68.5t-94 -50l-17.5 -7t-17.5 -3q-25 0 -35 18t-10 37zM506 170q0 16 7 31.5t24 25.5q45 25 87 47.5t81.5 47t80.5 53t86 63.5q16 12 17 27q0 12 -12 24q-20 20 -56.5 48t-79.5 58t-91 57.5t-93 52.5 q-43 20 -43 67q0 25 16.5 52.5t51.5 27.5q14 0 30 -8q39 -18 87.5 -47t97.5 -64t95 -70.5t79 -66.5q35 -31 45 -56.5t10 -45.5t-8 -48t-39 -57q-33 -31 -82 -68.5t-103.5 -75.5t-107.5 -71t-96 -51q-10 -4 -18.5 -7t-18.5 -3q-25 0 -36 19.5t-11 37.5z" />
<glyph unicode="&#xbc;" horiz-adv-x="1806" d="M184 1133q0 16 7.5 30.5t31.5 28.5l146 80q14 8 31.5 16t37.5 8q37 0 47.5 -18t10.5 -51v-209q0 -33 -1 -78t-3.5 -94t-4.5 -94t-4 -78q-2 -70 -65 -70q-29 0 -45.5 12.5t-16.5 45.5q0 16 2 56t5.5 91t6.5 107.5t3 105.5v125q-70 -39 -98.5 -50.5t-43.5 -11.5 q-18 0 -32.5 11.5t-14.5 36.5zM377 23q0 6 4 17t15 26q125 150 240.5 305t216 311t183.5 309.5t144 298.5q18 45 59 45q23 0 40.5 -14t17.5 -43q0 -27 -19 -72q-29 -74 -87 -181t-132 -229t-156.5 -248t-159.5 -235.5t-141.5 -192.5t-103.5 -120q-23 -20 -37.5 -26.5 t-28.5 -6.5q-25 0 -40 14.5t-15 41.5zM1168 270q0 16 6 41q12 41 35.5 89t54.5 96.5t66.5 93.5t70.5 82q31 31 58.5 56t62.5 25q29 0 40 -15t11 -38q0 -20 -14 -37.5t-35 -33.5q-61 -51 -123.5 -119t-93.5 -133q-18 -37 -18 -62q0 -16 17 -25.5t58 -9.5q43 0 85 3t77 12v24 q0 29 -1 55.5t5 46t21.5 31t50.5 11.5q20 0 35.5 -11.5t15.5 -40.5q0 -37 -2 -74.5t-2 -80.5q0 -49 3 -97.5t3 -101.5q0 -59 -65 -59q-37 0 -46.5 20.5t-13.5 59.5q-2 16 -2 35.5v70.5q-41 -10 -90 -13t-84 -3q-86 0 -136 16t-50 86z" />
<glyph unicode="&#xbd;" horiz-adv-x="1765" d="M184 1133q0 16 7.5 30.5t31.5 28.5l146 80q14 8 31.5 16t37.5 8q37 0 47.5 -18t10.5 -51v-209q0 -33 -1 -78t-3.5 -94t-4.5 -94t-4 -78q-2 -70 -65 -70q-29 0 -45.5 12.5t-16.5 45.5q0 16 2 56t5.5 91t6.5 107.5t3 105.5v125q-70 -39 -98.5 -50.5t-43.5 -11.5 q-18 0 -32.5 11.5t-14.5 36.5zM297 23q0 6 4 17t15 26q125 150 240.5 305t216 311t183.5 309.5t144 298.5q18 45 59 45q23 0 40.5 -14t17.5 -43q0 -27 -19 -72q-29 -74 -87 -181t-132 -229t-156.5 -248t-159.5 -235.5t-141.5 -192.5t-103.5 -120q-23 -20 -37.5 -26.5 t-28.5 -6.5q-25 0 -40 14.5t-15 41.5zM1151 123q0 59 48 108t138 109q27 18 53.5 36.5t48 39t35 43t13.5 51.5q0 41 -26.5 68.5t-88.5 27.5q-29 0 -52.5 -8t-43 -17.5t-35.5 -16.5t-31 -7q-35 0 -46 19.5t-11 35.5q0 20 12.5 40t48.5 36q35 16 86.5 27.5t106.5 11.5 q86 0 146.5 -48t60.5 -134q0 -47 -17.5 -84t-46 -69t-63.5 -58.5t-68 -49.5q-70 -43 -97.5 -63.5t-27.5 -42.5q0 -12 11.5 -30.5t58.5 -18.5q49 0 97 7t95 24q12 4 24.5 9t27.5 5q23 0 37 -18.5t14 -43.5q0 -33 -35 -54t-85 -33.5t-104.5 -16.5t-93.5 -4q-104 0 -147 32.5 t-43 86.5z" />
<glyph unicode="&#xbe;" horiz-adv-x="1806" d="M98 651q0 23 12.5 43.5t45.5 20.5q12 0 23 -5t28 -12q23 -10 53.5 -17t77.5 -7q29 0 56.5 5t50 19.5t37 36t14.5 56.5q0 29 -12.5 48t-32 31.5t-42 18.5t-42.5 8q-59 4 -81 11t-22 40t18.5 40t53.5 11q72 10 101.5 35t29.5 72q0 45 -34 68.5t-91 23.5q-33 0 -62.5 -7 t-50.5 -17q-16 -6 -29.5 -14.5t-29.5 -8.5q-18 0 -34.5 14.5t-16.5 40.5q0 20 8 31.5t29 26.5q35 23 92 37t117 14q98 0 160.5 -47t62.5 -121q0 -47 -18.5 -87t-67.5 -69q-14 -8 -11 -16t15 -14q51 -23 79.5 -64t28.5 -104q0 -102 -78.5 -166t-236.5 -64q-53 0 -91 8.5 t-63 18.5q-47 23 -47 61zM395 23q0 6 4 17t15 26q125 150 240.5 305t216 311t183.5 309.5t144 298.5q18 45 59 45q23 0 40.5 -14t17.5 -43q0 -27 -19 -72q-29 -74 -87 -181t-132 -229t-156.5 -248t-159.5 -235.5t-141.5 -192.5t-103.5 -120q-23 -20 -37.5 -26.5t-28.5 -6.5 q-25 0 -40 14.5t-15 41.5zM1168 270q0 16 6 41q12 41 35.5 89t54.5 96.5t66.5 93.5t70.5 82q31 31 58.5 56t62.5 25q29 0 40 -15t11 -38q0 -20 -14 -37.5t-35 -33.5q-61 -51 -123.5 -119t-93.5 -133q-18 -37 -18 -62q0 -16 17 -25.5t58 -9.5q43 0 85 3t77 12v24 q0 29 -1 55.5t5 46t21.5 31t50.5 11.5q20 0 35.5 -11.5t15.5 -40.5q0 -37 -2 -74.5t-2 -80.5q0 -49 3 -97.5t3 -101.5q0 -59 -65 -59q-37 0 -46.5 20.5t-13.5 59.5q-2 16 -2 35.5v70.5q-41 -10 -90 -13t-84 -3q-86 0 -136 16t-50 86z" />
<glyph unicode="&#xbf;" horiz-adv-x="880" d="M47 -207q0 63 18.5 112.5t48 86.5t66.5 63t76 49t75 46.5t63.5 51t43 64.5t15.5 86q0 31 -4.5 56.5t-4.5 42.5q0 39 28 50t44 11q41 0 58.5 -39t17.5 -104q0 -61 -12.5 -107.5t-37 -83.5t-61.5 -67.5t-86 -61.5q-51 -31 -87 -55.5t-59.5 -51t-33.5 -58t-10 -79.5 q0 -86 54 -133t177 -47q72 0 143.5 22.5t137.5 53.5q29 14 57 14q35 0 55.5 -24.5t20.5 -63.5q0 -33 -17.5 -53t-58.5 -39q-47 -23 -137 -48.5t-197 -25.5q-86 0 -158.5 21.5t-125 64.5t-81 104.5t-28.5 141.5zM373 803q0 53 38 93t91 40t78.5 -37t25.5 -80q0 -53 -35.5 -93 t-91.5 -40q-55 0 -80.5 38t-25.5 79z" />
<glyph unicode="&#xc0;" horiz-adv-x="1239" d="M57 70v19t4 48q6 61 22.5 153.5t41.5 201t56.5 226.5t70.5 230q35 102 77 192.5t91 158t105.5 107.5t121.5 40q80 0 146.5 -58.5t120 -156.5t94.5 -224t70.5 -263.5t51 -273.5t35.5 -253q2 -14 3 -29.5t1 -27.5q0 -33 -14 -69t-65 -36t-67.5 40t-21.5 104 q-4 47 -12 108.5t-18 130.5q-49 6 -103.5 11.5t-107.5 8.5t-101.5 5t-85.5 2q-63 0 -96 -3t-61 -3q-29 0 -48.5 14t-19.5 45q0 49 31.5 71.5t66.5 22.5q117 0 249 -8t253 -29q-16 100 -38.5 199.5t-51.5 186.5q-53 168 -110.5 238.5t-124.5 70.5q-72 0 -127.5 -79 t-116.5 -257q-49 -139 -81 -278.5t-52.5 -254t-29.5 -192.5t-11 -94q-6 -47 -20.5 -82t-65.5 -35q-61 0 -62 72zM342 1798q0 45 24.5 66.5t58.5 21.5q33 0 56.5 -9t58.5 -30q37 -20 82 -47.5t89 -57.5t84 -57.5t67 -50.5q18 -16 24 -26.5t6 -24.5q0 -20 -15 -34.5t-32 -14.5 q-23 0 -35 5t-22 11q-82 45 -185.5 89t-211.5 92q-49 20 -49 67z" />
<glyph unicode="&#xc1;" horiz-adv-x="1239" d="M57 70v19t4 48q6 61 22.5 153.5t41.5 201t56.5 226.5t70.5 230q35 102 77 192.5t91 158t105.5 107.5t121.5 40q80 0 146.5 -58.5t120 -156.5t94.5 -224t70.5 -263.5t51 -273.5t35.5 -253q2 -14 3 -29.5t1 -27.5q0 -33 -14 -69t-65 -36t-67.5 40t-21.5 104 q-4 47 -12 108.5t-18 130.5q-49 6 -103.5 11.5t-107.5 8.5t-101.5 5t-85.5 2q-63 0 -96 -3t-61 -3q-29 0 -48.5 14t-19.5 45q0 49 31.5 71.5t66.5 22.5q117 0 249 -8t253 -29q-16 100 -38.5 199.5t-51.5 186.5q-53 168 -110.5 238.5t-124.5 70.5q-72 0 -127.5 -79 t-116.5 -257q-49 -139 -81 -278.5t-52.5 -254t-29.5 -192.5t-11 -94q-6 -47 -20.5 -82t-65.5 -35q-61 0 -62 72zM441 1583q0 14 6 24.5t24 26.5q27 23 68 51.5t86 58.5t91 58.5t83 48.5q35 20 58.5 29.5t56.5 9.5q35 0 59.5 -21.5t24.5 -66.5q0 -47 -50 -67 q-109 -47 -215 -93.5t-188 -91.5q-10 -6 -22.5 -11t-34.5 -5q-16 0 -31.5 14.5t-15.5 34.5z" />
<glyph unicode="&#xc2;" horiz-adv-x="1239" d="M57 70v19t4 48q6 61 22.5 153.5t41.5 201t56.5 226.5t70.5 230q35 102 77 192.5t91 158t105.5 107.5t121.5 40q80 0 146.5 -58.5t120 -156.5t94.5 -224t70.5 -263.5t51 -273.5t35.5 -253q2 -14 3 -29.5t1 -27.5q0 -33 -14 -69t-65 -36t-67.5 40t-21.5 104 q-4 47 -12 108.5t-18 130.5q-49 6 -103.5 11.5t-107.5 8.5t-101.5 5t-85.5 2q-63 0 -96 -3t-61 -3q-29 0 -48.5 14t-19.5 45q0 49 31.5 71.5t66.5 22.5q117 0 249 -8t253 -29q-16 100 -38.5 199.5t-51.5 186.5q-53 168 -110.5 238.5t-124.5 70.5q-72 0 -127.5 -79 t-116.5 -257q-49 -139 -81 -278.5t-52.5 -254t-29.5 -192.5t-11 -94q-6 -47 -20.5 -82t-65.5 -35q-61 0 -62 72zM345 1565q0 20 16 43q49 68 111.5 131.5t119.5 116.5q16 16 36 28.5t42 12.5q23 0 44.5 -12.5t37.5 -28.5q57 -53 110.5 -110.5t102.5 -125.5q16 -23 16 -43 q0 -23 -16 -34t-33 -11q-18 0 -30.5 7.5t-20.5 15.5q-29 27 -50.5 45t-42 34.5t-39.5 32t-44 33.5t-42 19.5t-46 -19.5q-49 -39 -89 -71.5t-95 -85.5q-8 -8 -18.5 -15.5t-24.5 -7.5q-16 0 -30.5 11.5t-14.5 33.5z" />
<glyph unicode="&#xc3;" horiz-adv-x="1239" d="M57 70v19t4 48q6 61 22.5 153.5t41.5 201t56.5 226.5t70.5 230q35 102 77 192.5t91 158t105.5 107.5t121.5 40q80 0 146.5 -58.5t120 -156.5t94.5 -224t70.5 -263.5t51 -273.5t35.5 -253q2 -14 3 -29.5t1 -27.5q0 -33 -14 -69t-65 -36t-67.5 40t-21.5 104 q-4 47 -12 108.5t-18 130.5q-49 6 -103.5 11.5t-107.5 8.5t-101.5 5t-85.5 2q-63 0 -96 -3t-61 -3q-29 0 -48.5 14t-19.5 45q0 49 31.5 71.5t66.5 22.5q117 0 249 -8t253 -29q-16 100 -38.5 199.5t-51.5 186.5q-53 168 -110.5 238.5t-124.5 70.5q-72 0 -127.5 -79 t-116.5 -257q-49 -139 -81 -278.5t-52.5 -254t-29.5 -192.5t-11 -94q-6 -47 -20.5 -82t-65.5 -35q-61 0 -62 72zM272 1620q0 39 17.5 79t47.5 70.5t68.5 50t79.5 19.5q49 0 91 -15.5t82 -35t80 -34.5t87 -15t70.5 20.5t48.5 77.5q12 29 47 29q41 0 41 -58q0 -41 -18.5 -79.5 t-48 -70.5t-68.5 -51.5t-80 -19.5q-55 0 -97 16.5t-79 35t-75 35t-87 16.5q-47 0 -70.5 -20.5t-48.5 -78.5q-12 -29 -45 -28q-43 0 -43 57z" />
<glyph unicode="&#xc4;" horiz-adv-x="1239" d="M57 70v19t4 48q6 61 22.5 153.5t41.5 201t56.5 226.5t70.5 230q35 102 77 192.5t91 158t105.5 107.5t121.5 40q80 0 146.5 -58.5t120 -156.5t94.5 -224t70.5 -263.5t51 -273.5t35.5 -253q2 -14 3 -29.5t1 -27.5q0 -33 -14 -69t-65 -36t-67.5 40t-21.5 104 q-4 47 -12 108.5t-18 130.5q-49 6 -103.5 11.5t-107.5 8.5t-101.5 5t-85.5 2q-63 0 -96 -3t-61 -3q-29 0 -48.5 14t-19.5 45q0 49 31.5 71.5t66.5 22.5q117 0 249 -8t253 -29q-16 100 -38.5 199.5t-51.5 186.5q-53 168 -110.5 238.5t-124.5 70.5q-72 0 -127.5 -79 t-116.5 -257q-49 -139 -81 -278.5t-52.5 -254t-29.5 -192.5t-11 -94q-6 -47 -20.5 -82t-65.5 -35q-61 0 -62 72zM360 1688q0 43 32 82.5t85 39.5q41 0 72.5 -30.5t31.5 -75.5q0 -20 -9 -41t-24.5 -38t-36.5 -27.5t-44 -10.5q-51 0 -79 30t-28 71zM727 1690q0 43 31.5 84 t84.5 41q43 0 76 -31t33 -78q0 -43 -35 -81t-84 -38q-51 0 -78.5 30t-27.5 73z" />
<glyph unicode="&#xc5;" horiz-adv-x="1239" d="M57 70v19t4 48q6 61 22.5 153.5t41.5 201t56.5 226.5t70.5 230q35 102 77 192.5t91 158t105.5 107.5t121.5 40q80 0 146.5 -58.5t120 -156.5t94.5 -224t70.5 -263.5t51 -273.5t35.5 -253q2 -14 3 -29.5t1 -27.5q0 -33 -14 -69t-65 -36t-67.5 40t-21.5 104 q-4 47 -12 108.5t-18 130.5q-49 6 -103.5 11.5t-107.5 8.5t-101.5 5t-85.5 2q-63 0 -96 -3t-61 -3q-29 0 -48.5 14t-19.5 45q0 49 31.5 71.5t66.5 22.5q117 0 249 -8t253 -29q-16 100 -38.5 199.5t-51.5 186.5q-53 168 -110.5 238.5t-124.5 70.5q-72 0 -127.5 -79 t-116.5 -257q-49 -139 -81 -278.5t-52.5 -254t-29.5 -192.5t-11 -94q-6 -47 -20.5 -82t-65.5 -35q-61 0 -62 72zM426 1722q0 49 18.5 96.5t51 82t76.5 56t95 21.5q86 0 142.5 -57t56.5 -143q0 -49 -18.5 -96.5t-51 -82t-77 -56t-95.5 -21.5q-86 0 -142 57t-56 143zM534 1759 q0 -23 7.5 -46t21.5 -42.5t36.5 -32t53.5 -12.5q37 0 71 33t34 82q0 45 -30 89t-91 44q-37 0 -70 -33t-33 -82z" />
<glyph unicode="&#xc6;" horiz-adv-x="1998" d="M57 70v19t4 48q6 61 22.5 153.5t41.5 201t56.5 226.5t70.5 230q35 102 77 192.5t91 158t105.5 107.5t121.5 40q92 0 165 -77t130 -199.5t98 -277.5t70 -310q33 25 61.5 42t57 31.5t60.5 27.5t69 28q20 8 20 16q0 10 -18 16q-53 18 -102.5 41t-87 60t-61.5 90t-24 133 q0 90 35 161.5t97.5 122t147.5 77t187 26.5q57 0 127 -10t128.5 -30.5t98.5 -53.5t40 -78q0 -39 -25 -64.5t-45 -25.5q-29 0 -66 22q-31 18 -62.5 35t-69.5 29t-83 20.5t-104 8.5q-55 0 -105.5 -14.5t-87 -43t-58 -70.5t-21.5 -98q0 -74 29.5 -116.5t86 -67.5t141.5 -36 t195 -23q59 -6 60 -74q0 -78 -78 -90q-72 -12 -159 -30.5t-162 -51.5t-125 -85t-50 -134q0 -106 77 -162.5t236 -56.5q86 0 149.5 14t113 37.5t86 54.5t67.5 66q33 35 58 34q27 0 39 -19t12 -40q0 -29 -24.5 -65.5t-65.5 -73.5q-80 -72 -205 -122t-273 -50q-197 0 -308 85 t-134 259l-14 104q-49 6 -103.5 11.5t-107.5 8.5t-101.5 5t-85.5 2q-63 0 -96 -3t-61 -3q-29 0 -48.5 14t-19.5 45q0 49 31.5 71.5t66.5 22.5q117 0 249 -8t253 -29q-16 100 -38.5 199.5t-51.5 186.5q-53 168 -110.5 238.5t-124.5 70.5q-72 0 -127.5 -79t-116.5 -257 q-49 -139 -81 -278.5t-52.5 -254t-29.5 -192.5t-11 -94q-6 -47 -20.5 -82t-65.5 -35q-61 0 -62 72z" />
<glyph unicode="&#xc7;" horiz-adv-x="1265" d="M123 623q0 180 55 329.5t149.5 257t220.5 167t267 59.5q66 0 132.5 -12.5t115.5 -39.5q74 -41 74 -92q0 -45 -28 -73.5t-60 -28.5q-23 0 -52 18q-47 27 -101 48.5t-144 21.5q-106 0 -194.5 -41t-152 -117t-98.5 -183.5t-35 -240.5q0 -104 25 -202.5t80 -175t143 -122.5 t215 -46q84 0 144.5 16t105.5 43t77 57.5t60 61.5q31 33 56 32q27 0 39 -19t12 -40q0 -29 -23.5 -64.5t-64.5 -74.5q-152 -141 -363 -170q-2 -4 -2 -9.5v-9.5q0 -31 14.5 -50t33 -37.5t32.5 -43t14 -65.5q0 -47 -21.5 -84t-56 -62.5t-76.5 -39t-83 -13.5q-23 0 -45.5 11.5 t-22.5 39.5q0 10 5 21.5t22 19.5q18 6 39.5 10.5t40 12.5t31 23.5t12.5 45.5q0 27 -9.5 43.5t-20.5 32t-20.5 33.5t-9.5 49q0 39 13 64q-147 2 -252 56t-169.5 143t-94 204t-29.5 236z" />
<glyph unicode="&#xc8;" horiz-adv-x="1083" d="M76 344q0 84 30.5 143.5t80 100.5t112 69.5t125.5 53.5q20 8 20 16q0 10 -18 16q-53 18 -103.5 41t-90 60t-64.5 90t-25 133q0 90 35 161.5t97.5 122t149.5 77t193 26.5q57 0 128 -10t132.5 -30.5t103.5 -53.5t42 -78q0 -39 -24.5 -64.5t-45.5 -25.5q-29 0 -65 22 q-63 35 -138 64t-194 29q-123 0 -202 -57.5t-79 -168.5q0 -74 31 -116.5t89.5 -67.5t144.5 -36t196 -23q59 -6 60 -74q0 -78 -78 -90q-72 -12 -156 -30.5t-154.5 -51.5t-117.5 -85t-47 -134q0 -106 76.5 -162.5t236.5 -56.5q86 0 149.5 14t112.5 37.5t86 54.5t68 66 q33 35 57 34q27 0 39 -19t12 -40q0 -29 -24.5 -65.5t-65.5 -73.5q-80 -72 -204.5 -122t-272.5 -50q-96 0 -176 23.5t-138.5 68.5t-91 111.5t-32.5 150.5zM318 1798q0 45 24.5 66.5t58.5 21.5q33 0 56.5 -9t58.5 -30q37 -20 82 -47.5t89 -57.5t84 -57.5t67 -50.5 q18 -16 24 -26.5t6 -24.5q0 -20 -15 -34.5t-32 -14.5q-23 0 -35 5t-22 11q-82 45 -185.5 89t-211.5 92q-49 20 -49 67z" />
<glyph unicode="&#xc9;" horiz-adv-x="1083" d="M76 344q0 84 30.5 143.5t80 100.5t112 69.5t125.5 53.5q20 8 20 16q0 10 -18 16q-53 18 -103.5 41t-90 60t-64.5 90t-25 133q0 90 35 161.5t97.5 122t149.5 77t193 26.5q57 0 128 -10t132.5 -30.5t103.5 -53.5t42 -78q0 -39 -24.5 -64.5t-45.5 -25.5q-29 0 -65 22 q-63 35 -138 64t-194 29q-123 0 -202 -57.5t-79 -168.5q0 -74 31 -116.5t89.5 -67.5t144.5 -36t196 -23q59 -6 60 -74q0 -78 -78 -90q-72 -12 -156 -30.5t-154.5 -51.5t-117.5 -85t-47 -134q0 -106 76.5 -162.5t236.5 -56.5q86 0 149.5 14t112.5 37.5t86 54.5t68 66 q33 35 57 34q27 0 39 -19t12 -40q0 -29 -24.5 -65.5t-65.5 -73.5q-80 -72 -204.5 -122t-272.5 -50q-96 0 -176 23.5t-138.5 68.5t-91 111.5t-32.5 150.5zM363 1583q0 14 6 24.5t24 26.5q27 23 68 51.5t86 58.5t91 58.5t83 48.5q35 20 58.5 29.5t56.5 9.5q35 0 59.5 -21.5 t24.5 -66.5q0 -47 -50 -67q-109 -47 -215 -93.5t-188 -91.5q-10 -6 -22.5 -11t-34.5 -5q-16 0 -31.5 14.5t-15.5 34.5z" />
<glyph unicode="&#xca;" horiz-adv-x="1083" d="M76 344q0 84 30.5 143.5t80 100.5t112 69.5t125.5 53.5q20 8 20 16q0 10 -18 16q-53 18 -103.5 41t-90 60t-64.5 90t-25 133q0 90 35 161.5t97.5 122t149.5 77t193 26.5q57 0 128 -10t132.5 -30.5t103.5 -53.5t42 -78q0 -39 -24.5 -64.5t-45.5 -25.5q-29 0 -65 22 q-63 35 -138 64t-194 29q-123 0 -202 -57.5t-79 -168.5q0 -74 31 -116.5t89.5 -67.5t144.5 -36t196 -23q59 -6 60 -74q0 -78 -78 -90q-72 -12 -156 -30.5t-154.5 -51.5t-117.5 -85t-47 -134q0 -106 76.5 -162.5t236.5 -56.5q86 0 149.5 14t112.5 37.5t86 54.5t68 66 q33 35 57 34q27 0 39 -19t12 -40q0 -29 -24.5 -65.5t-65.5 -73.5q-80 -72 -204.5 -122t-272.5 -50q-96 0 -176 23.5t-138.5 68.5t-91 111.5t-32.5 150.5zM295 1583q0 20 16 43q49 68 111.5 131.5t119.5 116.5q16 16 36 28.5t42 12.5q23 0 44.5 -12.5t37.5 -28.5 q57 -53 110.5 -110.5t102.5 -125.5q16 -23 16 -43q0 -23 -16 -34t-33 -11q-18 0 -30.5 7.5t-20.5 15.5q-29 27 -50.5 45t-42 34.5t-39.5 32t-44 33.5t-42 19.5t-46 -19.5q-49 -39 -89 -71.5t-95 -85.5q-8 -8 -18.5 -15.5t-24.5 -7.5q-16 0 -30.5 11.5t-14.5 33.5z" />
<glyph unicode="&#xcb;" horiz-adv-x="1083" d="M76 344q0 84 30.5 143.5t80 100.5t112 69.5t125.5 53.5q20 8 20 16q0 10 -18 16q-53 18 -103.5 41t-90 60t-64.5 90t-25 133q0 90 35 161.5t97.5 122t149.5 77t193 26.5q57 0 128 -10t132.5 -30.5t103.5 -53.5t42 -78q0 -39 -24.5 -64.5t-45.5 -25.5q-29 0 -65 22 q-63 35 -138 64t-194 29q-123 0 -202 -57.5t-79 -168.5q0 -74 31 -116.5t89.5 -67.5t144.5 -36t196 -23q59 -6 60 -74q0 -78 -78 -90q-72 -12 -156 -30.5t-154.5 -51.5t-117.5 -85t-47 -134q0 -106 76.5 -162.5t236.5 -56.5q86 0 149.5 14t112.5 37.5t86 54.5t68 66 q33 35 57 34q27 0 39 -19t12 -40q0 -29 -24.5 -65.5t-65.5 -73.5q-80 -72 -204.5 -122t-272.5 -50q-96 0 -176 23.5t-138.5 68.5t-91 111.5t-32.5 150.5zM319 1688q0 43 32 82.5t85 39.5q41 0 72.5 -30.5t31.5 -75.5q0 -20 -9 -41t-24.5 -38t-36.5 -27.5t-44 -10.5 q-51 0 -79 30t-28 71zM686 1690q0 43 31.5 84t84.5 41q43 0 76 -31t33 -78q0 -43 -35 -81t-84 -38q-51 0 -78.5 30t-27.5 73z" />
<glyph unicode="&#xcc;" horiz-adv-x="497" d="M-65 1798q0 45 24.5 66.5t58.5 21.5q33 0 56.5 -9t58.5 -30q37 -20 82 -47.5t89 -57.5t84 -57.5t67 -50.5q18 -16 24 -26.5t6 -24.5q0 -20 -15 -34.5t-32 -14.5q-23 0 -35 5t-22 11q-82 45 -185.5 89t-211.5 92q-49 20 -49 67zM166 592q0 94 4 193.5t12 194.5t19.5 184 t25.5 167q8 39 26.5 66.5t68.5 27.5q63 0 63 -73q0 -23 -8 -59t-19 -115q-8 -66 -15 -126.5t-11 -125t-7 -134t-3 -151.5q0 -63 1 -113.5t3 -95.5t5 -87t7 -89t9 -91t5 -83q0 -23 -16.5 -44.5t-52.5 -21.5q-35 0 -61.5 25t-33.5 80q-10 92 -16 211t-6 260z" />
<glyph unicode="&#xcd;" horiz-adv-x="497" d="M166 592q0 94 4 193.5t12 194.5t19.5 184t25.5 167q8 39 26.5 66.5t68.5 27.5q63 0 63 -73q0 -23 -8 -59t-19 -115q-8 -66 -15 -126.5t-11 -125t-7 -134t-3 -151.5q0 -63 1 -113.5t3 -95.5t5 -87t7 -89t9 -91t5 -83q0 -23 -16.5 -44.5t-52.5 -21.5q-35 0 -61.5 25 t-33.5 80q-10 92 -16 211t-6 260zM207 1583q0 14 6 24.5t24 26.5q27 23 68 51.5t86 58.5t91 58.5t83 48.5q35 20 58.5 29.5t56.5 9.5q35 0 59.5 -21.5t24.5 -66.5q0 -47 -50 -67q-109 -47 -215 -93.5t-188 -91.5q-10 -6 -22.5 -11t-34.5 -5q-16 0 -31.5 14.5t-15.5 34.5z " />
<glyph unicode="&#xce;" horiz-adv-x="497" d="M11 1583q0 20 16 43q49 68 111.5 131.5t119.5 116.5q16 16 36 28.5t42 12.5q23 0 44.5 -12.5t37.5 -28.5q57 -53 110.5 -110.5t102.5 -125.5q16 -23 16 -43q0 -23 -16 -34t-33 -11q-18 0 -30.5 7.5t-20.5 15.5q-29 27 -50.5 45t-42 34.5t-39.5 32t-44 33.5t-42 19.5 t-46 -19.5q-49 -39 -89 -71.5t-95 -85.5q-8 -8 -18.5 -15.5t-24.5 -7.5q-16 0 -30.5 11.5t-14.5 33.5zM166 592q0 94 4 193.5t12 194.5t19.5 184t25.5 167q8 39 26.5 66.5t68.5 27.5q63 0 63 -73q0 -23 -8 -59t-19 -115q-8 -66 -15 -126.5t-11 -125t-7 -134t-3 -151.5 q0 -63 1 -113.5t3 -95.5t5 -87t7 -89t9 -91t5 -83q0 -23 -16.5 -44.5t-52.5 -21.5q-35 0 -61.5 25t-33.5 80q-10 92 -16 211t-6 260z" />
<glyph unicode="&#xcf;" horiz-adv-x="497" d="M41 1688q0 43 32 82.5t85 39.5q41 0 72.5 -30.5t31.5 -75.5q0 -20 -9 -41t-24.5 -38t-36.5 -27.5t-44 -10.5q-51 0 -79 30t-28 71zM166 592q0 94 4 193.5t12 194.5t19.5 184t25.5 167q8 39 26.5 66.5t68.5 27.5q63 0 63 -73q0 -23 -8 -59t-19 -115q-8 -66 -15 -126.5 t-11 -125t-7 -134t-3 -151.5q0 -63 1 -113.5t3 -95.5t5 -87t7 -89t9 -91t5 -83q0 -23 -16.5 -44.5t-52.5 -21.5q-35 0 -61.5 25t-33.5 80q-10 92 -16 211t-6 260zM408 1690q0 43 31.5 84t84.5 41q43 0 76 -31t33 -78q0 -43 -35 -81t-84 -38q-51 0 -78.5 30t-27.5 73z" />
<glyph unicode="&#xd0;" horiz-adv-x="1503" d="M10 672q0 35 19.5 51t50.5 20l125 13l6 94q8 123 32.5 229.5t80 186.5t148.5 126t241 46q147 0 270 -49.5t211 -144.5t137 -232.5t49 -313.5q0 -180 -48 -313t-132 -221t-198.5 -131t-247.5 -43q-115 0 -159 33.5t-44 80.5q0 31 12 61t51 30q23 0 45.5 -6.5t48 -12.5 t56.5 -12t70 -6q88 0 160.5 30.5t124.5 87t82 138.5t30 186q0 182 -46 311t-123 210t-179.5 118t-212.5 37q-158 0 -240 -97.5t-82 -334.5v-82q70 2 137.5 3t122.5 1q70 0 94.5 -14.5t24.5 -44.5q0 -43 -23.5 -73t-64.5 -30q-33 0 -113 1t-172 3q4 -111 16.5 -215t28.5 -205 q4 -31 7.5 -49t3.5 -28q0 -45 -25 -83t-80 -38q-18 0 -40.5 13t-31.5 60q-18 115 -24 243t-6 257v47q-41 2 -76 2h-64q-25 0 -39 17.5t-14 42.5z" />
<glyph unicode="&#xd1;" horiz-adv-x="1441" d="M174 647q0 94 3 192.5t11.5 187.5t21.5 165t34 129q23 59 52.5 84t70.5 25q33 0 57.5 -15.5t44.5 -49.5t39.5 -85t44.5 -123q72 -205 151.5 -391t149.5 -324q39 -78 69.5 -129t55.5 -80.5t46.5 -41t43.5 -11.5q49 0 66.5 57.5t17.5 188.5q0 90 -9 190.5t-24.5 204 t-35 202.5t-40.5 187q-10 43 -18 80t-8 58q0 49 47 73q25 10 45 11q51 0 70 -68q51 -182 79.5 -387t28.5 -465q0 -115 -12 -211t-39 -164.5t-70 -107.5t-104 -39q-66 0 -118 39t-105 116q-33 49 -72 119t-81 152t-83 173t-80 183q-43 102 -69.5 178t-55.5 160 q-18 53 -24 69.5t-21 16.5q-10 0 -18 -11.5t-14 -60.5q-10 -70 -12.5 -145.5t-2.5 -140.5q0 -131 10.5 -270.5t22.5 -239.5q10 -78 22.5 -143.5t12.5 -94.5q0 -43 -25.5 -73.5t-70.5 -30.5q-27 0 -40.5 12t-23.5 43q-12 39 -20.5 110.5t-12.5 156.5t-6 174t-2 165zM399 1620 q0 39 17.5 79t47.5 70.5t68.5 50t79.5 19.5q49 0 91 -15.5t82 -35t80 -34.5t87 -15t70.5 20.5t48.5 77.5q12 29 47 29q41 0 41 -58q0 -41 -18.5 -79.5t-48 -70.5t-68.5 -51.5t-80 -19.5q-55 0 -97 16.5t-79 35t-75 35t-87 16.5q-47 0 -70.5 -20.5t-48.5 -78.5 q-12 -29 -45 -28q-43 0 -43 57z" />
<glyph unicode="&#xd2;" horiz-adv-x="1511" d="M123 670q0 162 48 304t136 246.5t212 165t276 60.5q133 0 242.5 -48t187.5 -137.5t121 -216t43 -284.5q0 -166 -48.5 -308.5t-136.5 -247t-212 -164.5t-275 -60q-133 0 -242.5 48t-187.5 138t-121 218t-43 286zM270 752q0 -131 35 -244t100.5 -195t159.5 -129t215 -47 q111 0 195 42t142.5 115t88 171t29.5 213q0 131 -34 242.5t-98.5 193.5t-158.5 128t-213 46q-113 0 -199 -42t-144 -114.5t-88 -170t-30 -209.5zM465 1818q0 45 24.5 66.5t58.5 21.5q33 0 56.5 -9t58.5 -30q37 -20 82 -47.5t89 -57.5t84 -57.5t67 -50.5q18 -16 24 -26.5 t6 -24.5q0 -20 -15 -34.5t-32 -14.5q-23 0 -35 5t-22 11q-82 45 -185.5 89t-211.5 92q-49 20 -49 67z" />
<glyph unicode="&#xd3;" horiz-adv-x="1511" d="M123 670q0 162 48 304t136 246.5t212 165t276 60.5q133 0 242.5 -48t187.5 -137.5t121 -216t43 -284.5q0 -166 -48.5 -308.5t-136.5 -247t-212 -164.5t-275 -60q-133 0 -242.5 48t-187.5 138t-121 218t-43 286zM270 752q0 -131 35 -244t100.5 -195t159.5 -129t215 -47 q111 0 195 42t142.5 115t88 171t29.5 213q0 131 -34 242.5t-98.5 193.5t-158.5 128t-213 46q-113 0 -199 -42t-144 -114.5t-88 -170t-30 -209.5zM523 1603q0 14 6 24.5t24 26.5q27 23 68 51.5t86 58.5t91 58.5t83 48.5q35 20 58.5 29.5t56.5 9.5q35 0 59.5 -21.5t24.5 -66.5 q0 -47 -50 -67q-109 -47 -215 -93.5t-188 -91.5q-10 -6 -22.5 -11t-34.5 -5q-16 0 -31.5 14.5t-15.5 34.5z" />
<glyph unicode="&#xd4;" horiz-adv-x="1511" d="M123 670q0 162 48 304t136 246.5t212 165t276 60.5q133 0 242.5 -48t187.5 -137.5t121 -216t43 -284.5q0 -166 -48.5 -308.5t-136.5 -247t-212 -164.5t-275 -60q-133 0 -242.5 48t-187.5 138t-121 218t-43 286zM270 752q0 -131 35 -244t100.5 -195t159.5 -129t215 -47 q111 0 195 42t142.5 115t88 171t29.5 213q0 131 -34 242.5t-98.5 193.5t-158.5 128t-213 46q-113 0 -199 -42t-144 -114.5t-88 -170t-30 -209.5zM443 1583q0 20 16 43q49 68 111.5 131.5t119.5 116.5q16 16 36 28.5t42 12.5q23 0 44.5 -12.5t37.5 -28.5q57 -53 110.5 -110.5 t102.5 -125.5q16 -23 16 -43q0 -23 -16 -34t-33 -11q-18 0 -30.5 7.5t-20.5 15.5q-29 27 -50.5 45t-42 34.5t-39.5 32t-44 33.5t-42 19.5t-46 -19.5q-49 -39 -89 -71.5t-95 -85.5q-8 -8 -18.5 -15.5t-24.5 -7.5q-16 0 -30.5 11.5t-14.5 33.5z" />
<glyph unicode="&#xd5;" horiz-adv-x="1511" d="M123 670q0 162 48 304t136 246.5t212 165t276 60.5q133 0 242.5 -48t187.5 -137.5t121 -216t43 -284.5q0 -166 -48.5 -308.5t-136.5 -247t-212 -164.5t-275 -60q-133 0 -242.5 48t-187.5 138t-121 218t-43 286zM270 752q0 -131 35 -244t100.5 -195t159.5 -129t215 -47 q111 0 195 42t142.5 115t88 171t29.5 213q0 131 -34 242.5t-98.5 193.5t-158.5 128t-213 46q-113 0 -199 -42t-144 -114.5t-88 -170t-30 -209.5zM403 1620q0 39 17.5 79t47.5 70.5t68.5 50t79.5 19.5q49 0 91 -15.5t82 -35t80 -34.5t87 -15t70.5 20.5t48.5 77.5q12 29 47 29 q41 0 41 -58q0 -41 -18.5 -79.5t-48 -70.5t-68.5 -51.5t-80 -19.5q-55 0 -97 16.5t-79 35t-75 35t-87 16.5q-47 0 -70.5 -20.5t-48.5 -78.5q-12 -29 -45 -28q-43 0 -43 57z" />
<glyph unicode="&#xd6;" horiz-adv-x="1511" d="M123 670q0 162 48 304t136 246.5t212 165t276 60.5q133 0 242.5 -48t187.5 -137.5t121 -216t43 -284.5q0 -166 -48.5 -308.5t-136.5 -247t-212 -164.5t-275 -60q-133 0 -242.5 48t-187.5 138t-121 218t-43 286zM270 752q0 -131 35 -244t100.5 -195t159.5 -129t215 -47 q111 0 195 42t142.5 115t88 171t29.5 213q0 131 -34 242.5t-98.5 193.5t-158.5 128t-213 46q-113 0 -199 -42t-144 -114.5t-88 -170t-30 -209.5zM483 1688q0 43 32 82.5t85 39.5q41 0 72.5 -30.5t31.5 -75.5q0 -20 -9 -41t-24.5 -38t-36.5 -27.5t-44 -10.5q-51 0 -79 30 t-28 71zM850 1690q0 43 31.5 84t84.5 41q43 0 76 -31t33 -78q0 -43 -35 -81t-84 -38q-51 0 -78.5 30t-27.5 73z" />
<glyph unicode="&#xd7;" d="M236 416q0 39 60 103.5t179 174.5q-72 74 -122 121t-81 80q-37 37 -36 68q0 23 20 44t45 21q27 0 49 -24l209 -220q37 35 74 74t74 72q47 41 72.5 58.5t45.5 17.5q10 0 17.5 -4.5l17.5 -10.5q33 -23 33 -57q0 -37 -41 -72q-37 -33 -90 -80t-113 -104q27 -29 60.5 -66 t65.5 -73.5t56.5 -67.5t32.5 -47q10 -25 10 -39q0 -25 -24 -43q-16 -12 -33 -12q-27 0 -47 22q-18 18 -43 46t-52.5 59.5t-57 65.5t-56.5 65l-217 -201q-25 -25 -49 -25q-12 0 -23.5 6.5t-21.5 14.5q-14 12 -14 33z" />
<glyph unicode="&#xd8;" horiz-adv-x="1511" d="M123 670q0 162 48 304t136 246.5t212 165t276 60.5q186 0 327 -94l47 69q23 33 46.5 56.5t54.5 23.5q35 0 52 -17.5t17 -33.5q0 -18 -12 -42t-29.5 -49.5t-38 -51t-34.5 -45.5q78 -90 121 -216t43 -286q0 -166 -48.5 -308.5t-136.5 -247t-212 -164.5t-275 -60 q-221 0 -373 129l-63 -72q-25 -29 -48.5 -50.5t-50.5 -21.5q-18 0 -34.5 12.5t-16.5 34.5q0 16 3 29.5t20 30.5q25 27 51 58.5t57 66.5q-68 90 -103.5 207.5t-35.5 265.5zM270 752q0 -121 29 -224.5t84 -183.5q72 90 149.5 192.5t159.5 212t164 223t160 226.5 q-57 43 -128 66.5t-157 23.5q-113 0 -199 -42t-144 -114.5t-88 -170t-30 -209.5zM463 252q61 -53 140 -84t177 -31q111 0 195 42t142.5 115t88 171t29.5 213q0 127 -32 234.5t-91 189.5q-72 -100 -155 -211t-167.5 -222.5t-168.5 -218t-158 -198.5z" />
<glyph unicode="&#xd9;" horiz-adv-x="1470" d="M129 674q0 109 14.5 196.5t36 160.5t49 129.5t52.5 101.5q29 49 51 72.5t51 23.5q23 0 39 -14.5t16 -36.5q0 -23 -10 -48.5t-25 -56.5q-23 -49 -42 -99t-33.5 -105.5t-21.5 -120t-7 -144.5q0 -127 25.5 -232.5t79 -183t134 -120.5t189.5 -43q227 0 347 162.5t120 488.5 q0 166 -34 292t-73 234q-8 23 -13 39t-5 35q0 37 23.5 64.5t66.5 27.5q55 0 82 -65q18 -47 36.5 -109.5t32 -135.5t22.5 -151t9 -157q0 -209 -44 -375t-128 -282t-203.5 -178t-269.5 -62q-135 0 -240.5 55t-178 149.5t-110.5 220t-38 267.5zM355 1798q0 45 24.5 66.5 t58.5 21.5q33 0 56.5 -9t58.5 -30q37 -20 82 -47.5t89 -57.5t84 -57.5t67 -50.5q18 -16 24 -26.5t6 -24.5q0 -20 -15 -34.5t-32 -14.5q-23 0 -35 5t-22 11q-82 45 -185.5 89t-211.5 92q-49 20 -49 67z" />
<glyph unicode="&#xda;" horiz-adv-x="1470" d="M129 674q0 109 14.5 196.5t36 160.5t49 129.5t52.5 101.5q29 49 51 72.5t51 23.5q23 0 39 -14.5t16 -36.5q0 -23 -10 -48.5t-25 -56.5q-23 -49 -42 -99t-33.5 -105.5t-21.5 -120t-7 -144.5q0 -127 25.5 -232.5t79 -183t134 -120.5t189.5 -43q227 0 347 162.5t120 488.5 q0 166 -34 292t-73 234q-8 23 -13 39t-5 35q0 37 23.5 64.5t66.5 27.5q55 0 82 -65q18 -47 36.5 -109.5t32 -135.5t22.5 -151t9 -157q0 -209 -44 -375t-128 -282t-203.5 -178t-269.5 -62q-135 0 -240.5 55t-178 149.5t-110.5 220t-38 267.5zM553 1583q0 14 6 24.5t24 26.5 q27 23 68 51.5t86 58.5t91 58.5t83 48.5q35 20 58.5 29.5t56.5 9.5q35 0 59.5 -21.5t24.5 -66.5q0 -47 -50 -67q-109 -47 -215 -93.5t-188 -91.5q-10 -6 -22.5 -11t-34.5 -5q-16 0 -31.5 14.5t-15.5 34.5z" />
<glyph unicode="&#xdb;" horiz-adv-x="1470" d="M129 674q0 109 14.5 196.5t36 160.5t49 129.5t52.5 101.5q29 49 51 72.5t51 23.5q23 0 39 -14.5t16 -36.5q0 -23 -10 -48.5t-25 -56.5q-23 -49 -42 -99t-33.5 -105.5t-21.5 -120t-7 -144.5q0 -127 25.5 -232.5t79 -183t134 -120.5t189.5 -43q227 0 347 162.5t120 488.5 q0 166 -34 292t-73 234q-8 23 -13 39t-5 35q0 37 23.5 64.5t66.5 27.5q55 0 82 -65q18 -47 36.5 -109.5t32 -135.5t22.5 -151t9 -157q0 -209 -44 -375t-128 -282t-203.5 -178t-269.5 -62q-135 0 -240.5 55t-178 149.5t-110.5 220t-38 267.5zM435 1593q0 20 16 43 q49 68 111.5 131.5t119.5 116.5q16 16 36 28.5t42 12.5q23 0 44.5 -12.5t37.5 -28.5q57 -53 110.5 -110.5t102.5 -125.5q16 -23 16 -43q0 -23 -16 -34t-33 -11q-18 0 -30.5 7.5t-20.5 15.5q-29 27 -50.5 45t-42 34.5t-39.5 32t-44 33.5t-42 19.5t-46 -19.5 q-49 -39 -89 -71.5t-95 -85.5q-8 -8 -18.5 -15.5t-24.5 -7.5q-16 0 -30.5 11.5t-14.5 33.5z" />
<glyph unicode="&#xdc;" horiz-adv-x="1470" d="M129 674q0 109 14.5 196.5t36 160.5t49 129.5t52.5 101.5q29 49 51 72.5t51 23.5q23 0 39 -14.5t16 -36.5q0 -23 -10 -48.5t-25 -56.5q-23 -49 -42 -99t-33.5 -105.5t-21.5 -120t-7 -144.5q0 -127 25.5 -232.5t79 -183t134 -120.5t189.5 -43q227 0 347 162.5t120 488.5 q0 166 -34 292t-73 234q-8 23 -13 39t-5 35q0 37 23.5 64.5t66.5 27.5q55 0 82 -65q18 -47 36.5 -109.5t32 -135.5t22.5 -151t9 -157q0 -209 -44 -375t-128 -282t-203.5 -178t-269.5 -62q-135 0 -240.5 55t-178 149.5t-110.5 220t-38 267.5zM457 1688q0 43 32 82.5t85 39.5 q41 0 72.5 -30.5t31.5 -75.5q0 -20 -9 -41t-24.5 -38t-36.5 -27.5t-44 -10.5q-51 0 -79 30t-28 71zM824 1690q0 43 31.5 84t84.5 41q43 0 76 -31t33 -78q0 -43 -35 -81t-84 -38q-51 0 -78.5 30t-27.5 73z" />
<glyph unicode="&#xdd;" horiz-adv-x="1138" d="M68 1303q0 27 7 49t31 39q25 14 52 14q29 0 45 -20.5t24 -43.5q39 -98 81 -194t114 -221q51 -92 93 -138.5t99 -46.5q59 0 115.5 64.5t106 158t86 197t57.5 180.5q10 45 31.5 61.5t56.5 16.5q61 0 61 -67q0 -10 -2 -20.5t-4 -18.5q-18 -82 -59 -190.5t-100.5 -214 t-134 -194.5t-160.5 -132q-2 -33 -3 -69t-2 -69.5t-2.5 -63.5t-1.5 -48q0 -55 3.5 -125t3.5 -113q0 -41 -24 -67.5t-71 -26.5q-23 0 -43 18.5t-24 69.5q-2 25 -2 49.5v50.5q0 35 2 81t5 98.5t7 106.5l8 108q-43 18 -78.5 49t-66.5 67.5t-57.5 77.5t-51.5 80q-53 88 -99 179 t-75 161q-10 23 -19 52.5t-9 54.5zM412 1583q0 14 6 24.5t24 26.5q27 23 68 51.5t86 58.5t91 58.5t83 48.5q35 20 58.5 29.5t56.5 9.5q35 0 59.5 -21.5t24.5 -66.5q0 -47 -50 -67q-109 -47 -215 -93.5t-188 -91.5q-10 -6 -22.5 -11t-34.5 -5q-16 0 -31.5 14.5t-15.5 34.5z " />
<glyph unicode="&#xde;" horiz-adv-x="1267" d="M160 578q0 86 8 194.5t23.5 220t35 215t41.5 181.5q18 59 97 59q59 0 59 -74q0 -23 -9 -59.5t-26 -116.5q-8 -39 -16 -86t-15 -86q78 104 184.5 170t248.5 66q100 0 175.5 -28t127 -78t77 -118.5t25.5 -150.5q0 -129 -45 -226.5t-125 -162t-190.5 -97t-239.5 -32.5 q-59 0 -81.5 22.5t-22.5 69.5q0 31 18 55.5t53 24.5q16 0 31.5 -1t32.5 -1q92 0 171 11t135 44t89 90t33 147q0 141 -74 206t-219 65q-111 0 -195 -42t-140 -116t-85 -174t-29 -217q0 -86 9.5 -166t23.5 -131l21 -78q4 -20 10 -43.5t6 -46.5q0 -29 -13.5 -48.5t-29.5 -29.5 q-33 -23 -66 -22q-27 0 -40 15t-25 50q-16 45 -26.5 117t-15.5 148.5t-6 147.5t-1 112z" />
<glyph unicode="&#xdf;" horiz-adv-x="1173" d="M113 465q0 109 11 225.5t38.5 228t70.5 212t108 176t149.5 119.5t195.5 44q84 0 143.5 -29.5t97.5 -77.5t55 -106.5t17 -115.5q0 -113 -51 -202t-188 -140q-20 -8 -21 -17q0 -10 23 -16q154 -39 239.5 -126t85.5 -239q0 -98 -33.5 -171.5t-91 -122t-130 -72t-152.5 -23.5 q-119 0 -194.5 35t-75.5 100q0 29 20.5 60t61.5 31q29 0 52 -13.5t48.5 -29t57.5 -28.5t79 -13q43 0 82 9t68.5 35.5t48 70.5t18.5 116q0 123 -93 191.5t-269 78.5q-45 2 -63.5 27t-18.5 57q0 39 26.5 60.5t79.5 34.5q141 33 199.5 99t58.5 163q0 92 -59 159.5t-172 67.5 q-119 0 -192.5 -69.5t-115.5 -182.5t-56.5 -254t-14.5 -285q0 -231 36 -426.5t79 -384.5q4 -14 6 -29.5t2 -29.5q0 -35 -17.5 -58.5t-64.5 -23.5q-53 0 -76.5 30t-34.5 77q-14 57 -27.5 144t-23.5 191.5t-16 218t-6 224.5z" />
<glyph unicode="&#xe0;" horiz-adv-x="1120" d="M102 387q0 111 40 208t110 168t166 111.5t207 40.5q35 0 79 -8t84 -28q41 -23 57.5 -44.5t16.5 -50.5q0 -35 -22.5 -64.5t-61.5 -29.5q-23 0 -48 12.5t-58 27.5t-72 28.5t-88 13.5q-68 0 -117 -26.5t-79.5 -70.5t-46 -101.5t-15.5 -116.5t11 -112.5t36 -94.5t61.5 -65.5 t88.5 -24.5q63 0 109 44t79 105.5t57.5 125t46.5 104.5q10 20 27.5 35.5t52.5 15.5q29 0 44.5 -12.5t27.5 -38.5q16 -35 32.5 -87.5t37 -103.5t45 -87t55.5 -36q37 0 73 61.5t66 145.5l25 66q10 27 19 45t32 18q10 0 24.5 -7t14.5 -32q0 -10 -5 -29.5t-22 -66.5 q-10 -27 -29.5 -80t-48.5 -106q-18 -35 -38.5 -68t-45 -58.5t-53 -41t-65.5 -15.5q-66 0 -100.5 51.5t-69.5 139.5q-16 39 -24.5 64.5t-14.5 40t-11.5 19.5t-13.5 5q-12 0 -20 -12.5t-31 -65.5q-18 -41 -44 -92t-63.5 -96t-91 -76t-125.5 -31q-68 0 -124 29.5t-95 81 t-60.5 121t-21.5 151.5zM278 1378q0 29 24.5 51.5t51.5 22.5q18 0 33.5 -7t44.5 -30q25 -18 59.5 -52t68 -71t63.5 -72t46 -55t23.5 -32.5t7.5 -28.5q0 -18 -14.5 -29.5t-30.5 -11.5t-30.5 8t-39.5 31q-18 14 -53 44t-74 60.5t-70.5 57t-43.5 34.5q-41 31 -53.5 46.5 t-12.5 33.5z" />
<glyph unicode="&#xe1;" horiz-adv-x="1120" d="M102 387q0 111 40 208t110 168t166 111.5t207 40.5q35 0 79 -8t84 -28q41 -23 57.5 -44.5t16.5 -50.5q0 -35 -22.5 -64.5t-61.5 -29.5q-23 0 -48 12.5t-58 27.5t-72 28.5t-88 13.5q-68 0 -117 -26.5t-79.5 -70.5t-46 -101.5t-15.5 -116.5t11 -112.5t36 -94.5t61.5 -65.5 t88.5 -24.5q63 0 109 44t79 105.5t57.5 125t46.5 104.5q10 20 27.5 35.5t52.5 15.5q29 0 44.5 -12.5t27.5 -38.5q16 -35 32.5 -87.5t37 -103.5t45 -87t55.5 -36q37 0 73 61.5t66 145.5l25 66q10 27 19 45t32 18q10 0 24.5 -7t14.5 -32q0 -10 -5 -29.5t-22 -66.5 q-10 -27 -29.5 -80t-48.5 -106q-18 -35 -38.5 -68t-45 -58.5t-53 -41t-65.5 -15.5q-66 0 -100.5 51.5t-69.5 139.5q-16 39 -24.5 64.5t-14.5 40t-11.5 19.5t-13.5 5q-12 0 -20 -12.5t-31 -65.5q-18 -41 -44 -92t-63.5 -96t-91 -76t-125.5 -31q-68 0 -124 29.5t-95 81 t-60.5 121t-21.5 151.5zM383 1104q0 16 7.5 28.5t23.5 32.5t46 55t63.5 72t68.5 71t59 52q29 23 44.5 30t33.5 7q27 0 51.5 -22.5t24.5 -51.5q0 -18 -12.5 -33.5t-53.5 -46.5q-12 -8 -43.5 -34.5t-70.5 -57t-74 -60.5t-53 -44q-25 -23 -39.5 -31t-30.5 -8t-30.5 11t-14.5 30 z" />
<glyph unicode="&#xe2;" horiz-adv-x="1120" d="M102 387q0 111 40 208t110 168t166 111.5t207 40.5q35 0 79 -8t84 -28q41 -23 57.5 -44.5t16.5 -50.5q0 -35 -22.5 -64.5t-61.5 -29.5q-23 0 -48 12.5t-58 27.5t-72 28.5t-88 13.5q-68 0 -117 -26.5t-79.5 -70.5t-46 -101.5t-15.5 -116.5t11 -112.5t36 -94.5t61.5 -65.5 t88.5 -24.5q63 0 109 44t79 105.5t57.5 125t46.5 104.5q10 20 27.5 35.5t52.5 15.5q29 0 44.5 -12.5t27.5 -38.5q16 -35 32.5 -87.5t37 -103.5t45 -87t55.5 -36q37 0 73 61.5t66 145.5l25 66q10 27 19 45t32 18q10 0 24.5 -7t14.5 -32q0 -10 -5 -29.5t-22 -66.5 q-10 -27 -29.5 -80t-48.5 -106q-18 -35 -38.5 -68t-45 -58.5t-53 -41t-65.5 -15.5q-66 0 -100.5 51.5t-69.5 139.5q-16 39 -24.5 64.5t-14.5 40t-11.5 19.5t-13.5 5q-12 0 -20 -12.5t-31 -65.5q-18 -41 -44 -92t-63.5 -96t-91 -76t-125.5 -31q-68 0 -124 29.5t-95 81 t-60.5 121t-21.5 151.5zM234 1085q0 10 5 21.5t11 21.5q23 37 51.5 77t60 80t63.5 75t61 61q16 16 32.5 26.5t38.5 10.5q18 0 30.5 -7t29.5 -19q23 -18 55.5 -53.5t65 -74t62.5 -77.5t48 -68q6 -10 12 -21.5t6 -21.5q0 -25 -22 -37q-35 -20 -68 13l-105 105t-91 85 q-18 16 -33 16q-6 0 -14.5 -4t-20.5 -16q-49 -49 -99 -103.5t-104 -113.5q-16 -16 -39 -17q-37 0 -36 41z" />
<glyph unicode="&#xe3;" horiz-adv-x="1120" d="M102 387q0 111 40 208t110 168t166 111.5t207 40.5q35 0 79 -8t84 -28q41 -23 57.5 -44.5t16.5 -50.5q0 -35 -22.5 -64.5t-61.5 -29.5q-23 0 -48 12.5t-58 27.5t-72 28.5t-88 13.5q-68 0 -117 -26.5t-79.5 -70.5t-46 -101.5t-15.5 -116.5t11 -112.5t36 -94.5t61.5 -65.5 t88.5 -24.5q63 0 109 44t79 105.5t57.5 125t46.5 104.5q10 20 27.5 35.5t52.5 15.5q29 0 44.5 -12.5t27.5 -38.5q16 -35 32.5 -87.5t37 -103.5t45 -87t55.5 -36q37 0 73 61.5t66 145.5l25 66q10 27 19 45t32 18q10 0 24.5 -7t14.5 -32q0 -10 -5 -29.5t-22 -66.5 q-10 -27 -29.5 -80t-48.5 -106q-18 -35 -38.5 -68t-45 -58.5t-53 -41t-65.5 -15.5q-66 0 -100.5 51.5t-69.5 139.5q-16 39 -24.5 64.5t-14.5 40t-11.5 19.5t-13.5 5q-12 0 -20 -12.5t-31 -65.5q-18 -41 -44 -92t-63.5 -96t-91 -76t-125.5 -31q-68 0 -124 29.5t-95 81 t-60.5 121t-21.5 151.5zM197 1122q0 39 16 78t44 67.5t64.5 47t77.5 18.5q49 0 91 -15t80 -33.5t78 -34t87 -15.5t68.5 23.5t46.5 80.5q6 14 15 21.5t28 7.5q39 0 39 -57q0 -41 -16.5 -79t-44 -67.5t-65.5 -48t-79 -18.5q-55 0 -96 15t-78 34.5t-74 35t-86 15.5 q-47 0 -68.5 -23.5t-45.5 -80.5q-6 -14 -15.5 -21.5t-27.5 -7.5q-39 0 -39 57z" />
<glyph unicode="&#xe4;" horiz-adv-x="1120" d="M102 387q0 111 40 208t110 168t166 111.5t207 40.5q35 0 79 -8t84 -28q41 -23 57.5 -44.5t16.5 -50.5q0 -35 -22.5 -64.5t-61.5 -29.5q-23 0 -48 12.5t-58 27.5t-72 28.5t-88 13.5q-68 0 -117 -26.5t-79.5 -70.5t-46 -101.5t-15.5 -116.5t11 -112.5t36 -94.5t61.5 -65.5 t88.5 -24.5q63 0 109 44t79 105.5t57.5 125t46.5 104.5q10 20 27.5 35.5t52.5 15.5q29 0 44.5 -12.5t27.5 -38.5q16 -35 32.5 -87.5t37 -103.5t45 -87t55.5 -36q37 0 73 61.5t66 145.5l25 66q10 27 19 45t32 18q10 0 24.5 -7t14.5 -32q0 -10 -5 -29.5t-22 -66.5 q-10 -27 -29.5 -80t-48.5 -106q-18 -35 -38.5 -68t-45 -58.5t-53 -41t-65.5 -15.5q-66 0 -100.5 51.5t-69.5 139.5q-16 39 -24.5 64.5t-14.5 40t-11.5 19.5t-13.5 5q-12 0 -20 -12.5t-31 -65.5q-18 -41 -44 -92t-63.5 -96t-91 -76t-125.5 -31q-68 0 -124 29.5t-95 81 t-60.5 121t-21.5 151.5zM272 1200q0 41 31 79t80 38q39 0 69.5 -28.5t30.5 -71.5q0 -41 -32.5 -76t-77.5 -35q-47 0 -74 27.5t-27 66.5zM621 1202q0 41 30.5 80t81.5 39q41 0 72 -28.5t31 -73.5q0 -41 -33 -77t-80 -36q-49 0 -75.5 27.5t-26.5 68.5z" />
<glyph unicode="&#xe5;" horiz-adv-x="1120" d="M102 387q0 111 40 208t110 168t166 111.5t207 40.5q35 0 79 -8t84 -28q41 -23 57.5 -44.5t16.5 -50.5q0 -35 -22.5 -64.5t-61.5 -29.5q-23 0 -48 12.5t-58 27.5t-72 28.5t-88 13.5q-68 0 -117 -26.5t-79.5 -70.5t-46 -101.5t-15.5 -116.5t11 -112.5t36 -94.5t61.5 -65.5 t88.5 -24.5q63 0 109 44t79 105.5t57.5 125t46.5 104.5q10 20 27.5 35.5t52.5 15.5q29 0 44.5 -12.5t27.5 -38.5q16 -35 32.5 -87.5t37 -103.5t45 -87t55.5 -36q37 0 73 61.5t66 145.5l25 66q10 27 19 45t32 18q10 0 24.5 -7t14.5 -32q0 -10 -5 -29.5t-22 -66.5 q-10 -27 -29.5 -80t-48.5 -106q-18 -35 -38.5 -68t-45 -58.5t-53 -41t-65.5 -15.5q-66 0 -100.5 51.5t-69.5 139.5q-16 39 -24.5 64.5t-14.5 40t-11.5 19.5t-13.5 5q-12 0 -20 -12.5t-31 -65.5q-18 -41 -44 -92t-63.5 -96t-91 -76t-125.5 -31q-68 0 -124 29.5t-95 81 t-60.5 121t-21.5 151.5zM350 1231q0 49 18.5 96t50 82t75.5 56.5t93 21.5q84 0 139.5 -57.5t55.5 -143.5q0 -49 -18.5 -96t-50 -82t-76 -56.5t-93.5 -21.5q-86 0 -140 57.5t-54 143.5zM450 1268q0 -23 7.5 -47.5t21.5 -45t37.5 -33t56.5 -12.5q41 0 75 33t34 86 q0 23 -7.5 47.5t-22.5 44t-39 32.5t-56 13q-41 0 -74 -32.5t-33 -85.5z" />
<glyph unicode="&#xe6;" horiz-adv-x="1630" d="M102 387q0 111 41 208t110 168t162 111.5t197 40.5q113 0 160 -27.5t47 -82.5q0 -31 -22.5 -64.5t-61.5 -33.5q-23 0 -43 10t-47 22.5t-60.5 22.5t-84.5 10q-61 0 -107.5 -26.5t-77 -70.5t-46 -101.5t-15.5 -116.5t11 -112.5t36 -94.5t65 -65.5t97 -24.5q74 0 127 47 t91 114.5t65.5 141.5t50.5 127q31 74 70.5 137.5t92 110.5t117 73.5t146.5 26.5q129 0 199.5 -73.5t70.5 -186.5q0 -72 -25.5 -130.5t-69.5 -101.5t-105.5 -66.5t-133.5 -23.5q-70 0 -98.5 22.5t-28.5 63.5q0 27 16.5 45.5t51.5 18.5q18 0 42.5 -3t49.5 -3q154 0 154 141 q0 72 -40 115t-139 43q-104 0 -171.5 -76t-67.5 -236q0 -84 20.5 -153.5t62.5 -118.5t107.5 -75.5t155.5 -26.5q86 0 154.5 19.5t124 64.5t100.5 118.5t86 182.5q10 27 19 45t32 18q10 0 24.5 -7t14.5 -32q0 -29 -31 -110q-31 -90 -78 -170t-114.5 -141.5t-157.5 -97.5 t-209 -36q-141 0 -242.5 53.5t-150.5 151.5q-18 39 -27.5 63.5t-14.5 39t-9 20.5t-13 6q-12 0 -18 -13.5t-33 -64.5q-20 -41 -50 -80t-70 -69.5t-89 -50t-106 -19.5q-76 0 -134.5 29.5t-98.5 81t-60.5 121t-20.5 151.5z" />
<glyph unicode="&#xe7;" horiz-adv-x="788" d="M109 414q0 106 34.5 205.5t98 174t151.5 119.5t195 45q78 0 105.5 -23.5t27.5 -57.5q0 -41 -21.5 -71t-64.5 -30q-23 0 -46.5 6t-72.5 6q-45 0 -91 -15t-84 -49t-61.5 -88t-23.5 -130q0 -72 16.5 -137.5t50 -114.5t88 -79t130.5 -30t131 28t96 75t71.5 111.5t57.5 138.5 q10 27 19.5 45t31.5 18q10 0 24.5 -7t14.5 -32q0 -10 -5 -30.5t-19 -61.5q-27 -78 -63 -149.5t-84 -129t-110.5 -96.5t-142.5 -53q-8 -15 -8 -33q0 -31 14.5 -48t31.5 -35.5t31.5 -41t14.5 -61.5q0 -43 -19.5 -78t-51 -59.5t-70.5 -36.5t-78 -12q-23 0 -44.5 9t-21.5 38 q0 8 4.5 19t20.5 18q16 6 37.5 10t40 12t32 23.5t13.5 44.5q0 25 -9 41t-20.5 30.5t-20.5 31.5t-9 46q0 47 22 76q-92 2 -160.5 38t-113.5 94t-67.5 133t-22.5 153z" />
<glyph unicode="&#xe8;" horiz-adv-x="944" d="M111 418q0 104 31.5 198.5t90 166t138.5 113.5t176 42q129 0 199.5 -73.5t70.5 -186.5q0 -72 -25.5 -130.5t-69.5 -101.5t-105.5 -66.5t-133.5 -23.5q-70 0 -98.5 22.5t-28.5 63.5q0 27 16.5 45.5t51.5 18.5q18 0 43 -3t49 -3q154 0 154 141q0 72 -40 115t-138 43 q-104 0 -172 -76t-68 -236q0 -82 19.5 -150.5t60.5 -118.5t104.5 -77.5t151.5 -27.5q86 0 154.5 19.5t124 64.5t100.5 118.5t86 182.5q10 27 19 45t32 18q10 0 24.5 -7t14.5 -32q0 -28 -31 -110q-31 -90 -78 -170t-114.5 -141.5t-157.5 -97.5t-209 -36q-106 0 -189 35 t-139.5 95.5t-85 142.5t-28.5 178zM246 1378q0 29 24.5 51.5t51.5 22.5q18 0 33.5 -7t44.5 -30q25 -18 59.5 -52t68 -71t63.5 -72t46 -55t23.5 -32.5t7.5 -28.5q0 -18 -14.5 -29.5t-30.5 -11.5t-30.5 8t-39.5 31q-18 14 -53 44t-74 60.5t-70.5 57t-43.5 34.5 q-41 31 -53.5 46.5t-12.5 33.5z" />
<glyph unicode="&#xe9;" horiz-adv-x="944" d="M111 418q0 104 31.5 198.5t90 166t138.5 113.5t176 42q129 0 199.5 -73.5t70.5 -186.5q0 -72 -25.5 -130.5t-69.5 -101.5t-105.5 -66.5t-133.5 -23.5q-70 0 -98.5 22.5t-28.5 63.5q0 27 16.5 45.5t51.5 18.5q18 0 43 -3t49 -3q154 0 154 141q0 72 -40 115t-138 43 q-104 0 -172 -76t-68 -236q0 -82 19.5 -150.5t60.5 -118.5t104.5 -77.5t151.5 -27.5q86 0 154.5 19.5t124 64.5t100.5 118.5t86 182.5q10 27 19 45t32 18q10 0 24.5 -7t14.5 -32q0 -28 -31 -110q-31 -90 -78 -170t-114.5 -141.5t-157.5 -97.5t-209 -36q-106 0 -189 35 t-139.5 95.5t-85 142.5t-28.5 178zM358 1079q0 16 7.5 28.5t23.5 32.5t46 55t63.5 72t68.5 71t59 52q29 23 44.5 30t33.5 7q27 0 51.5 -22.5t24.5 -51.5q0 -18 -12.5 -33.5t-53.5 -46.5q-12 -8 -43.5 -34.5t-70.5 -57t-74 -60.5t-53 -44q-25 -23 -39.5 -31t-30.5 -8 t-30.5 11t-14.5 30z" />
<glyph unicode="&#xea;" horiz-adv-x="944" d="M111 418q0 104 31.5 198.5t90 166t138.5 113.5t176 42q129 0 199.5 -73.5t70.5 -186.5q0 -72 -25.5 -130.5t-69.5 -101.5t-105.5 -66.5t-133.5 -23.5q-70 0 -98.5 22.5t-28.5 63.5q0 27 16.5 45.5t51.5 18.5q18 0 43 -3t49 -3q154 0 154 141q0 72 -40 115t-138 43 q-104 0 -172 -76t-68 -236q0 -82 19.5 -150.5t60.5 -118.5t104.5 -77.5t151.5 -27.5q86 0 154.5 19.5t124 64.5t100.5 118.5t86 182.5q10 27 19 45t32 18q10 0 24.5 -7t14.5 -32q0 -28 -31 -110q-31 -90 -78 -170t-114.5 -141.5t-157.5 -97.5t-209 -36q-106 0 -189 35 t-139.5 95.5t-85 142.5t-28.5 178zM205 1071q0 10 5 21.5t11 21.5q23 37 51.5 77t60 80t63.5 75t61 61q16 16 32.5 26.5t38.5 10.5q18 0 30.5 -7t29.5 -19q23 -18 55.5 -53.5t65 -74t62.5 -77.5t48 -68q6 -10 12 -21.5t6 -21.5q0 -25 -22 -37q-35 -20 -68 13l-105 105 t-91 85q-18 16 -33 16q-6 0 -14.5 -4t-20.5 -16q-49 -49 -99 -103.5t-104 -113.5q-16 -16 -39 -17q-37 0 -36 41z" />
<glyph unicode="&#xeb;" horiz-adv-x="944" d="M111 418q0 104 31.5 198.5t90 166t138.5 113.5t176 42q129 0 199.5 -73.5t70.5 -186.5q0 -72 -25.5 -130.5t-69.5 -101.5t-105.5 -66.5t-133.5 -23.5q-70 0 -98.5 22.5t-28.5 63.5q0 27 16.5 45.5t51.5 18.5q18 0 43 -3t49 -3q154 0 154 141q0 72 -40 115t-138 43 q-104 0 -172 -76t-68 -236q0 -82 19.5 -150.5t60.5 -118.5t104.5 -77.5t151.5 -27.5q86 0 154.5 19.5t124 64.5t100.5 118.5t86 182.5q10 27 19 45t32 18q10 0 24.5 -7t14.5 -32q0 -28 -31 -110q-31 -90 -78 -170t-114.5 -141.5t-157.5 -97.5t-209 -36q-106 0 -189 35 t-139.5 95.5t-85 142.5t-28.5 178zM247 1200q0 41 31 79t80 38q39 0 69.5 -28.5t30.5 -71.5q0 -41 -32.5 -76t-77.5 -35q-47 0 -74 27.5t-27 66.5zM596 1202q0 41 30.5 80t81.5 39q41 0 72 -28.5t31 -73.5q0 -41 -33 -77t-80 -36q-49 0 -75.5 27.5t-26.5 68.5z" />
<glyph unicode="&#xec;" horiz-adv-x="446" d="M-137 1319q0 29 24.5 51.5t51.5 22.5q18 0 33.5 -7t44.5 -30q25 -18 59.5 -52t68 -71t63.5 -72t46 -55t23.5 -32.5t7.5 -28.5q0 -18 -14.5 -29.5t-30.5 -11.5t-30.5 8t-39.5 31q-18 14 -53 44t-74 60.5t-70.5 57t-43.5 34.5q-41 31 -53.5 46.5t-12.5 33.5zM111 334v373 q0 59 23.5 86.5t62.5 27.5t54 -24.5t15 -71.5v-367q0 -88 20.5 -120.5t59.5 -32.5q59 0 101 57t77 154l31 82q10 27 19.5 45t31.5 18q10 0 24.5 -7t14.5 -32q0 -10 -5 -29.5t-22 -66.5q-12 -35 -31 -84t-44 -96q-41 -78 -101.5 -136.5t-146.5 -58.5q-92 0 -138 76t-46 207z " />
<glyph unicode="&#xed;" horiz-adv-x="446" d="M86 1012q0 16 7.5 28.5t23.5 32.5t46 55t63.5 72t68.5 71t59 52q29 23 44.5 30t33.5 7q27 0 51.5 -22.5t24.5 -51.5q0 -18 -12.5 -33.5t-53.5 -46.5q-12 -8 -43.5 -34.5t-70.5 -57t-74 -60.5t-53 -44q-25 -23 -39.5 -31t-30.5 -8t-30.5 11t-14.5 30zM111 334v373 q0 59 23.5 86.5t62.5 27.5t54 -24.5t15 -71.5v-367q0 -88 20.5 -120.5t59.5 -32.5q59 0 101 57t77 154l31 82q10 27 19.5 45t31.5 18q10 0 24.5 -7t14.5 -32q0 -10 -5 -29.5t-22 -66.5q-12 -35 -31 -84t-44 -96q-41 -78 -101.5 -136.5t-146.5 -58.5q-92 0 -138 76t-46 207z " />
<glyph unicode="&#xee;" horiz-adv-x="446" d="M-135 1005q0 10 5 21.5t11 21.5q23 37 51.5 77t60 80t63.5 75t61 61q16 16 32.5 26.5t38.5 10.5q18 0 30.5 -7t29.5 -19q23 -18 55.5 -53.5t65 -74t62.5 -77.5t48 -68q6 -10 12 -21.5t6 -21.5q0 -25 -22 -37q-35 -20 -68 13l-105 105t-91 85q-18 16 -33 16q-6 0 -14.5 -4 t-20.5 -16q-49 -49 -99 -103.5t-104 -113.5q-16 -16 -39 -17q-37 0 -36 41zM111 334v373q0 59 23.5 86.5t62.5 27.5t54 -24.5t15 -71.5v-367q0 -88 20.5 -120.5t59.5 -32.5q59 0 101 57t77 154l31 82q10 27 19.5 45t31.5 18q10 0 24.5 -7t14.5 -32q0 -10 -5 -29.5t-22 -66.5 q-12 -35 -31 -84t-44 -96q-41 -78 -101.5 -136.5t-146.5 -58.5q-92 0 -138 76t-46 207z" />
<glyph unicode="&#xef;" horiz-adv-x="446" d="M-99 1120q0 41 31 79t80 38q39 0 69.5 -28.5t30.5 -71.5q0 -41 -32.5 -76t-77.5 -35q-47 0 -74 27.5t-27 66.5zM111 334v373q0 59 23.5 86.5t62.5 27.5t54 -24.5t15 -71.5v-367q0 -88 20.5 -120.5t59.5 -32.5q59 0 101 57t77 154l31 82q10 27 19.5 45t31.5 18 q10 0 24.5 -7t14.5 -32q0 -10 -5 -29.5t-22 -66.5q-12 -35 -31 -84t-44 -96q-41 -78 -101.5 -136.5t-146.5 -58.5q-92 0 -138 76t-46 207zM250 1122q0 41 30.5 80t81.5 39q41 0 72 -28.5t31 -73.5q0 -41 -33 -77t-80 -36q-49 0 -75.5 27.5t-26.5 68.5z" />
<glyph unicode="&#xf0;" horiz-adv-x="1038" d="M106 391q0 111 35 200t93.5 151.5t134 96t155.5 33.5q121 0 121 -94q0 -23 -13.5 -46t-51.5 -23q-14 0 -37 3t-49 3q-49 0 -92.5 -12.5t-75 -43t-50 -82t-18.5 -128.5q0 -68 18.5 -125.5t51 -99.5t78 -65.5t100.5 -23.5q135 0 218 119t83 364q0 164 -39 273.5t-102 191.5 l-154 -75q-18 -10 -36.5 -2t-29.5 26q-12 29 -3.5 47.5t30.5 34.5q45 29 107 66q-10 10 -22.5 21t-22.5 24q-29 29 -45.5 49t-16.5 47q0 41 26.5 61.5t55.5 20.5q23 0 45.5 -14.5t50.5 -42.5q18 -18 37 -40t39 -46l102 53q53 25 76 23.5t39 -23.5q20 -29 14 -60.5t-36 -48.5 l-115 -55q59 -96 100 -221t41 -281q0 -129 -31.5 -247.5t-93 -210t-149.5 -145.5t-199 -54q-166 0 -267.5 103.5t-101.5 297.5z" />
<glyph unicode="&#xf1;" horiz-adv-x="1558" d="M47 317q0 16 10 43l54 144q37 102 73.5 171.5t74.5 112.5t77 62.5t82 19.5q55 0 91 -46t61.5 -115.5t44 -149.5t36 -149.5t37 -115.5t49.5 -46q45 0 82 67.5t84 171.5q31 70 59.5 125.5t57.5 94t63.5 58t77.5 19.5q49 0 81 -42t53.5 -103t39 -135t37 -135.5t46 -103.5 t67.5 -42q49 0 85 55.5t66 137.5l31 82q10 27 19.5 45t31.5 18q10 0 24.5 -7t14.5 -32q0 -10 -5 -29.5t-21 -66.5q-12 -35 -32 -84t-44 -96q-39 -72 -93 -124t-130 -52q-59 0 -100.5 37.5t-70 94t-48 124t-35.5 127.5q-16 66 -32 109.5t-46 43.5q-37 0 -64.5 -54t-66.5 -140 q-29 -66 -58.5 -128.5t-62.5 -113.5t-70 -82t-82 -31q-59 0 -98 46.5t-66.5 114t-46 148t-38 148.5t-44 114t-63.5 46q-53 0 -88 -64.5t-72 -165.5q-35 -90 -54.5 -125.5t-43.5 -35.5q-35 0 -35 34zM465 1122q0 39 16 78t44 67.5t64.5 47t77.5 18.5q49 0 91 -15t80 -33.5 t78 -34t87 -15.5t68.5 23.5t46.5 80.5q6 14 15 21.5t28 7.5q39 0 39 -57q0 -41 -16.5 -79t-44 -67.5t-65.5 -48t-79 -18.5q-55 0 -96 15t-78 34.5t-74 35t-86 15.5q-47 0 -68.5 -23.5t-45.5 -80.5q-6 -14 -15.5 -21.5t-27.5 -7.5q-39 0 -39 57z" />
<glyph unicode="&#xf2;" horiz-adv-x="1007" d="M106 410q0 100 35 190t95.5 158.5t141.5 109.5t175 41q82 0 150.5 -32.5t115.5 -90t74 -134.5t27 -165q0 -100 -35 -190t-94.5 -158.5t-140.5 -108.5t-175 -40q-84 0 -151.5 32.5t-115.5 89t-75 133.5t-27 165zM244 485q0 -74 18.5 -137t55 -110.5t93 -75t130.5 -27.5 q98 0 164.5 75t66.5 202q0 74 -17.5 139t-51 112.5t-85 75t-120.5 27.5q-55 0 -101.5 -19.5t-80 -56.5t-53 -89t-19.5 -116zM254 1378q0 29 24.5 51.5t51.5 22.5q18 0 33.5 -7t44.5 -30q25 -18 59.5 -52t68 -71t63.5 -72t46 -55t23.5 -32.5t7.5 -28.5q0 -18 -14.5 -29.5 t-30.5 -11.5t-30.5 8t-39.5 31q-18 14 -53 44t-74 60.5t-70.5 57t-43.5 34.5q-41 31 -53.5 46.5t-12.5 33.5z" />
<glyph unicode="&#xf3;" horiz-adv-x="1007" d="M106 410q0 100 35 190t95.5 158.5t141.5 109.5t175 41q82 0 150.5 -32.5t115.5 -90t74 -134.5t27 -165q0 -100 -35 -190t-94.5 -158.5t-140.5 -108.5t-175 -40q-84 0 -151.5 32.5t-115.5 89t-75 133.5t-27 165zM244 485q0 -74 18.5 -137t55 -110.5t93 -75t130.5 -27.5 q98 0 164.5 75t66.5 202q0 74 -17.5 139t-51 112.5t-85 75t-120.5 27.5q-55 0 -101.5 -19.5t-80 -56.5t-53 -89t-19.5 -116zM356 1092q0 16 7.5 28.5t23.5 32.5t46 55t63.5 72t68.5 71t59 52q29 23 44.5 30t33.5 7q27 0 51.5 -22.5t24.5 -51.5q0 -18 -12.5 -33.5 t-53.5 -46.5q-12 -8 -43.5 -34.5t-70.5 -57t-74 -60.5t-53 -44q-25 -23 -39.5 -31t-30.5 -8t-30.5 11t-14.5 30z" />
<glyph unicode="&#xf4;" horiz-adv-x="1007" d="M106 410q0 100 35 190t95.5 158.5t141.5 109.5t175 41q82 0 150.5 -32.5t115.5 -90t74 -134.5t27 -165q0 -100 -35 -190t-94.5 -158.5t-140.5 -108.5t-175 -40q-84 0 -151.5 32.5t-115.5 89t-75 133.5t-27 165zM215 1024q0 10 5 21.5t11 21.5q23 37 51.5 77t60 80 t63.5 75t61 61q16 16 32.5 26.5t38.5 10.5q18 0 30.5 -7t29.5 -19q23 -18 55.5 -53.5t65 -74t62.5 -77.5t48 -68q6 -10 12 -21.5t6 -21.5q0 -25 -22 -37q-35 -20 -68 13l-105 105t-91 85q-18 16 -33 16q-6 0 -14.5 -4t-20.5 -16q-49 -49 -99 -103.5t-104 -113.5 q-16 -16 -39 -17q-37 0 -36 41zM244 485q0 -74 18.5 -137t55 -110.5t93 -75t130.5 -27.5q98 0 164.5 75t66.5 202q0 74 -17.5 139t-51 112.5t-85 75t-120.5 27.5q-55 0 -101.5 -19.5t-80 -56.5t-53 -89t-19.5 -116z" />
<glyph unicode="&#xf5;" horiz-adv-x="1007" d="M106 410q0 100 35 190t95.5 158.5t141.5 109.5t175 41q82 0 150.5 -32.5t115.5 -90t74 -134.5t27 -165q0 -100 -35 -190t-94.5 -158.5t-140.5 -108.5t-175 -40q-84 0 -151.5 32.5t-115.5 89t-75 133.5t-27 165zM156 1122q0 39 16 78t44 67.5t64.5 47t77.5 18.5 q49 0 91 -15t80 -33.5t78 -34t87 -15.5t68.5 23.5t46.5 80.5q6 14 15 21.5t28 7.5q39 0 39 -57q0 -41 -16.5 -79t-44 -67.5t-65.5 -48t-79 -18.5q-55 0 -96 15t-78 34.5t-74 35t-86 15.5q-47 0 -68.5 -23.5t-45.5 -80.5q-6 -14 -15.5 -21.5t-27.5 -7.5q-39 0 -39 57z M244 485q0 -74 18.5 -137t55 -110.5t93 -75t130.5 -27.5q98 0 164.5 75t66.5 202q0 74 -17.5 139t-51 112.5t-85 75t-120.5 27.5q-55 0 -101.5 -19.5t-80 -56.5t-53 -89t-19.5 -116z" />
<glyph unicode="&#xf6;" horiz-adv-x="1007" d="M106 410q0 100 35 190t95.5 158.5t141.5 109.5t175 41q82 0 150.5 -32.5t115.5 -90t74 -134.5t27 -165q0 -100 -35 -190t-94.5 -158.5t-140.5 -108.5t-175 -40q-84 0 -151.5 32.5t-115.5 89t-75 133.5t-27 165zM244 485q0 -74 18.5 -137t55 -110.5t93 -75t130.5 -27.5 q98 0 164.5 75t66.5 202q0 74 -17.5 139t-51 112.5t-85 75t-120.5 27.5q-55 0 -101.5 -19.5t-80 -56.5t-53 -89t-19.5 -116zM249 1200q0 41 31 79t80 38q39 0 69.5 -28.5t30.5 -71.5q0 -41 -32.5 -76t-77.5 -35q-47 0 -74 27.5t-27 66.5zM598 1202q0 41 30.5 80t81.5 39 q41 0 72 -28.5t31 -73.5q0 -41 -33 -77t-80 -36q-49 0 -75.5 27.5t-26.5 68.5z" />
<glyph unicode="&#xf7;" d="M162 659q0 31 18.5 54.5t75.5 27.5q61 4 147 8.5t169 7.5t151 5t90 2q88 0 119 -12.5t31 -46.5q0 -31 -18.5 -64t-74.5 -33q-135 0 -280.5 -3t-294.5 -3q-45 0 -71.5 5t-40 12.5t-17.5 17.5t-4 22zM455 328q0 51 33.5 89t86.5 38t77 -35t24 -72q0 -53 -37 -91t-88 -38 q-47 0 -71.5 34t-24.5 75zM455 1012q0 51 33.5 90t86.5 39t77 -36t24 -73q0 -53 -37 -90t-88 -37q-47 0 -71.5 33t-24.5 74z" />
<glyph unicode="&#xf8;" horiz-adv-x="1007" d="M106 410q0 100 35 190t95.5 158.5t141.5 109.5t175 41q111 0 192 -57l33 47q16 23 32.5 39t39.5 16q25 0 37 -14t12 -27q0 -29 -26.5 -67.5t-49.5 -67.5q47 -57 72 -131t25 -160q0 -100 -35 -190t-94.5 -158.5t-140.5 -108.5t-175 -40q-117 0 -203 63 q-10 -14 -21.5 -26.5t-21.5 -22.5q-16 -18 -35.5 -33.5t-37.5 -15.5q-16 0 -29.5 9t-13.5 26q0 10 3 22.5t13 22.5q35 39 72 84q-45 57 -70 131t-25 160zM244 485q0 -70 15 -129t48 -106q80 100 168 218t178 247q-63 51 -155 51q-55 0 -101.5 -19.5t-80 -56.5t-53 -89.5 t-19.5 -115.5zM377 180q35 -23 75 -34t89 -11q98 0 164.5 75t66.5 202q0 63 -12 119.5t-39 103.5q-82 -115 -172 -233.5t-172 -221.5z" />
<glyph unicode="&#xf9;" horiz-adv-x="1032" d="M106 399q0 37 1.5 82t4.5 91t8 90.5t13 76.5q14 51 33.5 68.5t54.5 17.5t48.5 -20t13.5 -51q0 -61 -6.5 -149.5t-6.5 -168.5q0 -123 33 -184.5t119 -61.5q57 0 96 36t65.5 94.5t42 133t27.5 152.5q8 53 17.5 87t20.5 54.5t26.5 27.5t38.5 7q25 0 38 -9t20 -36.5t11 -80 t9 -136.5q4 -88 9 -147.5t15 -96t27.5 -53t48.5 -16.5q57 0 99 56t77 153l31 82q10 27 19 45t32 18q10 0 24.5 -7t14.5 -32q0 -10 -5 -29.5t-22 -66.5q-12 -35 -31.5 -84t-44.5 -96q-20 -39 -42.5 -75t-50 -62.5t-62.5 -42t-78 -15.5t-73.5 17.5t-53.5 48t-35 70.5t-18 85 q-6 51 -11.5 67.5t-15.5 16.5t-17 -17t-22 -58q-16 -45 -37.5 -90.5t-55.5 -82t-81 -60t-113 -23.5q-133 0 -194.5 100t-61.5 274zM199 1319q0 29 24.5 51.5t51.5 22.5q18 0 33.5 -7t44.5 -30q25 -18 59.5 -52t68 -71t63.5 -72t46 -55t23.5 -32.5t7.5 -28.5 q0 -18 -14.5 -29.5t-30.5 -11.5t-30.5 8t-39.5 31q-18 14 -53 44t-74 60.5t-70.5 57t-43.5 34.5q-41 31 -53.5 46.5t-12.5 33.5z" />
<glyph unicode="&#xfa;" horiz-adv-x="1032" d="M106 399q0 37 1.5 82t4.5 91t8 90.5t13 76.5q14 51 33.5 68.5t54.5 17.5t48.5 -20t13.5 -51q0 -61 -6.5 -149.5t-6.5 -168.5q0 -123 33 -184.5t119 -61.5q57 0 96 36t65.5 94.5t42 133t27.5 152.5q8 53 17.5 87t20.5 54.5t26.5 27.5t38.5 7q25 0 38 -9t20 -36.5t11 -80 t9 -136.5q4 -88 9 -147.5t15 -96t27.5 -53t48.5 -16.5q57 0 99 56t77 153l31 82q10 27 19 45t32 18q10 0 24.5 -7t14.5 -32q0 -10 -5 -29.5t-22 -66.5q-12 -35 -31.5 -84t-44.5 -96q-20 -39 -42.5 -75t-50 -62.5t-62.5 -42t-78 -15.5t-73.5 17.5t-53.5 48t-35 70.5t-18 85 q-6 51 -11.5 67.5t-15.5 16.5t-17 -17t-22 -58q-16 -45 -37.5 -90.5t-55.5 -82t-81 -60t-113 -23.5q-133 0 -194.5 100t-61.5 274zM401 1045q0 16 7.5 28.5t23.5 32.5t46 55t63.5 72t68.5 71t59 52q29 23 44.5 30t33.5 7q27 0 51.5 -22.5t24.5 -51.5q0 -18 -12.5 -33.5 t-53.5 -46.5q-12 -8 -43.5 -34.5t-70.5 -57t-74 -60.5t-53 -44q-25 -23 -39.5 -31t-30.5 -8t-30.5 11t-14.5 30z" />
<glyph unicode="&#xfb;" horiz-adv-x="1032" d="M106 399q0 37 1.5 82t4.5 91t8 90.5t13 76.5q14 51 33.5 68.5t54.5 17.5t48.5 -20t13.5 -51q0 -61 -6.5 -149.5t-6.5 -168.5q0 -123 33 -184.5t119 -61.5q57 0 96 36t65.5 94.5t42 133t27.5 152.5q8 53 17.5 87t20.5 54.5t26.5 27.5t38.5 7q25 0 38 -9t20 -36.5t11 -80 t9 -136.5q4 -88 9 -147.5t15 -96t27.5 -53t48.5 -16.5q57 0 99 56t77 153l31 82q10 27 19 45t32 18q10 0 24.5 -7t14.5 -32q0 -10 -5 -29.5t-22 -66.5q-12 -35 -31.5 -84t-44.5 -96q-20 -39 -42.5 -75t-50 -62.5t-62.5 -42t-78 -15.5t-73.5 17.5t-53.5 48t-35 70.5t-18 85 q-6 51 -11.5 67.5t-15.5 16.5t-17 -17t-22 -58q-16 -45 -37.5 -90.5t-55.5 -82t-81 -60t-113 -23.5q-133 0 -194.5 100t-61.5 274zM177 1026q0 10 5 21.5t11 21.5q23 37 51.5 77t60 80t63.5 75t61 61q16 16 32.5 26.5t38.5 10.5q18 0 30.5 -7t29.5 -19q23 -18 55.5 -53.5 t65 -74t62.5 -77.5t48 -68q6 -10 12 -21.5t6 -21.5q0 -25 -22 -37q-35 -20 -68 13l-105 105t-91 85q-18 16 -33 16q-6 0 -14.5 -4t-20.5 -16q-49 -49 -99 -103.5t-104 -113.5q-16 -16 -39 -17q-37 0 -36 41z" />
<glyph unicode="&#xfc;" horiz-adv-x="1032" d="M106 399q0 37 1.5 82t4.5 91t8 90.5t13 76.5q14 51 33.5 68.5t54.5 17.5t48.5 -20t13.5 -51q0 -61 -6.5 -149.5t-6.5 -168.5q0 -123 33 -184.5t119 -61.5q57 0 96 36t65.5 94.5t42 133t27.5 152.5q8 53 17.5 87t20.5 54.5t26.5 27.5t38.5 7q25 0 38 -9t20 -36.5t11 -80 t9 -136.5q4 -88 9 -147.5t15 -96t27.5 -53t48.5 -16.5q57 0 99 56t77 153l31 82q10 27 19 45t32 18q10 0 24.5 -7t14.5 -32q0 -10 -5 -29.5t-22 -66.5q-12 -35 -31.5 -84t-44.5 -96q-20 -39 -42.5 -75t-50 -62.5t-62.5 -42t-78 -15.5t-73.5 17.5t-53.5 48t-35 70.5t-18 85 q-6 51 -11.5 67.5t-15.5 16.5t-17 -17t-22 -58q-16 -45 -37.5 -90.5t-55.5 -82t-81 -60t-113 -23.5q-133 0 -194.5 100t-61.5 274zM227 1141q0 41 31 79t80 38q39 0 69.5 -28.5t30.5 -71.5q0 -41 -32.5 -76t-77.5 -35q-47 0 -74 27.5t-27 66.5zM576 1143q0 41 30.5 80 t81.5 39q41 0 72 -28.5t31 -73.5q0 -41 -33 -77t-80 -36q-49 0 -75.5 27.5t-26.5 68.5z" />
<glyph unicode="&#xfd;" horiz-adv-x="968" d="M106 465q0 31 1.5 67.5t3.5 73.5t6 72t8 59q10 51 27.5 71.5t58.5 20.5q45 0 57.5 -25.5t12.5 -64.5q0 -29 -5.5 -92t-5.5 -143q0 -66 6.5 -124t22.5 -102.5t45 -70t74 -25.5q51 0 88 36t61.5 91.5t41 121t28.5 126.5q12 68 24.5 108t25.5 61.5t31.5 27.5t43.5 6 q39 0 53 -32t23 -101q14 -135 20 -255t6 -222q0 -172 -44 -298t-120.5 -208t-178 -122t-214.5 -40q-82 0 -134 24.5t-52 83.5q0 39 18.5 62.5t57.5 23.5q41 0 85 -14t128 -14q90 0 149 28.5t95 86t51.5 144.5t15.5 202q0 92 -1 148t-5 91q-2 10 -6 23.5t-15 13.5 q-8 0 -13 -3t-10 -12.5t-12.5 -30t-19.5 -52.5q-49 -139 -111.5 -203t-162.5 -64q-74 0 -124.5 32t-80 90.5t-42 140.5t-12.5 182zM399 1045q0 16 7.5 28.5t23.5 32.5t46 55t63.5 72t68.5 71t59 52q29 23 44.5 30t33.5 7q27 0 51.5 -22.5t24.5 -51.5q0 -18 -12.5 -33.5 t-53.5 -46.5q-12 -8 -43.5 -34.5t-70.5 -57t-74 -60.5t-53 -44q-25 -23 -39.5 -31t-30.5 -8t-30.5 11t-14.5 30z" />
<glyph unicode="&#xfe;" horiz-adv-x="1015" d="M98 283q0 236 33 413.5t85 313t117.5 233.5t131.5 170q16 16 35.5 30.5t48.5 14.5q25 0 47 -21.5t22 -54.5q0 -14 -7 -30.5t-33 -42.5q-223 -233 -295 -541q72 78 148.5 121t176.5 43q70 0 131.5 -24.5t106.5 -75t71.5 -128t26.5 -184.5q0 -104 -35 -199.5t-93 -166 t-135 -112.5t-159 -42q-37 0 -60.5 8t-35.5 20.5t-16 28t-4 29.5q0 23 12 45.5t57 26.5q61 4 118.5 14t101.5 43t71 97.5t27 179.5q0 139 -57.5 217.5t-168.5 78.5q-154 0 -242.5 -131t-88.5 -356q0 -123 22.5 -229.5t56 -194.5t72.5 -158.5t72 -124.5q8 -12 12 -22t4 -23 q0 -33 -24.5 -53t-63.5 -20q-43 0 -72 39q-27 35 -63.5 108.5t-70.5 176t-58.5 226.5t-24.5 257z" />
<glyph unicode="&#xff;" horiz-adv-x="968" d="M106 465q0 31 1.5 67.5t3.5 73.5t6 72t8 59q10 51 27.5 71.5t58.5 20.5q45 0 57.5 -25.5t12.5 -64.5q0 -29 -5.5 -92t-5.5 -143q0 -66 6.5 -124t22.5 -102.5t45 -70t74 -25.5q51 0 88 36t61.5 91.5t41 121t28.5 126.5q12 68 24.5 108t25.5 61.5t31.5 27.5t43.5 6 q39 0 53 -32t23 -101q14 -135 20 -255t6 -222q0 -172 -44 -298t-120.5 -208t-178 -122t-214.5 -40q-82 0 -134 24.5t-52 83.5q0 39 18.5 62.5t57.5 23.5q41 0 85 -14t128 -14q90 0 149 28.5t95 86t51.5 144.5t15.5 202q0 92 -1 148t-5 91q-2 10 -6 23.5t-15 13.5 q-8 0 -13 -3t-10 -12.5t-12.5 -30t-19.5 -52.5q-49 -139 -111.5 -203t-162.5 -64q-74 0 -124.5 32t-80 90.5t-42 140.5t-12.5 182zM227 1141q0 41 31 79t80 38q39 0 69.5 -28.5t30.5 -71.5q0 -41 -32.5 -76t-77.5 -35q-47 0 -74 27.5t-27 66.5zM576 1143q0 41 30.5 80 t81.5 39q41 0 72 -28.5t31 -73.5q0 -41 -33 -77t-80 -36q-49 0 -75.5 27.5t-26.5 68.5z" />
<glyph unicode="&#x152;" horiz-adv-x="2250" d="M123 670q0 162 48 304t136 246.5t212 165t276 60.5q180 0 313 -85t207 -239q20 156 147 244t324 88q57 0 128 -10t132 -30.5t103 -53.5t42 -78q0 -39 -24.5 -64.5t-44.5 -25.5q-29 0 -66 22q-63 35 -138 64t-194 29q-123 0 -201.5 -57.5t-78.5 -168.5q0 -74 30.5 -116.5 t89 -67.5t144.5 -36t197 -23q59 -6 59 -74q0 -78 -78 -90q-72 -12 -155.5 -30.5t-154.5 -51.5t-118 -85t-47 -134q0 -106 77 -162.5t236 -56.5q86 0 149.5 14t113 37.5t86 54.5t67.5 66q33 35 58 34q27 0 39 -19t12 -40q0 -29 -24.5 -65.5t-65.5 -73.5q-80 -72 -205 -122 t-273 -50q-168 0 -284.5 70.5t-145.5 205.5q-88 -133 -224 -209.5t-310 -76.5q-133 0 -242.5 48t-187.5 138t-121 218t-43 286zM270 752q0 -131 35 -244t100.5 -195t159.5 -129t215 -47q111 0 195 42t142.5 115t88 171t29.5 213q0 131 -34 242.5t-98.5 193.5t-158.5 128 t-213 46q-113 0 -199 -42t-144 -114.5t-88 -170t-30 -209.5zM1376 606q47 35 102.5 58.5t112.5 46.5q20 8 21 16q0 10 -19 16q-59 18 -114.5 45t-96.5 72q6 -49 7 -100q0 -80 -13 -154z" />
<glyph unicode="&#x153;" horiz-adv-x="1622" d="M106 410q0 100 35 190t95.5 158.5t141.5 109.5t175 41q104 0 182 -50t125 -134q59 96 149.5 154.5t204.5 58.5q129 0 200 -73.5t71 -186.5q0 -72 -25.5 -130.5t-69.5 -101.5t-105.5 -66.5t-133.5 -23.5q-70 0 -98.5 22.5t-28.5 63.5q0 27 16.5 45.5t51.5 18.5 q18 0 42.5 -3t49.5 -3q154 0 153 141q0 72 -40 115t-138 43q-104 0 -169.5 -73t-69.5 -224v-31q4 -164 87 -261t259 -97q86 0 154.5 19.5t123.5 64.5t100.5 118.5t86.5 182.5q10 27 19 45t32 18q10 0 24.5 -7t14.5 -32q0 -28 -31 -110q-31 -90 -78 -170t-114.5 -141.5 t-157.5 -97.5t-209 -36q-147 0 -247.5 59.5t-154.5 163.5q-59 -92 -151 -146t-203 -54q-84 0 -151.5 32.5t-115.5 89t-75 133.5t-27 165zM244 485q0 -74 18.5 -137t55 -110.5t93 -75t130.5 -27.5q98 0 164.5 75t66.5 202q0 74 -17.5 139t-51 112.5t-85 75t-120.5 27.5 q-55 0 -101.5 -19.5t-80 -56.5t-53 -89t-19.5 -116z" />
<glyph unicode="&#x178;" horiz-adv-x="1138" d="M68 1303q0 27 7 49t31 39q25 14 52 14q29 0 45 -20.5t24 -43.5q39 -98 81 -194t114 -221q51 -92 93 -138.5t99 -46.5q59 0 115.5 64.5t106 158t86 197t57.5 180.5q10 45 31.5 61.5t56.5 16.5q61 0 61 -67q0 -10 -2 -20.5t-4 -18.5q-18 -82 -59 -190.5t-100.5 -214 t-134 -194.5t-160.5 -132q-2 -33 -3 -69t-2 -69.5t-2.5 -63.5t-1.5 -48q0 -55 3.5 -125t3.5 -113q0 -41 -24 -67.5t-71 -26.5q-23 0 -43 18.5t-24 69.5q-2 25 -2 49.5v50.5q0 35 2 81t5 98.5t7 106.5l8 108q-43 18 -78.5 49t-66.5 67.5t-57.5 77.5t-51.5 80q-53 88 -99 179 t-75 161q-10 23 -19 52.5t-9 54.5zM344 1668q0 43 32 82.5t85 39.5q41 0 72.5 -30.5t31.5 -75.5q0 -20 -9 -41t-24.5 -38t-36.5 -27.5t-44 -10.5q-51 0 -79 30t-28 71zM711 1670q0 43 31.5 84t84.5 41q43 0 76 -31t33 -78q0 -43 -35 -81t-84 -38q-51 0 -78.5 30t-27.5 73z " />
<glyph unicode="&#x2c6;" horiz-adv-x="1024" d="M197 1085q0 10 5 21.5t11 21.5q23 37 51.5 77t60 80t63.5 75t61 61q16 16 32.5 26.5t38.5 10.5q18 0 30.5 -7t29.5 -19q23 -18 55.5 -53.5t65 -74t62.5 -77.5t48 -68q6 -10 12 -21.5t6 -21.5q0 -25 -22 -37q-35 -20 -68 13l-105 105t-91 85q-18 16 -33 16q-6 0 -14.5 -4 t-20.5 -16q-49 -49 -99 -103.5t-104 -113.5q-16 -16 -39 -17q-37 0 -36 41z" />
<glyph unicode="&#x2dc;" horiz-adv-x="1024" d="M154 1122q0 39 16 78t44 67.5t64.5 47t77.5 18.5q49 0 91 -15t80 -33.5t78 -34t87 -15.5t68.5 23.5t46.5 80.5q6 14 15 21.5t28 7.5q39 0 39 -57q0 -41 -16.5 -79t-44 -67.5t-65.5 -48t-79 -18.5q-55 0 -96 15t-78 34.5t-74 35t-86 15.5q-47 0 -68.5 -23.5t-45.5 -80.5 q-6 -14 -15.5 -21.5t-27.5 -7.5q-39 0 -39 57z" />
<glyph unicode="&#x2000;" horiz-adv-x="989" />
<glyph unicode="&#x2001;" horiz-adv-x="1978" />
<glyph unicode="&#x2002;" horiz-adv-x="989" />
<glyph unicode="&#x2003;" horiz-adv-x="1978" />
<glyph unicode="&#x2004;" horiz-adv-x="659" />
<glyph unicode="&#x2005;" horiz-adv-x="494" />
<glyph unicode="&#x2006;" horiz-adv-x="329" />
<glyph unicode="&#x2007;" horiz-adv-x="329" />
<glyph unicode="&#x2008;" horiz-adv-x="247" />
<glyph unicode="&#x2009;" horiz-adv-x="395" />
<glyph unicode="&#x200a;" horiz-adv-x="109" />
<glyph unicode="&#x2010;" horiz-adv-x="835" d="M111 518q0 35 19.5 51.5t49.5 20.5q102 14 208 18t218 4q70 0 94.5 -14t24.5 -45q0 -39 -21.5 -70.5t-62.5 -31.5q-31 0 -86 1t-122.5 3t-138.5 3t-130 1q-25 0 -39 17.5t-14 41.5z" />
<glyph unicode="&#x2011;" horiz-adv-x="835" d="M111 518q0 35 19.5 51.5t49.5 20.5q102 14 208 18t218 4q70 0 94.5 -14t24.5 -45q0 -39 -21.5 -70.5t-62.5 -31.5q-31 0 -86 1t-122.5 3t-138.5 3t-130 1q-25 0 -39 17.5t-14 41.5z" />
<glyph unicode="&#x2012;" horiz-adv-x="835" d="M111 518q0 35 19.5 51.5t49.5 20.5q102 14 208 18t218 4q70 0 94.5 -14t24.5 -45q0 -39 -21.5 -70.5t-62.5 -31.5q-31 0 -86 1t-122.5 3t-138.5 3t-130 1q-25 0 -39 17.5t-14 41.5z" />
<glyph unicode="&#x2013;" horiz-adv-x="1024" d="M0 520q0 39 14.5 54.5t42.5 19.5q14 2 78 5t152 6t187 5t187.5 5t152 4.5t79.5 1.5q76 0 103.5 -7.5t27.5 -48.5q0 -29 -20.5 -60.5t-71.5 -31.5h-73.5t-155 -1t-197 -1t-199.5 -1t-165 -1h-91q-51 0 -51 51z" />
<glyph unicode="&#x2014;" horiz-adv-x="2048" d="M0 516q0 41 15.5 56.5t43.5 19.5q10 2 93.5 4t212.5 4t289.5 5t329.5 5t331 4t292 3t214 2.5t96 1.5q74 0 102.5 -7.5t28.5 -42.5q0 -33 -22.5 -65.5t-75.5 -32.5h-1901q-29 0 -39 12.5t-10 30.5z" />
<glyph unicode="&#x2018;" horiz-adv-x="442" d="M88 1049q0 100 46 187t112 136q47 37 71 37q16 0 26.5 -10t10.5 -27q0 -16 -7 -25.5t-25 -25.5q-41 -37 -61.5 -83t-20.5 -105q0 -35 7 -59.5t14 -45t14.5 -40t7.5 -44.5q0 -31 -20.5 -52.5t-59.5 -21.5q-47 0 -81 44t-34 135z" />
<glyph unicode="&#x2019;" horiz-adv-x="442" d="M88 907q0 16 7 25.5t26 25.5q41 37 61.5 83.5t20.5 105.5q0 35 -7.5 59.5t-14.5 45t-14 40t-7 43.5q0 31 20.5 52.5t59.5 21.5q47 0 80.5 -44t33.5 -134q0 -100 -46 -187.5t-111 -136.5q-47 -37 -72 -37q-16 0 -26.5 10.5t-10.5 26.5z" />
<glyph unicode="&#x201a;" horiz-adv-x="442" d="M88 -223q0 16 7 25.5t26 25.5q41 37 61.5 83t20.5 105q0 35 -7.5 59.5t-14.5 45t-14 40t-7 44.5q0 31 20.5 52.5t59.5 21.5q47 0 80.5 -44.5t33.5 -134.5q0 -100 -46 -187t-111 -136q-47 -37 -72 -37q-16 0 -26.5 10t-10.5 27z" />
<glyph unicode="&#x201c;" horiz-adv-x="765" d="M88 1049q0 100 46 187t112 136q47 37 71 37q16 0 26.5 -10t10.5 -27q0 -16 -7 -25.5t-25 -25.5q-41 -37 -61.5 -83t-20.5 -105q0 -35 7 -59.5t14 -45t14.5 -40t7.5 -44.5q0 -31 -20.5 -52.5t-59.5 -21.5q-47 0 -81 44t-34 135zM412 1049q0 100 46 187t111 136 q47 37 72 37q16 0 26.5 -10t10.5 -27q0 -16 -7 -25.5t-26 -25.5q-41 -37 -61.5 -83t-20.5 -105q0 -35 7.5 -59.5t14.5 -45t14 -40t7 -44.5q0 -31 -20.5 -52.5t-59.5 -21.5q-47 0 -80.5 44t-33.5 135z" />
<glyph unicode="&#x201d;" horiz-adv-x="765" d="M88 907q0 16 7 25.5t26 25.5q41 37 61.5 83.5t20.5 105.5q0 35 -7.5 59.5t-14.5 45t-14 40t-7 43.5q0 31 20.5 52.5t59.5 21.5q47 0 80.5 -44t33.5 -134q0 -100 -46 -187.5t-111 -136.5q-47 -37 -72 -37q-16 0 -26.5 10.5t-10.5 26.5zM412 907q0 16 7 25.5t25 25.5 q41 37 61.5 83.5t20.5 105.5q0 35 -7 59.5t-14 45t-14.5 40t-7.5 43.5q0 31 20.5 52.5t59.5 21.5q47 0 81 -44t34 -134q0 -100 -46 -187.5t-112 -136.5q-47 -37 -71 -37q-16 0 -26.5 10.5t-10.5 26.5z" />
<glyph unicode="&#x201e;" horiz-adv-x="774" d="M88 -223q0 16 7 25.5t26 25.5q41 37 61.5 83t20.5 105q0 35 -7.5 59.5t-14.5 45t-14 40t-7 44.5q0 31 20.5 52.5t59.5 21.5q47 0 80.5 -44.5t33.5 -134.5q0 -100 -46 -187t-111 -136q-47 -37 -72 -37q-16 0 -26.5 10t-10.5 27zM420 -223q0 16 7 25.5t26 25.5 q41 37 61.5 83t20.5 105q0 35 -7.5 59.5t-14.5 45t-14 40t-7 44.5q0 31 20 52.5t59 21.5q47 0 81 -44.5t34 -134.5q0 -100 -46 -187t-112 -136q-47 -37 -71 -37q-16 0 -26.5 10t-10.5 27z" />
<glyph unicode="&#x2022;" horiz-adv-x="638" d="M129 610q0 41 16.5 81t44 71t65.5 50t81 19q78 0 126 -52t48 -128q0 -41 -16.5 -81t-44 -70.5t-65.5 -50t-81 -19.5q-76 0 -125 52.5t-49 127.5z" />
<glyph unicode="&#x2026;" horiz-adv-x="1415" d="M137 123q0 53 36 95t93 42t83 -38t26 -79q0 -55 -40 -96t-93 -41t-79 37t-26 80zM588 125q0 53 35.5 94t91.5 41q55 0 80.5 -38t25.5 -77q0 -53 -39 -94t-92 -41q-51 0 -76.5 37t-25.5 78zM1036 131q0 55 36 97t95 42t85 -38.5t26 -79.5q0 -57 -40 -98.5t-95 -41.5 q-53 0 -80 37t-27 82z" />
<glyph unicode="&#x202f;" horiz-adv-x="395" />
<glyph unicode="&#x2039;" horiz-adv-x="667" d="M82 469q0 20 8 48t39 56q35 33 86 72t107.5 77t113 71t103.5 53q10 4 18 7t18 3q25 0 36.5 -19.5t11.5 -37.5q0 -16 -7.5 -31.5t-23.5 -26.5q-92 -49 -179 -97t-177 -120q-16 -12 -17 -26q0 -12 12 -25q20 -23 59.5 -50.5t87.5 -58t99 -60.5t98 -54q23 -10 33 -25.5 t10 -42.5q0 -25 -16 -52.5t-51 -27.5q-14 0 -31 9q-43 18 -95 48.5t-104.5 65.5t-100.5 72t-83 70q-35 31 -45 56.5t-10 45.5z" />
<glyph unicode="&#x203a;" horiz-adv-x="667" d="M45 160q0 16 7 31.5t24 25.5q92 49 179 97t177 120q16 12 17 27q0 12 -13 24q-20 20 -59 49t-87 60t-100.5 60.5t-97.5 54.5q-43 20 -43 67q0 25 16.5 52.5t51.5 27.5q14 0 30 -8q43 -18 95.5 -49t104.5 -66t100.5 -71.5t82.5 -69.5q35 -31 45.5 -56.5t10.5 -46.5 q0 -20 -8.5 -47.5t-38.5 -56.5q-35 -33 -86.5 -72t-107.5 -76.5t-113.5 -70.5t-102.5 -53q-10 -4 -18.5 -7.5t-18.5 -3.5q-25 0 -36 19.5t-11 38.5z" />
<glyph unicode="&#x205f;" horiz-adv-x="494" />
<glyph unicode="&#x20ac;" d="M70 467q0 29 13 47t30 23q20 4 46.5 8t61.5 8v49v59.5t4 59.5q-29 -4 -51 -6t-43 -2q-39 0 -39 51q0 72 78 78l76 6q20 98 62 185t108.5 151.5t158 102.5t211.5 38q45 0 93.5 -8t88.5 -25.5t65.5 -43t25.5 -62.5q0 -31 -22.5 -53.5t-45.5 -22.5q-12 0 -22.5 4t-22.5 10 q-29 14 -52.5 26.5t-48 20t-53 11.5t-65.5 4q-74 0 -132 -26.5t-101 -72t-73 -104.5t-46 -125q57 4 122.5 9t128 9.5t118 6.5t94.5 2q47 0 47 -49q0 -29 -15.5 -56.5t-48.5 -29.5q-117 -6 -239.5 -8.5t-229.5 -8.5q-2 -18 -2 -36.5v-37.5v-46t4 -48q53 4 109.5 8.5t110 7.5 t101.5 4t83 1q27 0 36 -16.5t9 -39.5t-14.5 -50t-49.5 -27q-76 0 -176 -2t-186 -7q16 -63 44 -119.5t68.5 -99.5t97 -67.5t130.5 -24.5q55 0 97 6t76 18.5t61.5 31t56.5 40.5l26 19.5t23 7.5q23 0 37 -18.5t14 -36.5q0 -47 -76 -111q-72 -59 -158 -86t-184 -27 q-104 0 -182 37t-133.5 100.5t-89 145.5t-49.5 172l-78 -8q-16 -2 -28.5 -3t-18.5 -1q-14 0 -27.5 9t-13.5 38z" />
<glyph unicode="&#x2122;" horiz-adv-x="1062" d="M20 1327q0 6 5.5 16.5t23.5 18.5q29 12 69 25.5t85 23.5t90 16.5t86 6.5h42t38 -4q23 -4 28 -14.5t5 -20.5q0 -23 -12.5 -41.5t-37.5 -18.5q-10 0 -33.5 3t-52.5 3h-26.5t-30.5 -2q-8 -23 -13 -45t-8.5 -47.5t-5.5 -58.5t-2 -76q0 -41 2 -77t2 -52q0 -18 -15 -30.5 t-34 -12.5q-39 0 -45 47q-2 18 -3 44t-1 54q0 82 10.5 137.5t26.5 106.5q-33 -6 -66.5 -15t-62.5 -18q-23 -6 -37 -6q-16 0 -21.5 10.5t-5.5 26.5zM535 1085q0 76 8 153t24 130q6 20 20.5 36.5t47.5 16.5q45 0 59 -57l19 -72q14 -55 26.5 -88t34.5 -33q6 0 11.5 1.5 t11.5 10.5t15 29.5t22 57.5l32 94q10 27 22.5 43t41.5 16q45 0 53 -73q8 -59 14.5 -138t6.5 -149v-39.5t-5 -38.5q-2 -16 -12 -30.5t-37 -14.5q-10 0 -25.5 10.5t-15.5 38.5q0 37 -1 88t-1 129v54.5t-8 13.5q-6 0 -11 -15.5t-9 -31.5q-27 -86 -53.5 -124t-59.5 -38 q-47 0 -70.5 45t-46.5 111q-4 10 -9 29.5t-11 19.5q-8 0 -9.5 -17.5t-1.5 -42.5t2.5 -60.5t4.5 -68.5q2 -29 4 -51t2 -39q0 -18 -10.5 -34.5t-32.5 -16.5q-29 0 -38 12.5t-11 34.5q-2 23 -3 47.5t-1 50.5z" />
<glyph unicode="&#xe000;" horiz-adv-x="952" d="M0 0v952h952v-952h-952z" />
</font>
</defs>
</svg>
